<svg width="16" height="16" viewBox="0 0 16 16" fill="none" xmlns="http://www.w3.org/2000/svg">
<path d="M6.00008 10.0002C5.86823 10.0002 5.73933 10.0393 5.6297 10.1125C5.52007 10.1858 5.43462 10.2899 5.38416 10.4117C5.3337 10.5335 5.3205 10.6676 5.34622 10.7969C5.37195 10.9262 5.43544 11.045 5.52868 11.1382C5.62191 11.2315 5.7407 11.295 5.87002 11.3207C5.99934 11.3464 6.13339 11.3332 6.2552 11.2827C6.37702 11.2323 6.48114 11.1468 6.55439 11.0372C6.62765 10.9276 6.66675 10.7987 6.66675 10.6668C6.66675 10.49 6.59651 10.3204 6.47149 10.1954C6.34646 10.0704 6.17689 10.0002 6.00008 10.0002ZM1.33341 9.3335C1.1566 9.3335 0.987034 9.40373 0.86201 9.52876C0.736986 9.65378 0.666748 9.82335 0.666748 10.0002V11.3335C0.666748 11.5103 0.736986 11.6799 0.86201 11.8049C0.987034 11.9299 1.1566 12.0002 1.33341 12.0002C1.51023 12.0002 1.6798 11.9299 1.80482 11.8049C1.92984 11.6799 2.00008 11.5103 2.00008 11.3335V10.0002C2.00008 9.82335 1.92984 9.65378 1.80482 9.52876C1.6798 9.40373 1.51023 9.3335 1.33341 9.3335ZM14.6667 9.3335C14.4899 9.3335 14.3204 9.40373 14.1953 9.52876C14.0703 9.65378 14.0001 9.82335 14.0001 10.0002V11.3335C14.0001 11.5103 14.0703 11.6799 14.1953 11.8049C14.3204 11.9299 14.4899 12.0002 14.6667 12.0002C14.8436 12.0002 15.0131 11.9299 15.1382 11.8049C15.2632 11.6799 15.3334 11.5103 15.3334 11.3335V10.0002C15.3334 9.82335 15.2632 9.65378 15.1382 9.52876C15.0131 9.40373 14.8436 9.3335 14.6667 9.3335ZM11.3334 4.66683H8.66675V3.8135C8.86827 3.69716 9.03583 3.5301 9.15278 3.32894C9.26974 3.12778 9.33201 2.89951 9.33342 2.66683C9.33342 2.31321 9.19294 1.97407 8.94289 1.72402C8.69284 1.47397 8.3537 1.3335 8.00008 1.3335C7.64646 1.3335 7.30732 1.47397 7.05727 1.72402C6.80722 1.97407 6.66675 2.31321 6.66675 2.66683C6.66815 2.89951 6.73043 3.12778 6.84738 3.32894C6.96434 3.5301 7.1319 3.69716 7.33342 3.8135V4.66683H4.66675C4.13632 4.66683 3.62761 4.87754 3.25253 5.25262C2.87746 5.62769 2.66675 6.1364 2.66675 6.66683V12.6668C2.66675 13.1973 2.87746 13.706 3.25253 14.081C3.62761 14.4561 4.13632 14.6668 4.66675 14.6668H11.3334C11.8638 14.6668 12.3726 14.4561 12.7476 14.081C13.1227 13.706 13.3334 13.1973 13.3334 12.6668V6.66683C13.3334 6.1364 13.1227 5.62769 12.7476 5.25262C12.3726 4.87754 11.8638 4.66683 11.3334 4.66683ZM9.14675 6.00016L8.81342 7.3335H7.18675L6.85341 6.00016H9.14675ZM12.0001 12.6668C12.0001 12.8436 11.9298 13.0132 11.8048 13.1382C11.6798 13.2633 11.5102 13.3335 11.3334 13.3335H4.66675C4.48994 13.3335 4.32037 13.2633 4.19534 13.1382C4.07032 13.0132 4.00008 12.8436 4.00008 12.6668V6.66683C4.00008 6.49002 4.07032 6.32045 4.19534 6.19542C4.32037 6.0704 4.48994 6.00016 4.66675 6.00016H5.48008L6.00008 8.16016C6.03658 8.30808 6.12265 8.43903 6.24394 8.53122C6.36524 8.62341 6.51446 8.67127 6.66675 8.66683H9.33342C9.4857 8.67127 9.63492 8.62341 9.75622 8.53122C9.87752 8.43903 9.96358 8.30808 10.0001 8.16016L10.5201 6.00016H11.3334C11.5102 6.00016 11.6798 6.0704 11.8048 6.19542C11.9298 6.32045 12.0001 6.49002 12.0001 6.66683V12.6668ZM10.0001 10.0002C9.86823 10.0002 9.73933 10.0393 9.6297 10.1125C9.52007 10.1858 9.43462 10.2899 9.38416 10.4117C9.3337 10.5335 9.3205 10.6676 9.34622 10.7969C9.37195 10.9262 9.43544 11.045 9.52868 11.1382C9.62191 11.2315 9.7407 11.295 9.87002 11.3207C9.99934 11.3464 10.1334 11.3332 10.2552 11.2827C10.377 11.2323 10.4811 11.1468 10.5544 11.0372C10.6276 10.9276 10.6667 10.7987 10.6667 10.6668C10.6667 10.49 10.5965 10.3204 10.4715 10.1954C10.3465 10.0704 10.1769 10.0002 10.0001 10.0002Z" fill="white"/>
</svg>
