<svg viewBox="0 0 54 54" fill="none" xmlns="http://www.w3.org/2000/svg">
<path fill-rule="evenodd" clip-rule="evenodd" d="M36.5154 17.2075C37.1899 16.4461 38.1653 16.125 39.2746 16.125C40.6419 16.125 41.5912 16.4103 42.2384 16.6847C42.4143 16.7593 42.5042 16.954 42.4576 17.1404L42.0594 18.7335C41.997 18.9832 41.7243 19.1048 41.4928 18.9956C41.0186 18.7719 40.3621 18.5417 39.2746 18.5417C38.6141 18.5417 38.3895 18.7224 38.3064 18.8162C37.9757 19.1894 37.9672 19.7197 38.3797 19.9761C38.989 20.3546 39.6717 20.5874 40.3552 20.8205C40.9871 21.036 41.6195 21.2516 42.1951 21.5828C42.8019 21.9321 43.6746 22.6047 43.6746 23.7778C43.6746 24.8614 43.3338 25.8893 42.4283 26.5858C41.5863 27.2338 40.4587 27.4308 39.2467 27.4025C37.7333 27.367 36.6719 27.03 36.041 26.7438C35.8396 26.6525 35.7701 26.4066 35.8771 26.212L36.653 24.8029C36.7602 24.6085 37.0039 24.5384 37.2098 24.6188C37.6085 24.7743 38.2909 24.9628 39.3024 24.9864C40.2911 25.0096 40.7637 24.8253 40.9712 24.6655C41.3282 24.391 41.3891 23.9025 41.0042 23.681C40.4171 23.3432 39.7795 23.1237 39.1415 22.9039C38.4466 22.6647 37.7511 22.4252 37.1194 22.0326C36.4711 21.6298 35.6746 20.9156 35.6746 19.75C35.6746 18.8874 35.8642 17.9426 36.5154 17.2075ZM28.9674 16.1966H26.3818L24.5104 23.2118L22.8323 16.2815H20.3736L23.158 27.4031H25.7674L27.6746 21.0018L29.5818 27.4031H32.1911L35.0459 16.2815H32.5168L30.8386 23.2118L28.9674 16.1966ZM43.0039 31.2087C42.7559 30.926 41.6151 31.0236 40.5191 31.1172C39.4314 31.2103 38.3879 31.2994 38.3045 31.0097C38.1371 30.428 43.3688 29.0801 44.6611 30.1359C45.7858 31.0547 42.8821 36.4766 42.0831 36.0388C41.9239 35.9517 42.1611 35.2964 42.4541 34.4873C42.8923 33.2774 43.4551 31.7233 43.0039 31.2087ZM27.2859 34.9359C20.0425 34.9359 14.8517 32.4096 12.1713 31.1051C11.0489 30.5588 10.3666 30.2267 10.1582 30.3842C9.45184 30.9174 17.7156 37.4964 27.2859 37.4964C35.6557 37.4964 42.8954 32.9449 41.8359 32.3402C41.4573 32.1242 40.664 32.3939 39.3818 32.8298C37.0754 33.6139 33.1872 34.9359 27.2859 34.9359ZM15.2746 18.5417C16.0805 18.5417 16.677 18.7127 17.0279 18.9019C17.3967 19.1009 17.3448 19.6398 17.3006 20.0977C17.2872 20.2365 17.2746 20.3679 17.2746 20.4802C16.6709 20.3112 15.9368 20.1528 15.2746 20.1528C13.9262 20.1528 12.7842 20.6056 11.9875 21.4741C11.2055 22.3267 10.8746 23.4507 10.8746 24.5833C10.8746 25.1961 11.0304 25.7567 11.3642 26.2222C11.6927 26.6802 12.1266 26.953 12.5289 27.115C13.2481 27.4047 14.0467 27.4034 14.4279 27.4028H14.4746C15.6692 27.4028 16.8823 26.8853 17.6962 26.463C17.7583 26.4306 17.8191 26.3984 17.8785 26.3664C18.1043 26.7313 18.3615 27.0583 18.5572 27.2554C19.7991 27.0875 20.1912 26.7517 20.2542 25.5465C20.2043 25.4962 20.031 25.2876 19.8736 25.019C19.7986 24.8911 19.7422 24.7747 19.707 24.6797C19.6832 24.6151 19.6764 24.5803 19.6748 24.5714L19.6746 18.9445C19.6746 17.8717 18.8644 17.1511 18.1612 16.7717C17.3921 16.3568 16.3886 16.125 15.2746 16.125C14.6122 16.125 13.4987 16.4096 12.661 16.6818C12.3172 16.7936 12.1072 17.1355 12.1421 17.4976L12.1968 18.066C12.2538 18.6571 12.9325 19.0315 13.498 18.863C14.137 18.6726 14.8339 18.5417 15.2746 18.5417ZM17.2746 23.0081V23.9305C17.0858 24.0467 16.8544 24.1811 16.5966 24.3148C15.8584 24.6981 15.0715 24.9861 14.4746 24.9861C14.2703 24.9861 14.074 24.9853 13.8758 24.9665C12.8648 24.8695 13.0728 23.8529 13.7506 23.1138C14.0169 22.8234 14.4749 22.5695 15.2746 22.5695C15.7213 22.5695 16.3744 22.7215 16.9966 22.9172C17.0936 22.9477 17.1867 22.9783 17.2746 23.0081Z" fill="#727C9D"/>
</svg>
