<svg width="100" height="100" viewBox="0 0 100 100" fill="none" xmlns="http://www.w3.org/2000/svg">
<g clip-path="url(#clip0_4913_44964)">
<path d="M28.183 41.7192C28.1572 42.7186 28.2805 43.7163 28.5487 44.6793C28.8443 45.5029 29.2001 46.3035 29.6134 47.0747C29.7613 47.3028 29.8421 47.5679 29.8463 47.8398C29.8463 48.1723 29.6467 48.5052 29.2143 48.8375L27.1191 50.2344C26.8663 50.4165 26.5657 50.5205 26.2544 50.5337C25.8756 50.5076 25.52 50.3417 25.2567 50.0681C24.8084 49.5865 24.4073 49.0631 24.059 48.505C23.7265 47.9396 23.3936 47.3073 23.028 46.5426C20.4338 49.6019 17.1744 51.1316 13.2497 51.1316C10.455 51.1316 8.2276 50.3331 6.59794 48.7362C4.96828 47.1392 4.13672 45.0118 4.13672 42.3512C4.13672 39.5242 5.13444 37.2293 7.16334 35.4998C9.19224 33.7703 11.886 32.9055 15.3116 32.9055C16.4914 32.9152 17.6693 33.0041 18.8371 33.1717C20.0677 33.338 21.3316 33.604 22.6618 33.9034V31.4755C22.6618 28.947 22.1295 27.1852 21.0987 26.154C20.0341 25.123 18.2385 24.6241 15.6774 24.6241C14.4671 24.6241 13.2611 24.7692 12.0854 25.0565C10.8628 25.3477 9.66239 25.7256 8.49338 26.1873C8.11515 26.3565 7.72631 26.5009 7.32931 26.6196C7.15709 26.6764 6.97808 26.7099 6.79699 26.7194C6.3314 26.7194 6.09851 26.3869 6.09851 25.6884V24.0587C6.09851 23.5264 6.16505 23.1272 6.3314 22.8947C6.58237 22.5915 6.90161 22.3521 7.26296 22.1962C8.59695 21.5361 10.0033 21.0339 11.4537 20.6996C13.1484 20.2647 14.8925 20.0523 16.6421 20.0677C20.6006 20.0677 23.4934 20.9656 25.356 22.7616C27.1852 24.5576 28.1164 27.2848 28.1164 30.9433V41.7192H28.183ZM14.6799 46.7746C15.8467 46.7617 17.0036 46.5595 18.1056 46.1759C19.3263 45.7536 20.4155 45.0196 21.2651 44.0466C21.8012 43.4336 22.1882 42.7048 22.3959 41.9173C22.6244 40.97 22.7361 39.9982 22.7284 39.0238V37.6283C21.72 37.3829 20.6986 37.1941 19.6691 37.0629C18.632 36.9316 17.5876 36.8652 16.5423 36.8643C14.3139 36.8643 12.6843 37.2966 11.5867 38.1951C10.4892 39.0936 9.95707 40.3569 9.95707 42.0198C9.95707 43.5829 10.3563 44.747 11.1877 45.5453C11.9862 46.3768 13.15 46.7759 14.6799 46.7759V46.7746ZM41.3868 50.3666C40.7881 50.3666 40.3891 50.2668 40.1229 50.0341C39.8567 49.8344 39.624 49.3687 39.4244 48.7369L31.6083 23.0277C31.4567 22.5974 31.3563 22.1507 31.309 21.6969C31.309 21.1646 31.5752 20.8654 32.1075 20.8654H35.3668C35.9988 20.8654 36.4315 20.9652 36.664 21.1979C36.9301 21.3975 37.1296 21.8633 37.3294 22.495L42.9168 44.5124L48.1051 22.4956C48.2714 21.8302 48.4708 21.3981 48.737 21.1985C49.0032 20.9988 49.4687 20.8659 50.0678 20.8659H52.7294C53.3613 20.8659 53.794 20.9658 54.0602 21.1985C54.3264 21.3981 54.5591 21.8639 54.6921 22.4956L59.9471 44.7791L65.699 22.4956C65.8986 21.8302 66.1313 21.3981 66.3644 21.1985C66.6306 20.9988 67.0629 20.8659 67.6616 20.8659H70.7547C71.287 20.8659 71.5863 21.1321 71.5863 21.6975C71.5785 21.8765 71.5563 22.0545 71.5197 22.2298C71.4676 22.5135 71.3897 22.7919 71.2868 23.0614L63.2714 48.7706C63.0719 49.4357 62.8391 49.8681 62.5729 50.0677C62.197 50.3084 61.7548 50.4247 61.3091 50.4002H58.4486C57.8167 50.4002 57.384 50.3004 57.1178 50.0677C56.8516 49.835 56.6189 49.4023 56.4859 48.7369L51.3311 27.2848L46.209 48.7036C46.0427 49.369 45.8433 49.8012 45.5771 50.0344C45.3109 50.2677 44.8454 50.367 44.2463 50.367L41.3868 50.3666ZM84.1245 51.2645C82.3997 51.2663 80.6806 51.0654 79.0026 50.6658C77.3397 50.2666 76.0426 49.8343 75.1779 49.335C74.6456 49.0358 74.28 48.7031 74.1469 48.4035C74.0174 48.1098 73.9495 47.7928 73.9473 47.4719V45.7768C73.9473 45.0784 74.2135 44.7458 74.7123 44.7458C74.916 44.7465 75.1181 44.7802 75.311 44.8457C75.5106 44.9122 75.8099 45.0453 76.1426 45.1782C77.3173 45.6949 78.5438 46.0851 79.8011 46.3422C81.1038 46.6067 82.4297 46.7404 83.7589 46.7415C85.8542 46.7415 87.484 46.3757 88.6148 45.6439C89.1566 45.3171 89.6021 44.8525 89.906 44.2975C90.2098 43.7425 90.3613 43.117 90.3449 42.4844C90.3566 42.0563 90.2832 41.63 90.1291 41.2304C89.975 40.8308 89.7431 40.4657 89.447 40.1563C88.8483 39.5244 87.7169 38.9586 86.0878 38.4263L81.2642 36.9299C78.8363 36.165 77.0403 35.0342 75.9429 33.5373C74.8722 32.157 74.2876 30.4615 74.28 28.7146C74.253 27.4269 74.5625 26.1543 75.1779 25.0228C75.772 23.9528 76.5889 23.0228 77.5734 22.2956C78.61 21.5108 79.7826 20.9243 81.0323 20.5656C82.3938 20.1737 83.8054 19.9835 85.222 20.0011C85.967 19.9957 86.7114 20.0402 87.4504 20.1342C88.2154 20.234 88.9143 20.3671 89.6122 20.5C90.2776 20.6663 90.9093 20.8325 91.508 21.0323C91.9933 21.1824 92.4615 21.3831 92.9049 21.631C93.2966 21.8285 93.6379 22.1129 93.9027 22.4625C94.1189 22.7862 94.224 23.1714 94.2019 23.5601V25.1232C94.2019 25.8217 93.9357 26.1878 93.4369 26.1878C93.1707 26.1878 92.7384 26.0547 92.173 25.7886C90.2772 24.9238 88.1486 24.4914 85.7873 24.4914C83.8914 24.4914 82.3949 24.7907 81.3639 25.423C80.3329 26.0553 79.8007 27.02 79.8007 28.3831C79.7916 28.8247 79.8758 29.2633 80.0477 29.6702C80.2196 30.0771 80.4754 30.4432 80.7985 30.7445C81.4639 31.3764 82.6943 32.0084 84.457 32.5738L89.1798 34.0696C91.5753 34.8346 93.304 35.8989 94.335 37.2624C95.3502 38.6003 95.8887 40.2393 95.8648 41.9187C95.882 43.2545 95.5859 44.5759 95.0002 45.7766C94.41 46.915 93.582 47.9132 92.5722 48.7035C91.4742 49.5582 90.2203 50.191 88.8804 50.5666C87.3399 51.0404 85.736 51.2759 84.1243 51.2651L84.1245 51.2645Z" fill="#252F3E"/>
<path d="M90.4082 67.4287C79.466 75.5107 63.5682 79.801 49.8988 79.801C30.7415 79.8017 13.4801 72.7175 0.443005 60.9439C-0.587985 60.0123 0.343195 58.7488 1.57381 59.48C15.6755 67.6618 33.0701 72.6169 51.0631 72.6169C63.2026 72.6169 76.5393 70.0884 88.812 64.9008C90.6413 64.0692 92.2044 66.0985 90.4089 67.4293L90.4082 67.4287Z" fill="#FF9900"/>
<path d="M94.9652 62.2413C93.5682 60.4452 85.7191 61.3766 82.1604 61.8089C81.0958 61.942 80.9298 61.0105 81.8942 60.3124C88.1469 55.9222 98.4239 57.1859 99.6213 58.6494C100.819 60.146 99.2888 70.423 93.4351 75.3455C92.5372 76.1105 91.6724 75.7112 92.0714 74.7135C93.4021 71.4207 96.3621 64.004 94.9652 62.2413Z" fill="#FF9900"/>
</g>
<defs>
<clipPath id="clip0_4913_44964">
<rect width="100" height="59.7995" fill="white" transform="translate(0 20)"/>
</clipPath>
</defs>
</svg>
