<svg width="32" height="32" viewBox="0 0 32 32" fill="none" xmlns="http://www.w3.org/2000/svg">
<path d="M29.5 29H28V11.5C28 11.3674 27.9473 11.2402 27.8536 11.1464C27.7598 11.0527 27.6326 11 27.5 11H26V9.5C26 9.36739 25.9473 9.24021 25.8536 9.14645C25.7598 9.05268 25.6326 9 25.5 9H24V7.5C24 7.36739 23.9473 7.24021 23.8536 7.14645C23.7598 7.05268 23.6326 7 23.5 7H22.5V5.5C22.5 5.36739 22.4473 5.24021 22.3536 5.14645C22.2598 5.05268 22.1326 5 22 5C21.8674 5 21.7402 5.05268 21.6464 5.14645C21.5527 5.24021 21.5 5.36739 21.5 5.5V7H20.5C20.3674 7 20.2402 7.05268 20.1464 7.14645C20.0527 7.24021 20 7.36739 20 7.5V9H19V2.5C19 2.36739 18.9473 2.24021 18.8536 2.14645C18.7598 2.05268 18.6326 2 18.5 2H4.5C4.36739 2 4.24021 2.05268 4.14645 2.14645C4.05268 2.24021 4 2.36739 4 2.5V29H2.5C2.36739 29 2.24021 29.0527 2.14645 29.1464C2.05268 29.2402 2 29.3674 2 29.5C2 29.6326 2.05268 29.7598 2.14645 29.8536C2.24021 29.9473 2.36739 30 2.5 30H29.5C29.6326 30 29.7598 29.9473 29.8536 29.8536C29.9473 29.7598 30 29.6326 30 29.5C30 29.3674 29.9473 29.2402 29.8536 29.1464C29.7598 29.0527 29.6326 29 29.5 29ZM21 8H23V9H21V8ZM25 10V11H19V10H25ZM5 3H18V11H7.5C7.36739 11 7.24021 11.0527 7.14645 11.1464C7.05268 11.2402 7 11.3674 7 11.5C7 11.6326 7.05268 11.7598 7.14645 11.8536C7.24021 11.9473 7.36739 12 7.5 12H16V14H7.5C7.36739 14 7.24021 14.0527 7.14645 14.1464C7.05268 14.2402 7 14.3674 7 14.5C7 14.6326 7.05268 14.7598 7.14645 14.8536C7.24021 14.9473 7.36739 15 7.5 15H16V17H7.5C7.36739 17 7.24021 17.0527 7.14645 17.1464C7.05268 17.2402 7 17.3674 7 17.5C7 17.6326 7.05268 17.7598 7.14645 17.8536C7.24021 17.9473 7.36739 18 7.5 18H16V20H7.5C7.36739 20 7.24021 20.0527 7.14645 20.1464C7.05268 20.2402 7 20.3674 7 20.5C7 20.6326 7.05268 20.7598 7.14645 20.8536C7.24021 20.9473 7.36739 21 7.5 21H16V23H7.5C7.36739 23 7.24021 23.0527 7.14645 23.1464C7.05268 23.2402 7 23.3674 7 23.5C7 23.6326 7.05268 23.7598 7.14645 23.8536C7.24021 23.9473 7.36739 24 7.5 24H16V26H7.5C7.36739 26 7.24021 26.0527 7.14645 26.1464C7.05268 26.2402 7 26.3674 7 26.5C7 26.6326 7.05268 26.7598 7.14645 26.8536C7.24021 26.9473 7.36739 27 7.5 27H16V29H5V3ZM18.5 29H17V12H27V29H18.5Z" fill="#1E0A52"/>
<path d="M7.5 9H16.5C16.6326 9 16.7598 8.94732 16.8536 8.85355C16.9473 8.75979 17 8.63261 17 8.5C17 8.36739 16.9473 8.24021 16.8536 8.14645C16.7598 8.05268 16.6326 8 16.5 8H7.5C7.36739 8 7.24021 8.05268 7.14645 8.14645C7.05268 8.24021 7 8.36739 7 8.5C7 8.63261 7.05268 8.75979 7.14645 8.85355C7.24021 8.94732 7.36739 9 7.5 9ZM24.5 14H19.5C19.3674 14 19.2402 14.0527 19.1464 14.1464C19.0527 14.2402 19 14.3674 19 14.5C19 14.6326 19.0527 14.7598 19.1464 14.8536C19.2402 14.9473 19.3674 15 19.5 15H24.5C24.6326 15 24.7598 14.9473 24.8536 14.8536C24.9473 14.7598 25 14.6326 25 14.5C25 14.3674 24.9473 14.2402 24.8536 14.1464C24.7598 14.0527 24.6326 14 24.5 14ZM24.5 18H19.5C19.3674 18 19.2402 18.0527 19.1464 18.1464C19.0527 18.2402 19 18.3674 19 18.5C19 18.6326 19.0527 18.7598 19.1464 18.8536C19.2402 18.9473 19.3674 19 19.5 19H24.5C24.6326 19 24.7598 18.9473 24.8536 18.8536C24.9473 18.7598 25 18.6326 25 18.5C25 18.3674 24.9473 18.2402 24.8536 18.1464C24.7598 18.0527 24.6326 18 24.5 18ZM24.5 22H19.5C19.3674 22 19.2402 22.0527 19.1464 22.1464C19.0527 22.2402 19 22.3674 19 22.5C19 22.6326 19.0527 22.7598 19.1464 22.8536C19.2402 22.9473 19.3674 23 19.5 23H24.5C24.6326 23 24.7598 22.9473 24.8536 22.8536C24.9473 22.7598 25 22.6326 25 22.5C25 22.3674 24.9473 22.2402 24.8536 22.1464C24.7598 22.0527 24.6326 22 24.5 22ZM24.5 26H19.5C19.3674 26 19.2402 26.0527 19.1464 26.1464C19.0527 26.2402 19 26.3674 19 26.5C19 26.6326 19.0527 26.7598 19.1464 26.8536C19.2402 26.9473 19.3674 27 19.5 27H24.5C24.6326 27 24.7598 26.9473 24.8536 26.8536C24.9473 26.7598 25 26.6326 25 26.5C25 26.3674 24.9473 26.2402 24.8536 26.1464C24.7598 26.0527 24.6326 26 24.5 26ZM7.5 6H16.5C16.6326 6 16.7598 5.94732 16.8536 5.85355C16.9473 5.75979 17 5.63261 17 5.5C17 5.36739 16.9473 5.24021 16.8536 5.14645C16.7598 5.05268 16.6326 5 16.5 5H7.5C7.36739 5 7.24021 5.05268 7.14645 5.14645C7.05268 5.24021 7 5.36739 7 5.5C7 5.63261 7.05268 5.75979 7.14645 5.85355C7.24021 5.94732 7.36739 6 7.5 6Z" fill="#1E0A52"/>
</svg>
