<svg width="16" height="16" viewBox="0 0 16 16" fill="none" xmlns="http://www.w3.org/2000/svg">
<path d="M10.3458 13.8875C5.99805 12.4226 3.66791 9.76245 2.18392 6.01244C1.81293 5.26244 1.81292 3.38743 4.03889 2.18743C4.59537 1.88743 5.15187 1.88742 5.89386 2.63743C6.63585 3.38744 5.89385 2.63743 6.63585 3.38743C7.48921 4.25 7.3984 5 7.25 5.375C7.10161 5.825 6.41325 6.23744 6.63585 7.13745C6.85844 8.03745 7.97142 9.23745 8.86181 9.38745C9.7522 9.53745 10.254 8.975 10.625 8.75C10.996 8.525 11.6095 8.4148 12.2008 9.01245C12.5 9.31493 12.5718 9.38745 13.3137 10.1375C14.0557 10.8875 14.1396 11.4962 13.8331 12.0125C12.875 13.9603 11.263 14.1965 10.3458 13.8875Z" stroke="white" stroke-width="1.5" stroke-linecap="round" stroke-linejoin="round"/>
</svg>
