<svg viewBox="0 0 32 32" fill="none" xmlns="http://www.w3.org/2000/svg">
<path d="M9.25391 6.19452C10.561 5.85673 11.9418 5.91914 13.2158 6.37811C14.4568 6.82521 15.5348 7.62769 16.3213 8.67987C17.1981 7.96928 18.2409 7.48872 19.3555 7.28729L19.5879 7.25018C20.7518 7.08169 21.941 7.22117 23.0361 7.65741C24.2043 8.12287 25.2193 8.90675 25.9639 9.9201L26.0996 10.1125C26.7075 11.0037 27.0905 12.0283 27.2188 13.0988C28.3381 13.1989 29.3873 13.7028 30.166 14.5226L30.3203 14.6926C31.068 15.5622 31.468 16.6813 31.4385 17.8332C31.4069 19.062 30.8883 20.2278 29.9971 21.0744C29.1615 21.8681 28.0627 22.3205 26.916 22.3478H22.9141C22.937 22.6526 22.9191 22.9594 22.8604 23.2599L22.8193 23.4435C22.711 23.871 22.5212 24.2728 22.2607 24.6271L22.1445 24.7766C21.8643 25.1166 21.5212 25.3984 21.1348 25.6076L20.9658 25.6935C20.5102 25.9084 20.0126 26.0197 19.5088 26.0197H4.98633C4.0809 26.0186 3.21252 25.659 2.57227 25.0187C1.93204 24.3785 1.5724 23.5101 1.57129 22.6047V22.6037C1.57236 22.026 1.72144 21.4597 2.00195 20.9582C1.53335 20.4838 1.17184 19.9147 0.944336 19.2883L0.84375 18.9777C0.604695 18.1393 0.607213 17.2501 0.851562 16.4133L0.954102 16.1037C1.21777 15.3916 1.65376 14.7539 2.22461 14.2482C2.7991 13.7394 3.49043 13.3828 4.23438 13.2082C4.22109 13.041 4.21248 12.8731 4.21191 12.7053V12.7043L4.2168 12.4338C4.27125 11.0851 4.7307 9.78135 5.53809 8.69452L5.7041 8.48065C6.55193 7.43054 7.69803 6.65785 8.99414 6.26678L9.25391 6.19452ZM10.1143 16.3293C9.46943 16.0383 8.7457 15.9716 8.05859 16.1398C7.45716 16.2872 6.9135 16.6074 6.49414 17.0578L6.32227 17.259C5.88509 17.8152 5.64699 18.5017 5.64551 19.2092C5.64582 19.3737 5.6583 19.5379 5.68359 19.7004L5.71289 19.8625L5.71387 19.8635L5.72656 19.9533C5.73215 20.0131 5.73101 20.0733 5.72363 20.133L5.70801 20.2228C5.68712 20.3111 5.65225 20.3953 5.60449 20.4719L5.55273 20.5461C5.49673 20.6174 5.42901 20.6783 5.35352 20.7277L5.27539 20.7736C5.19442 20.8148 5.10708 20.8426 5.01758 20.8557L4.92773 20.8635C4.52855 20.8786 4.14862 21.0304 3.84961 21.2902L3.72656 21.4084C3.41283 21.74 3.24117 22.1814 3.24902 22.6379C3.25697 23.0943 3.4436 23.5292 3.76855 23.8498C4.09364 24.1704 4.53167 24.3512 4.98828 24.3527H19.5088L19.6807 24.3439C20.081 24.3037 20.4572 24.126 20.7441 23.8391C21.0713 23.5117 21.2556 23.0684 21.2568 22.6057L21.2451 22.4142C21.2303 22.2874 21.2015 22.1626 21.1592 22.0422L21.0859 21.8654C21.0832 21.8603 21.0794 21.8547 21.0762 21.8478V21.8488C20.9348 21.5525 20.7129 21.3019 20.4355 21.1262C20.1926 20.9724 19.9154 20.8805 19.6299 20.8596L19.5078 20.8557H19.3301C19.1368 20.8556 18.9509 20.7876 18.8027 20.6662L18.7412 20.6115C18.5849 20.4552 18.4971 20.2427 18.4971 20.0217L18.4883 19.7824C18.4527 19.3053 18.3088 18.8426 18.0684 18.4289L17.9404 18.2267C17.6226 17.7645 17.1884 17.3964 16.6836 17.1584L16.4639 17.0637C15.9398 16.8635 15.373 16.8071 14.8223 16.8976L14.5879 16.9455C14.0429 17.0781 13.5445 17.3534 13.1426 17.7404L12.9766 17.9133C12.9095 17.9885 12.8291 18.0505 12.7402 18.0969L12.6484 18.1379C12.5541 18.1734 12.4538 18.1917 12.3535 18.1916L12.2529 18.1848C12.1527 18.1725 12.0557 18.1426 11.9668 18.0959L11.8809 18.0441C11.7701 17.9677 11.6799 17.8653 11.6172 17.7463L11.6162 17.7453C11.3288 17.1972 10.8881 16.7473 10.3506 16.4484L10.1143 16.3293ZM13.0215 8.09686C12.0545 7.65949 10.9764 7.5377 9.93945 7.74628L9.73242 7.79218C8.7018 8.04482 7.77893 8.61517 7.0918 9.41913L6.95703 9.58319C6.25844 10.4736 5.87822 11.5725 5.87793 12.7043L5.88477 12.966C5.89862 13.2267 5.9339 13.486 5.98926 13.7414L6.00391 13.8312C6.01032 13.8916 6.00975 13.9525 6.00293 14.0129L5.9873 14.1037C5.96705 14.1929 5.93248 14.278 5.88477 14.3557L5.83301 14.4308C5.77681 14.5031 5.70897 14.5653 5.63281 14.6154L5.55371 14.6613C5.4449 14.7169 5.32521 14.748 5.20312 14.7521H5.20215C4.68364 14.7679 4.17971 14.9199 3.74023 15.1906L3.55664 15.3137C3.13661 15.6179 2.80519 16.0265 2.59375 16.4973L2.50977 16.7023C2.30816 17.2595 2.27866 17.8645 2.4248 18.4387L2.4873 18.6516C2.62391 19.058 2.84826 19.429 3.14258 19.7404C3.40273 19.5714 3.68519 19.44 3.98145 19.3478C3.98001 19.3006 3.97852 19.2534 3.97852 19.2062V19.2053L3.98242 19.0148C4.02127 18.0618 4.3412 17.1397 4.9043 16.3664L5.02051 16.2141C5.61186 15.4661 6.4125 14.9082 7.32227 14.6135C8.29282 14.2991 9.33849 14.2996 10.3086 14.6154L10.4883 14.6789C11.2753 14.97 11.9718 15.4608 12.5107 16.1017C13.1239 15.6593 13.8339 15.3664 14.584 15.2482L14.9092 15.2082C15.6679 15.141 16.4335 15.2539 17.1426 15.5402L17.4414 15.673C18.1267 16.0054 18.7254 16.4956 19.1865 17.1057L19.375 17.3732C19.7443 17.9377 19.9891 18.5741 20.0977 19.2404C20.5336 19.3175 20.9514 19.4778 21.3271 19.715C21.7236 19.9654 22.064 20.2944 22.3271 20.6808H26.6953C27.4826 20.6807 28.2372 20.3674 28.7939 19.8107C29.3508 19.2539 29.6641 18.4986 29.6641 17.7111C29.664 16.9238 29.3507 16.1683 28.7939 15.6115C28.2373 15.0551 27.4824 14.7425 26.6953 14.7424H26.4346C26.2415 14.7423 26.0554 14.6751 25.9072 14.5539L25.8457 14.4982C25.6895 14.342 25.6017 14.1302 25.6016 13.9094V13.9084L25.5879 13.5256C25.5221 12.6362 25.2212 11.7772 24.7139 11.0383C24.2065 10.2996 23.5132 9.71103 22.707 9.33026L22.3545 9.17987C21.5174 8.85964 20.6124 8.76905 19.7324 8.91327L19.3574 8.98944C18.4864 9.20096 17.6896 9.63968 17.0469 10.258L16.7812 10.5334C16.7141 10.6085 16.6337 10.6707 16.5449 10.717L16.4531 10.758C16.3274 10.8053 16.1919 10.8221 16.0586 10.8058C15.9251 10.7895 15.7972 10.7406 15.6865 10.6642C15.576 10.588 15.4856 10.4861 15.4229 10.3674L15.4219 10.3654C14.8983 9.36188 14.0528 8.56337 13.0215 8.09686Z" fill="currentColor" stroke="currentColor" stroke-width="0.666667"/>
<path d="M24.2549 12.0482L24.2666 12.0501L24.2773 12.053C24.2874 12.0564 24.2947 12.0586 24.3174 12.0648C24.3357 12.0697 24.3625 12.0775 24.3896 12.0911L24.4365 12.1155L24.4746 12.136L24.4834 12.14L24.4912 12.1458C24.5242 12.1689 24.5544 12.1957 24.582 12.2249H24.583C24.6123 12.2537 24.6389 12.285 24.6621 12.3187L24.7217 12.4261L24.7236 12.431L24.7588 12.5521C24.766 12.5922 24.7692 12.6331 24.7686 12.6741L24.7578 12.7962C24.7504 12.8362 24.7385 12.8754 24.7236 12.9134L24.7217 12.9193L24.7207 12.9183C24.6875 12.9935 24.6416 13.0627 24.583 13.1204L24.582 13.1194C24.5543 13.1488 24.5243 13.1764 24.4912 13.1995L24.4834 13.2044L24.4746 13.2093C24.4621 13.2156 24.4505 13.2222 24.4365 13.2298C24.423 13.2372 24.4071 13.2455 24.3896 13.2542L24.3818 13.2581L24.373 13.261C24.3383 13.273 24.3026 13.2813 24.2666 13.2884L24.2676 13.2894C24.266 13.2898 24.2642 13.289 24.2627 13.2894C24.2615 13.2896 24.26 13.2911 24.2588 13.2913L24.2578 13.2903C24.2193 13.2992 24.1801 13.3029 24.1406 13.3021L24.1416 13.303C24.1393 13.3032 24.137 13.302 24.1348 13.3021C24.1328 13.302 24.1308 13.3031 24.1289 13.303V13.3021C24.0906 13.3029 24.0529 13.2984 24.0156 13.2894V13.2913C23.9769 13.2841 23.9386 13.2738 23.9014 13.261L23.8936 13.2581L23.8857 13.2542C23.857 13.2398 23.8213 13.2226 23.791 13.2044L23.79 13.2034C23.7499 13.1785 23.7132 13.1476 23.6826 13.1116L23.6836 13.1097C23.627 13.0542 23.5811 12.9891 23.5518 12.9153V12.9163C23.5201 12.8406 23.5035 12.7591 23.502 12.6771V12.6741L23.5146 12.5482L23.5518 12.428C23.5812 12.3547 23.6262 12.2889 23.6826 12.2337L23.7324 12.1839C23.7504 12.1684 23.7698 12.1544 23.79 12.1419L23.791 12.1409L23.9023 12.0833L23.9531 12.0677C23.9697 12.0626 23.9848 12.0575 23.998 12.053L24.0088 12.0501L24.0195 12.0482C24.0587 12.0421 24.0982 12.0394 24.1377 12.0394L24.2549 12.0482ZM20.2334 9.5755C20.8119 9.56369 21.3884 9.65653 21.9355 9.84894L22.168 9.93683C22.7034 10.1567 23.1959 10.4718 23.6211 10.8665L23.6631 10.9056V10.9163C23.759 11.0253 23.8177 11.1625 23.8232 11.3089C23.828 11.4348 23.7954 11.5585 23.7305 11.6644L23.6543 11.764C23.5687 11.8562 23.4584 11.9206 23.3379 11.9495L23.2139 11.9661C23.0462 11.9725 22.8829 11.912 22.7598 11.7982L22.7588 11.7972C22.4483 11.5084 22.089 11.2779 21.6982 11.1155L21.5283 11.0501C21.0716 10.8871 20.5865 10.819 20.1025 10.8499L20.1016 10.8489C19.5332 10.9109 18.9907 11.1209 18.5283 11.4573V11.4583C18.4608 11.507 18.3837 11.5417 18.3027 11.5609C18.2623 11.5704 18.221 11.576 18.1797 11.5775L18.0557 11.5696C17.9316 11.5495 17.8174 11.4928 17.7266 11.4085L17.6436 11.3148C17.6192 11.281 17.5982 11.245 17.5811 11.2073L17.541 11.0901C17.5219 11.0093 17.519 10.9251 17.5322 10.8431L17.5635 10.723C17.5779 10.6842 17.5964 10.647 17.6182 10.6116L17.6934 10.512C17.7216 10.4817 17.7534 10.4543 17.7871 10.43C18.4316 9.96128 19.1888 9.67124 19.9814 9.5882L19.9854 9.58722L20.2334 9.5755Z" fill="currentColor" stroke="currentColor" stroke-width="0.266667"/>
</svg>
