<svg viewBox="0 0 16 16" fill="none" xmlns="http://www.w3.org/2000/svg">
<path d="M8.00017 1.33301C6.68162 1.33301 5.39269 1.724 4.29636 2.45654C3.20004 3.18909 2.34555 4.23028 1.84097 5.44845C1.33638 6.66663 1.20436 8.00707 1.4616 9.30028C1.71883 10.5935 2.35377 11.7814 3.28612 12.7137C4.21847 13.6461 5.40636 14.281 6.69956 14.5382C7.99277 14.7955 9.33322 14.6635 10.5514 14.1589C11.7696 13.6543 12.8108 12.7998 13.5433 11.7035C14.2758 10.6071 14.6668 9.31822 14.6668 7.99967C14.6649 6.23217 13.9619 4.53762 12.712 3.2878C11.4622 2.03798 9.76767 1.33497 8.00017 1.33301ZM8.00017 13.333C6.94533 13.333 5.91419 13.0202 5.03712 12.4342C4.16006 11.8481 3.47648 11.0152 3.07281 10.0407C2.66914 9.06611 2.56352 7.99376 2.76931 6.95919C2.9751 5.92463 3.48305 4.97432 4.22893 4.22844C4.97481 3.48256 5.92512 2.97461 6.95968 2.76882C7.99425 2.56303 9.06661 2.66865 10.0411 3.07232C11.0157 3.47598 11.8486 4.15957 12.4347 5.03663C13.0207 5.91369 13.3335 6.94484 13.3335 7.99967C13.3319 9.41366 12.7695 10.7693 11.7696 11.7691C10.7698 12.769 9.41416 13.3314 8.00017 13.333ZM9.39893 6.4222L8.66683 6.84505V4.66634C8.66683 4.48953 8.59659 4.31996 8.47157 4.19494C8.34655 4.06991 8.17698 3.99967 8.00017 3.99967C7.82336 3.99967 7.65379 4.06991 7.52876 4.19494C7.40374 4.31996 7.3335 4.48953 7.3335 4.66634V7.99967C7.33353 8.11669 7.36435 8.23164 7.42286 8.33297C7.48138 8.4343 7.56553 8.51846 7.66686 8.57697C7.7682 8.63549 7.88314 8.66631 8.00016 8.66634C8.11717 8.66637 8.23214 8.63561 8.3335 8.57715L10.0656 7.57715C10.1415 7.5334 10.208 7.47513 10.2613 7.40566C10.3147 7.3362 10.3538 7.2569 10.3765 7.1723C10.3992 7.0877 10.4051 6.99946 10.3936 6.91262C10.3822 6.82577 10.3538 6.74203 10.31 6.66617C10.2662 6.59031 10.2079 6.52382 10.1384 6.4705C10.0689 6.41718 9.98963 6.37808 9.90502 6.35542C9.82041 6.33277 9.73217 6.327 9.64533 6.33846C9.55849 6.34992 9.47476 6.37837 9.39893 6.4222Z" fill="currentColor" />
</svg>
