<svg width="34" height="34" viewBox="0 0 34 34" fill="none" xmlns="http://www.w3.org/2000/svg">
<path d="M12.5538 32.9394C12.3461 32.9394 12.1355 32.891 11.9376 32.791C11.3593 32.4988 11.0724 31.8574 11.2401 31.2312L14.2704 19.9216L9.87965 18.7451C9.28698 18.5863 8.83721 18.1609 8.64556 17.5781C8.45391 16.9951 8.56361 16.3858 8.94651 15.9063L20.3926 1.57259C20.7972 1.06604 21.4838 0.916494 22.0623 1.20881C22.641 1.5012 22.9279 2.14269 22.76 2.7689L19.7297 14.0783L24.1205 15.2549C24.7132 15.4137 25.163 15.8391 25.3546 16.422C25.5462 17.0049 25.4364 17.6143 25.0535 18.0938L13.6075 32.4274C13.3413 32.7607 12.953 32.9395 12.5537 32.9395L12.5538 32.9394ZM10.7004 16.9025L14.9857 18.0507C15.9367 18.3055 16.5031 19.2865 16.2482 20.2375L13.9535 28.8013L23.2998 17.0972L19.0145 15.949C18.0635 15.6941 17.4971 14.7131 17.7519 13.7622L20.0466 5.19844L10.7004 16.9025V16.9025ZM21.9494 2.81571L21.9484 2.81697C21.9487 2.81658 21.949 2.81618 21.9493 2.81578L21.9494 2.81571Z" fill="#1E0A52"/>
</svg>
