<svg viewBox="0 0 32 32" fill="none" xmlns="http://www.w3.org/2000/svg">
<path d="M29 17H22V14C22 13.4473 21.5527 13 21 13H11C10.4473 13 10 13.4473 10 14V17H3C2.44727 17 2 17.4473 2 18V29C2 29.5527 2.44727 30 3 30H29C29.5527 30 30 29.5527 30 29V18C30 17.4473 29.5527 17 29 17ZM4 19H10V28H4V19ZM15 28V25H17V28H15ZM18 23H14C13.4473 23 13 23.4473 13 24V28H12V15H20V28H19V24C19 23.4473 18.5527 23 18 23ZM28 28H22V19H28V28Z" fill="currentColor"/>
<path d="M19 17C19 16.4473 18.5527 16 18 16H14C13.4473 16 13 16.4473 13 17V20C13 20.5527 13.4473 21 14 21H18C18.5527 21 19 20.5527 19 20V17ZM17 19H15V18H17V19ZM6 22H8C8.55273 22 9 21.5527 9 21C9 20.4473 8.55273 20 8 20H6C5.44727 20 5 20.4473 5 21C5 21.5527 5.44727 22 6 22ZM8 23H6C5.44727 23 5 23.4473 5 24C5 24.5527 5.44727 25 6 25H8C8.55273 25 9 24.5527 9 24C9 23.4473 8.55273 23 8 23ZM24 22H26C26.5527 22 27 21.5527 27 21C27 20.4473 26.5527 20 26 20H24C23.4473 20 23 20.4473 23 21C23 21.5527 23.4473 22 24 22ZM24 25H26C26.5527 25 27 24.5527 27 24C27 23.4473 26.5527 23 26 23H24C23.4473 23 23 23.4473 23 24C23 24.5527 23.4473 25 24 25ZM26 7.81567V9H19C18.4473 9 18 9.44727 18 10V12H20V11H27C27.5527 11 28 10.5527 28 10V7.81573C29.1615 7.40161 30 6.30194 30 5C30 3.3457 28.6543 2 27 2C25.3457 2 24 3.3457 24 5C24 6.30194 24.8385 7.40155 26 7.81567ZM27 4C27.5518 4 28 4.44824 28 5C28 5.55176 27.5518 6 27 6C26.4482 6 26 5.55176 26 5C26 4.44824 26.4482 4 27 4ZM15 7.81567V12H17V7.81573C18.1615 7.40161 19 6.30194 19 5C19 3.3457 17.6543 2 16 2C14.3457 2 13 3.3457 13 5C13 6.30194 13.8385 7.40155 15 7.81567ZM16 4C16.5518 4 17 4.44824 17 5C17 5.55176 16.5518 6 16 6C15.4482 6 15 5.55176 15 5C15 4.44824 15.4482 4 16 4ZM4 7.81567V10C4 10.5527 4.44727 11 5 11H12V12H14V10C14 9.44727 13.5527 9 13 9H6V7.81573C7.1615 7.40161 8 6.30194 8 5C8 3.3457 6.6543 2 5 2C3.3457 2 2 3.3457 2 5C2 6.30194 2.8385 7.40155 4 7.81567ZM5 4C5.55176 4 6 4.44824 6 5C6 5.55176 5.55176 6 5 6C4.44824 6 4 5.55176 4 5C4 4.44824 4.44824 4 5 4Z" fill="currentColor"/>
</svg>
