<svg width="22" height="22" viewBox="0 0 22 22" fill="none" xmlns="http://www.w3.org/2000/svg">
<path d="M16.5104 2.18359C17.4211 2.18359 18.1998 2.50694 18.8465 3.15362C19.4931 3.8003 19.8165 4.579 19.8165 5.48972V16.5101C19.8165 17.4208 19.4931 18.1995 18.8465 18.8462C18.1998 19.4929 17.4211 19.8162 16.5104 19.8162H14.3522V12.9859H16.6366L16.981 10.3226H14.3522V8.62364C14.3522 8.19507 14.4421 7.87364 14.622 7.65936C14.8018 7.44507 15.1519 7.33793 15.6724 7.33793L17.0729 7.32645V4.95018C16.5907 4.8813 15.9096 4.84686 15.0295 4.84686C13.9887 4.84686 13.1564 5.15298 12.5327 5.76523C11.909 6.37747 11.5971 7.24227 11.5971 8.35961V10.3226H9.30118V12.9859H11.5971V19.8162H5.48996C4.57925 19.8162 3.80055 19.4929 3.15386 18.8462C2.50718 18.1995 2.18384 17.4208 2.18384 16.5101V5.48972C2.18384 4.579 2.50718 3.8003 3.15386 3.15362C3.80055 2.50694 4.57925 2.18359 5.48996 2.18359H16.5104Z" fill="white"/>
</svg>
