<svg width="32" height="32" viewBox="0 0 32 32" fill="none" xmlns="http://www.w3.org/2000/svg">
<path fill-rule="evenodd" clip-rule="evenodd" d="M2.49794 1.98835C2.36568 1.99045 2.23964 2.04488 2.14743 2.13972C2.05521 2.23456 2.00434 2.36208 2.00594 2.49435V21.4733C2.00517 21.4893 2.00517 21.5054 2.00594 21.5213V29.3633C1.98189 29.4514 1.98241 29.5444 2.00745 29.6322C2.03248 29.7199 2.08107 29.7992 2.14794 29.8613C2.21 29.9254 2.28806 29.9717 2.37405 29.9955C2.46003 30.0192 2.5508 30.0195 2.63694 29.9963H29.5059C29.6385 29.9963 29.7657 29.9437 29.8595 29.8499C29.9533 29.7561 30.0059 29.629 30.0059 29.4963C30.0059 29.3637 29.9533 29.2366 29.8595 29.1428C29.7657 29.049 29.6385 28.9963 29.5059 28.9963H26.0059V15.4963C26.0059 15.3637 25.9533 15.2366 25.8595 15.1428C25.7657 15.049 25.6385 14.9963 25.5059 14.9963H22.5059C22.3733 14.9963 22.2462 15.049 22.1524 15.1428C22.0586 15.2366 22.0059 15.3637 22.0059 15.4963V28.9963H20.0059V19.4963C20.0059 19.3637 19.9533 19.2366 19.8595 19.1428C19.7657 19.049 19.6385 18.9963 19.5059 18.9963H16.5059C16.3733 18.9963 16.2462 19.049 16.1524 19.1428C16.0586 19.2366 16.0059 19.3637 16.0059 19.4963V28.9963H14.0059V17.4963C14.0059 17.3637 13.9533 17.2366 13.8595 17.1428C13.7657 17.049 13.6385 16.9963 13.5059 16.9963H10.5059C10.3733 16.9963 10.2462 17.049 10.1524 17.1428C10.0586 17.2366 10.0059 17.3637 10.0059 17.4963V28.9963H8.00594V22.4963C8.00594 22.3637 7.95326 22.2366 7.85949 22.1428C7.76573 22.049 7.63855 21.9963 7.50594 21.9963H4.50594C4.37333 21.9963 4.24616 22.049 4.15239 22.1428C4.05862 22.2366 4.00594 22.3637 4.00594 22.4963V28.9963H3.00594V21.7213L12.1739 13.6453L16.3479 17.0903C16.4417 17.167 16.5601 17.207 16.6811 17.2029C16.8021 17.1989 16.9175 17.1511 17.0059 17.0683L25.0059 9.64135V10.4963C25.0059 10.629 25.0586 10.7561 25.1524 10.8499C25.2462 10.9437 25.3733 10.9963 25.5059 10.9963C25.6385 10.9963 25.7657 10.9437 25.8595 10.8499C25.9533 10.7561 26.0059 10.629 26.0059 10.4963V8.56035C26.0158 8.48981 26.0104 8.41798 25.9902 8.34968C25.9701 8.28138 25.9355 8.21817 25.8889 8.1643C25.8424 8.11043 25.7848 8.06713 25.7201 8.0373C25.6555 8.00747 25.5852 7.9918 25.5139 7.99135V7.99335C25.4915 7.99318 25.4692 7.99451 25.4469 7.99735H23.5059C23.3733 7.99735 23.2462 8.05002 23.1524 8.14379C23.0586 8.23756 23.0059 8.36474 23.0059 8.49735C23.0059 8.62995 23.0586 8.75713 23.1524 8.8509C23.2462 8.94467 23.3733 8.99735 23.5059 8.99735H24.2319L16.6459 16.0423L12.4819 12.6023C12.3901 12.5271 12.2745 12.4869 12.1557 12.4891C12.037 12.4913 11.9229 12.5357 11.8339 12.6143L3.00594 20.3903V2.49435C3.00675 2.4275 2.99415 2.36118 2.96888 2.29929C2.94362 2.2374 2.90619 2.18121 2.85883 2.13403C2.81147 2.08686 2.75513 2.04966 2.69314 2.02463C2.63116 1.99961 2.56478 1.98727 2.49794 1.98835ZM23.0059 15.9963H25.0059V28.9963H23.0059V15.9963ZM11.0059 17.9963H13.0059V28.9963H11.0059V17.9963ZM17.0059 19.9963H19.0059V28.9963H17.0059V19.9963ZM5.00594 22.9963H7.00594V28.9963H5.00594V22.9963Z" fill="#1E0A52"/>
</svg>
