<svg viewBox="0 0 32 32" fill="none" xmlns="http://www.w3.org/2000/svg">
<g clip-path="url(#clip0_539_715)">
<mask id="path-1-outside-1_539_715" maskUnits="userSpaceOnUse" x="0" y="0" width="32" height="32" fill="black">
<rect fill="currentColor" width="32" height="32"/>
<path d="M15.9933 1.00006C15.9305 1.00104 15.8685 1.01413 15.8108 1.0386C15.7531 1.06307 15.7009 1.09842 15.6572 1.14265C15.6135 1.18688 15.5791 1.23912 15.556 1.29637C15.5328 1.35363 15.5215 1.41479 15.5225 1.47635V4.11095C15.5225 4.23528 15.5729 4.35452 15.6626 4.44244C15.7524 4.53035 15.8741 4.57974 16.001 4.57974H17.7935C18.1218 4.57974 18.3103 4.68381 18.4462 4.83476C18.5821 4.98478 18.6606 5.2023 18.6606 5.42825C18.6606 5.65327 18.5821 5.87267 18.4462 6.02268C18.3094 6.17269 18.1218 6.2777 17.7935 6.2777H14.2085C13.641 6.2777 13.1538 6.50178 12.8418 6.84494C12.5421 7.1826 12.3793 7.61632 12.3844 8.06379C12.3844 8.49695 12.5299 8.93668 12.8418 9.28077C13.1538 9.62486 13.641 9.84988 14.2085 9.84988H15.5225V12.432H11.0685C10.1024 11.8637 8.99876 11.559 7.87199 11.5497C7.87135 11.5497 7.87072 11.5497 7.87008 11.5497C4.38075 11.5497 1.54316 14.3315 1.54316 17.7499C1.54316 17.7506 1.54316 17.7512 1.54316 17.7518C1.54603 18.7391 1.85228 19.6889 2.31452 20.5627L1.12589 26.1038C0.570815 28.1786 1.90109 30.4673 4.13575 30.9004C6.22207 31.373 8.29308 30.111 8.85869 28.0052L10.055 24.328C10.5076 24.5605 10.9527 24.8315 11.4704 24.8315C12.281 24.8305 13.0323 24.4883 13.618 23.9492H17.782C18.3677 24.4883 19.118 24.8305 19.9286 24.8315C19.9283 24.8315 19.929 24.8315 19.9286 24.8315C20.6541 24.8305 21.3144 24.5315 21.8724 24.0955L23.1471 28.0249L23.1414 28.0033C23.706 30.1119 25.7809 31.3749 27.8691 30.9004C30.099 30.4673 31.4254 28.1852 30.8761 26.1132L29.6741 20.5017C30.1114 19.6429 30.3976 18.7128 30.3976 17.7509C30.3953 16.1072 29.7278 14.5314 28.5414 13.3691C27.355 12.2068 25.7466 11.5529 24.0688 11.5507C22.94 11.559 21.8342 11.8637 20.8665 12.4329H16.4795V9.38203C16.4795 9.2577 16.4291 9.13846 16.3394 9.05055C16.2496 8.96263 16.1279 8.91324 16.001 8.91324H14.2085C13.8802 8.91324 13.6917 8.81011 13.5558 8.65916C13.4139 8.49223 13.3378 8.28098 13.3414 8.06379C13.3414 7.83877 13.4199 7.62125 13.5558 7.4703C13.6926 7.32029 13.8802 7.21622 14.2085 7.21622H17.7935C18.361 7.21622 18.8482 6.9912 19.1602 6.64617C19.4721 6.30302 19.6176 5.86235 19.6176 5.42919C19.6176 4.99509 19.4721 4.55443 19.1602 4.21034C18.8482 3.86718 18.361 3.6431 17.7935 3.6431H16.4795V1.47635C16.4805 1.41352 16.4687 1.35114 16.4446 1.29289C16.4205 1.23465 16.3848 1.18174 16.3394 1.13731C16.2941 1.09287 16.2401 1.05783 16.1806 1.03425C16.1212 1.01067 16.0575 0.999047 15.9933 1.00006ZM7.87008 12.4873C8.87883 12.4892 9.86662 12.7696 10.7201 13.2964C10.7968 13.3442 10.8857 13.3695 10.9766 13.3696H20.9584C21.0483 13.369 21.1362 13.3437 21.212 13.2964C22.2197 12.6729 23.4107 12.3957 24.597 12.5087C25.7833 12.6217 26.8974 13.1184 27.7636 13.9205C28.6298 14.7226 29.1988 15.7843 29.3808 16.9383C29.5628 18.0923 29.3474 19.2728 28.7687 20.2936C28.7139 20.392 28.6969 20.5065 28.7209 20.6161L29.943 26.3204C29.9447 26.3276 29.9467 26.3348 29.9487 26.3419C30.365 27.8936 29.3487 29.6647 27.6777 29.9844C27.6713 29.9855 27.6649 29.9868 27.6586 29.9882C26.0603 30.3557 24.5128 29.4313 24.0668 27.7652C24.0645 27.757 24.062 27.7488 24.0592 27.7408L22.6313 23.3389C22.6007 23.2437 22.54 23.1605 22.4579 23.1015C22.3758 23.0425 22.2766 23.0107 22.1748 23.0107H21.9394C21.8718 23.0109 21.8051 23.0252 21.7436 23.0525C21.682 23.0798 21.6271 23.1196 21.5824 23.1692C21.3744 23.397 21.1197 23.5793 20.8349 23.7042C20.5501 23.8291 20.2416 23.8937 19.9296 23.8939C19.6181 23.8934 19.3101 23.8286 19.0259 23.7037C18.7416 23.5788 18.4873 23.3967 18.2797 23.1692C18.2349 23.1197 18.1799 23.0801 18.1184 23.053C18.0569 23.0258 17.9902 23.0118 17.9227 23.0116H13.4792C13.4118 23.0118 13.3451 23.0258 13.2835 23.053C13.222 23.0801 13.1671 23.1197 13.1223 23.1692C12.7386 23.5889 12.2036 23.8464 11.63 23.8873C11.0564 23.9282 10.489 23.7494 10.0473 23.3885C9.98721 23.3392 9.91565 23.3051 9.83894 23.2892C9.76222 23.2734 9.6827 23.2762 9.60736 23.2975C9.53203 23.3188 9.46319 23.3579 9.4069 23.4114C9.35061 23.4649 9.3086 23.5311 9.28457 23.6042L7.9409 27.7408C7.93876 27.7489 7.93685 27.757 7.93515 27.7652C7.48918 29.4313 5.94071 30.3557 4.34247 29.9882C4.33707 29.9868 4.33164 29.9856 4.3262 29.9844C2.65522 29.6647 1.63503 27.8936 2.05134 26.3419C2.05343 26.3348 2.05534 26.3276 2.05708 26.3204L3.26581 20.6818C3.29027 20.5696 3.27188 20.4525 3.21413 20.3527C2.74954 19.5605 2.50349 18.6635 2.50019 17.7499V17.7481C2.49943 17.0571 2.63778 16.3727 2.90731 15.7342C3.17685 15.0957 3.57228 14.5155 4.07097 14.0268C4.56966 13.5382 5.16182 13.1507 5.81355 12.8865C6.46529 12.6223 7.1638 12.4867 7.86912 12.4873H7.87008ZM24.0688 13.3124C23.3089 13.3124 22.6868 13.9302 22.6868 14.6737C22.6868 15.4172 23.3089 16.0332 24.0688 16.0332C24.8277 16.0332 25.4497 15.4172 25.4497 14.6737C25.4497 13.9302 24.8277 13.3133 24.0688 13.3133V13.3124ZM7.86242 14.1937C7.79958 14.1947 7.73755 14.2078 7.67987 14.2322C7.6222 14.2567 7.57001 14.2921 7.52628 14.3363C7.48256 14.3805 7.44816 14.4327 7.42504 14.49C7.40192 14.5473 7.39055 14.6084 7.39156 14.67V16.4186H5.6268C5.49989 16.4186 5.37818 16.468 5.28844 16.5559C5.1987 16.6438 5.14829 16.763 5.14829 16.8874C5.14829 17.0117 5.1987 17.1309 5.28844 17.2188C5.37818 17.3068 5.49989 17.3562 5.6268 17.3562H7.39156V19.1057C7.39156 19.23 7.44198 19.3492 7.53172 19.4372C7.62145 19.5251 7.74317 19.5745 7.87008 19.5745C7.99699 19.5745 8.1187 19.5251 8.20844 19.4372C8.29818 19.3492 8.34859 19.23 8.34859 19.1057V17.3562H10.1134C10.2403 17.3562 10.362 17.3068 10.4517 17.2188C10.5415 17.1309 10.5919 17.0117 10.5919 16.8874C10.5919 16.763 10.5415 16.6438 10.4517 16.5559C10.362 16.468 10.2403 16.4186 10.1134 16.4186H8.34859V14.67C8.34963 14.6072 8.33776 14.5448 8.31369 14.4865C8.28963 14.4283 8.25385 14.3754 8.2085 14.3309C8.16315 14.2865 8.10914 14.2515 8.04969 14.2279C7.99023 14.2043 7.92655 14.1927 7.86242 14.1937ZM24.0688 14.2499C24.1253 14.2495 24.1813 14.2603 24.2335 14.2816C24.2857 14.3028 24.333 14.3342 24.3725 14.3737C24.4121 14.4133 24.4431 14.4602 24.4638 14.5117C24.4844 14.5633 24.4943 14.6184 24.4927 14.6737C24.4927 14.9147 24.3061 15.0956 24.0688 15.0956C24.0123 15.0963 23.9563 15.0858 23.904 15.0647C23.8518 15.0437 23.8044 15.0125 23.7648 14.9732C23.7251 14.9338 23.694 14.887 23.6732 14.8355C23.6524 14.7841 23.6424 14.729 23.6438 14.6737C23.6424 14.6184 23.6524 14.5633 23.6732 14.5118C23.6939 14.4603 23.7251 14.4134 23.7647 14.374C23.8044 14.3345 23.8517 14.3033 23.904 14.2821C23.9562 14.261 24.0122 14.2504 24.0688 14.2509V14.2499ZM21.8216 15.5344C21.0627 15.5344 20.4407 16.1514 20.4407 16.8949C20.4407 17.6384 21.0627 18.2544 21.8216 18.2544C22.5806 18.2544 23.2026 17.6384 23.2026 16.8949C23.2026 16.1514 22.5806 15.5344 21.8216 15.5344ZM26.3149 15.5344C25.556 15.5344 24.9358 16.1514 24.9358 16.8949C24.9358 17.6384 25.556 18.2544 26.3149 18.2544C27.0748 18.2544 27.6969 17.6384 27.6969 16.8949C27.6969 16.1514 27.0748 15.5344 26.3149 15.5344ZM21.8216 16.472C21.8781 16.4716 21.934 16.4823 21.9862 16.5035C22.0383 16.5248 22.0855 16.556 22.1251 16.5955C22.1646 16.6349 22.1957 16.6817 22.2164 16.7332C22.2371 16.7846 22.247 16.8396 22.2456 16.8949C22.2456 17.1358 22.0599 17.3168 21.8216 17.3168C21.7653 17.3173 21.7093 17.3067 21.6572 17.2856C21.6051 17.2645 21.5579 17.2333 21.5183 17.1939C21.4787 17.1546 21.4477 17.1078 21.4269 17.0564C21.4062 17.005 21.3963 16.9501 21.3977 16.8949C21.3963 16.8396 21.4062 16.7846 21.4269 16.7332C21.4476 16.6817 21.4787 16.6349 21.5182 16.5955C21.5578 16.556 21.605 16.5248 21.6571 16.5035C21.7093 16.4823 21.7652 16.4716 21.8216 16.472ZM26.3149 16.472C26.3714 16.4715 26.4275 16.4821 26.4797 16.5033C26.5319 16.5244 26.5793 16.5557 26.6189 16.5951C26.6586 16.6346 26.6897 16.6814 26.7105 16.7329C26.7313 16.7844 26.7412 16.8395 26.7398 16.8949C26.7398 17.1358 26.5532 17.3168 26.3149 17.3168C26.2586 17.3173 26.2028 17.3067 26.1507 17.2856C26.0987 17.2644 26.0516 17.2332 26.0122 17.1938C25.9728 17.1544 25.9419 17.1077 25.9214 17.0563C25.9009 17.0049 25.8912 16.95 25.8929 16.8949C25.8929 16.6539 26.0776 16.472 26.3149 16.472ZM24.0688 17.7565C23.3089 17.7565 22.6868 18.3725 22.6868 19.116C22.6868 19.8595 23.3089 20.4755 24.0688 20.4755C24.8277 20.4755 25.4497 19.8595 25.4497 19.116C25.4497 18.3725 24.8277 17.7565 24.0688 17.7565ZM24.0688 18.6941C24.1251 18.6937 24.181 18.7044 24.233 18.7255C24.2851 18.7467 24.3323 18.7778 24.3718 18.8172C24.4114 18.8565 24.4424 18.9033 24.4632 18.9546C24.484 19.0059 24.494 19.0608 24.4927 19.116C24.4927 19.3569 24.3061 19.5379 24.0688 19.5379C24.0123 19.5385 23.9563 19.528 23.904 19.507C23.8518 19.4859 23.8044 19.4548 23.7648 19.4154C23.7251 19.376 23.694 19.3292 23.6732 19.2778C23.6524 19.2263 23.6424 19.1713 23.6438 19.116C23.6425 19.0607 23.6526 19.0057 23.6734 18.9544C23.6943 18.903 23.7254 18.8562 23.7651 18.8169C23.8047 18.7775 23.852 18.7463 23.9042 18.7253C23.9564 18.7042 24.0123 18.6936 24.0688 18.6941ZM11.4704 19.4845C10.9861 19.4869 10.5223 19.6766 10.18 20.0124C9.83768 20.3481 9.64451 20.8026 9.6425 21.2771C9.6425 22.2616 10.4655 23.0679 11.4704 23.0679C12.4743 23.0679 13.2983 22.2616 13.2983 21.2771C13.2963 20.8026 13.1032 20.3481 12.7609 20.0124C12.4185 19.6766 11.9548 19.4869 11.4704 19.4845ZM20.0196 19.4845C19.5352 19.4869 19.0714 19.6766 18.7291 20.0124C18.3868 20.3481 18.1936 20.8026 18.1916 21.2771C18.1916 22.2616 19.0156 23.0679 20.0196 23.0679C21.0244 23.0679 21.8475 22.2616 21.8475 21.2771C21.8455 20.8026 21.6523 20.3481 21.31 20.0124C20.9677 19.6766 20.5039 19.4869 20.0196 19.4845ZM11.4704 20.422C11.9566 20.422 12.3413 20.7999 12.3413 21.2771C12.3413 21.7543 11.9566 22.1303 11.4704 22.1303C11.3558 22.1313 11.2421 22.1099 11.1359 22.0674C11.0298 22.0249 10.9334 21.9621 10.8523 21.8826C10.7713 21.8032 10.7071 21.7088 10.6637 21.6048C10.6203 21.5008 10.5985 21.3894 10.5995 21.2771C10.5995 20.7999 10.9823 20.422 11.4704 20.422ZM20.0196 20.422C20.5067 20.422 20.8905 20.7999 20.8905 21.2771C20.8905 21.7543 20.5067 22.1303 20.0196 22.1303C19.9049 22.1313 19.7912 22.1099 19.6851 22.0674C19.579 22.0249 19.4825 21.9621 19.4015 21.8826C19.3204 21.8032 19.2563 21.7088 19.2129 21.6048C19.1695 21.5008 19.1476 21.3894 19.1487 21.2771C19.1487 20.7999 19.5324 20.422 20.0196 20.422Z"/>
</mask>
<path d="M15.9933 1.00006C15.9305 1.00104 15.8685 1.01413 15.8108 1.0386C15.7531 1.06307 15.7009 1.09842 15.6572 1.14265C15.6135 1.18688 15.5791 1.23912 15.556 1.29637C15.5328 1.35363 15.5215 1.41479 15.5225 1.47635V4.11095C15.5225 4.23528 15.5729 4.35452 15.6626 4.44244C15.7524 4.53035 15.8741 4.57974 16.001 4.57974H17.7935C18.1218 4.57974 18.3103 4.68381 18.4462 4.83476C18.5821 4.98478 18.6606 5.2023 18.6606 5.42825C18.6606 5.65327 18.5821 5.87267 18.4462 6.02268C18.3094 6.17269 18.1218 6.2777 17.7935 6.2777H14.2085C13.641 6.2777 13.1538 6.50178 12.8418 6.84494C12.5421 7.1826 12.3793 7.61632 12.3844 8.06379C12.3844 8.49695 12.5299 8.93668 12.8418 9.28077C13.1538 9.62486 13.641 9.84988 14.2085 9.84988H15.5225V12.432H11.0685C10.1024 11.8637 8.99876 11.559 7.87199 11.5497C7.87135 11.5497 7.87072 11.5497 7.87008 11.5497C4.38075 11.5497 1.54316 14.3315 1.54316 17.7499C1.54316 17.7506 1.54316 17.7512 1.54316 17.7518C1.54603 18.7391 1.85228 19.6889 2.31452 20.5627L1.12589 26.1038C0.570815 28.1786 1.90109 30.4673 4.13575 30.9004C6.22207 31.373 8.29308 30.111 8.85869 28.0052L10.055 24.328C10.5076 24.5605 10.9527 24.8315 11.4704 24.8315C12.281 24.8305 13.0323 24.4883 13.618 23.9492H17.782C18.3677 24.4883 19.118 24.8305 19.9286 24.8315C19.9283 24.8315 19.929 24.8315 19.9286 24.8315C20.6541 24.8305 21.3144 24.5315 21.8724 24.0955L23.1471 28.0249L23.1414 28.0033C23.706 30.1119 25.7809 31.3749 27.8691 30.9004C30.099 30.4673 31.4254 28.1852 30.8761 26.1132L29.6741 20.5017C30.1114 19.6429 30.3976 18.7128 30.3976 17.7509C30.3953 16.1072 29.7278 14.5314 28.5414 13.3691C27.355 12.2068 25.7466 11.5529 24.0688 11.5507C22.94 11.559 21.8342 11.8637 20.8665 12.4329H16.4795V9.38203C16.4795 9.2577 16.4291 9.13846 16.3394 9.05055C16.2496 8.96263 16.1279 8.91324 16.001 8.91324H14.2085C13.8802 8.91324 13.6917 8.81011 13.5558 8.65916C13.4139 8.49223 13.3378 8.28098 13.3414 8.06379C13.3414 7.83877 13.4199 7.62125 13.5558 7.4703C13.6926 7.32029 13.8802 7.21622 14.2085 7.21622H17.7935C18.361 7.21622 18.8482 6.9912 19.1602 6.64617C19.4721 6.30302 19.6176 5.86235 19.6176 5.42919C19.6176 4.99509 19.4721 4.55443 19.1602 4.21034C18.8482 3.86718 18.361 3.6431 17.7935 3.6431H16.4795V1.47635C16.4805 1.41352 16.4687 1.35114 16.4446 1.29289C16.4205 1.23465 16.3848 1.18174 16.3394 1.13731C16.2941 1.09287 16.2401 1.05783 16.1806 1.03425C16.1212 1.01067 16.0575 0.999047 15.9933 1.00006ZM7.87008 12.4873C8.87883 12.4892 9.86662 12.7696 10.7201 13.2964C10.7968 13.3442 10.8857 13.3695 10.9766 13.3696H20.9584C21.0483 13.369 21.1362 13.3437 21.212 13.2964C22.2197 12.6729 23.4107 12.3957 24.597 12.5087C25.7833 12.6217 26.8974 13.1184 27.7636 13.9205C28.6298 14.7226 29.1988 15.7843 29.3808 16.9383C29.5628 18.0923 29.3474 19.2728 28.7687 20.2936C28.7139 20.392 28.6969 20.5065 28.7209 20.6161L29.943 26.3204C29.9447 26.3276 29.9467 26.3348 29.9487 26.3419C30.365 27.8936 29.3487 29.6647 27.6777 29.9844C27.6713 29.9855 27.6649 29.9868 27.6586 29.9882C26.0603 30.3557 24.5128 29.4313 24.0668 27.7652C24.0645 27.757 24.062 27.7488 24.0592 27.7408L22.6313 23.3389C22.6007 23.2437 22.54 23.1605 22.4579 23.1015C22.3758 23.0425 22.2766 23.0107 22.1748 23.0107H21.9394C21.8718 23.0109 21.8051 23.0252 21.7436 23.0525C21.682 23.0798 21.6271 23.1196 21.5824 23.1692C21.3744 23.397 21.1197 23.5793 20.8349 23.7042C20.5501 23.8291 20.2416 23.8937 19.9296 23.8939C19.6181 23.8934 19.3101 23.8286 19.0259 23.7037C18.7416 23.5788 18.4873 23.3967 18.2797 23.1692C18.2349 23.1197 18.1799 23.0801 18.1184 23.053C18.0569 23.0258 17.9902 23.0118 17.9227 23.0116H13.4792C13.4118 23.0118 13.3451 23.0258 13.2835 23.053C13.222 23.0801 13.1671 23.1197 13.1223 23.1692C12.7386 23.5889 12.2036 23.8464 11.63 23.8873C11.0564 23.9282 10.489 23.7494 10.0473 23.3885C9.98721 23.3392 9.91565 23.3051 9.83894 23.2892C9.76222 23.2734 9.6827 23.2762 9.60736 23.2975C9.53203 23.3188 9.46319 23.3579 9.4069 23.4114C9.35061 23.4649 9.3086 23.5311 9.28457 23.6042L7.9409 27.7408C7.93876 27.7489 7.93685 27.757 7.93515 27.7652C7.48918 29.4313 5.94071 30.3557 4.34247 29.9882C4.33707 29.9868 4.33164 29.9856 4.3262 29.9844C2.65522 29.6647 1.63503 27.8936 2.05134 26.3419C2.05343 26.3348 2.05534 26.3276 2.05708 26.3204L3.26581 20.6818C3.29027 20.5696 3.27188 20.4525 3.21413 20.3527C2.74954 19.5605 2.50349 18.6635 2.50019 17.7499V17.7481C2.49943 17.0571 2.63778 16.3727 2.90731 15.7342C3.17685 15.0957 3.57228 14.5155 4.07097 14.0268C4.56966 13.5382 5.16182 13.1507 5.81355 12.8865C6.46529 12.6223 7.1638 12.4867 7.86912 12.4873H7.87008ZM24.0688 13.3124C23.3089 13.3124 22.6868 13.9302 22.6868 14.6737C22.6868 15.4172 23.3089 16.0332 24.0688 16.0332C24.8277 16.0332 25.4497 15.4172 25.4497 14.6737C25.4497 13.9302 24.8277 13.3133 24.0688 13.3133V13.3124ZM7.86242 14.1937C7.79958 14.1947 7.73755 14.2078 7.67987 14.2322C7.6222 14.2567 7.57001 14.2921 7.52628 14.3363C7.48256 14.3805 7.44816 14.4327 7.42504 14.49C7.40192 14.5473 7.39055 14.6084 7.39156 14.67V16.4186H5.6268C5.49989 16.4186 5.37818 16.468 5.28844 16.5559C5.1987 16.6438 5.14829 16.763 5.14829 16.8874C5.14829 17.0117 5.1987 17.1309 5.28844 17.2188C5.37818 17.3068 5.49989 17.3562 5.6268 17.3562H7.39156V19.1057C7.39156 19.23 7.44198 19.3492 7.53172 19.4372C7.62145 19.5251 7.74317 19.5745 7.87008 19.5745C7.99699 19.5745 8.1187 19.5251 8.20844 19.4372C8.29818 19.3492 8.34859 19.23 8.34859 19.1057V17.3562H10.1134C10.2403 17.3562 10.362 17.3068 10.4517 17.2188C10.5415 17.1309 10.5919 17.0117 10.5919 16.8874C10.5919 16.763 10.5415 16.6438 10.4517 16.5559C10.362 16.468 10.2403 16.4186 10.1134 16.4186H8.34859V14.67C8.34963 14.6072 8.33776 14.5448 8.31369 14.4865C8.28963 14.4283 8.25385 14.3754 8.2085 14.3309C8.16315 14.2865 8.10914 14.2515 8.04969 14.2279C7.99023 14.2043 7.92655 14.1927 7.86242 14.1937ZM24.0688 14.2499C24.1253 14.2495 24.1813 14.2603 24.2335 14.2816C24.2857 14.3028 24.333 14.3342 24.3725 14.3737C24.4121 14.4133 24.4431 14.4602 24.4638 14.5117C24.4844 14.5633 24.4943 14.6184 24.4927 14.6737C24.4927 14.9147 24.3061 15.0956 24.0688 15.0956C24.0123 15.0963 23.9563 15.0858 23.904 15.0647C23.8518 15.0437 23.8044 15.0125 23.7648 14.9732C23.7251 14.9338 23.694 14.887 23.6732 14.8355C23.6524 14.7841 23.6424 14.729 23.6438 14.6737C23.6424 14.6184 23.6524 14.5633 23.6732 14.5118C23.6939 14.4603 23.7251 14.4134 23.7647 14.374C23.8044 14.3345 23.8517 14.3033 23.904 14.2821C23.9562 14.261 24.0122 14.2504 24.0688 14.2509V14.2499ZM21.8216 15.5344C21.0627 15.5344 20.4407 16.1514 20.4407 16.8949C20.4407 17.6384 21.0627 18.2544 21.8216 18.2544C22.5806 18.2544 23.2026 17.6384 23.2026 16.8949C23.2026 16.1514 22.5806 15.5344 21.8216 15.5344ZM26.3149 15.5344C25.556 15.5344 24.9358 16.1514 24.9358 16.8949C24.9358 17.6384 25.556 18.2544 26.3149 18.2544C27.0748 18.2544 27.6969 17.6384 27.6969 16.8949C27.6969 16.1514 27.0748 15.5344 26.3149 15.5344ZM21.8216 16.472C21.8781 16.4716 21.934 16.4823 21.9862 16.5035C22.0383 16.5248 22.0855 16.556 22.1251 16.5955C22.1646 16.6349 22.1957 16.6817 22.2164 16.7332C22.2371 16.7846 22.247 16.8396 22.2456 16.8949C22.2456 17.1358 22.0599 17.3168 21.8216 17.3168C21.7653 17.3173 21.7093 17.3067 21.6572 17.2856C21.6051 17.2645 21.5579 17.2333 21.5183 17.1939C21.4787 17.1546 21.4477 17.1078 21.4269 17.0564C21.4062 17.005 21.3963 16.9501 21.3977 16.8949C21.3963 16.8396 21.4062 16.7846 21.4269 16.7332C21.4476 16.6817 21.4787 16.6349 21.5182 16.5955C21.5578 16.556 21.605 16.5248 21.6571 16.5035C21.7093 16.4823 21.7652 16.4716 21.8216 16.472ZM26.3149 16.472C26.3714 16.4715 26.4275 16.4821 26.4797 16.5033C26.5319 16.5244 26.5793 16.5557 26.6189 16.5951C26.6586 16.6346 26.6897 16.6814 26.7105 16.7329C26.7313 16.7844 26.7412 16.8395 26.7398 16.8949C26.7398 17.1358 26.5532 17.3168 26.3149 17.3168C26.2586 17.3173 26.2028 17.3067 26.1507 17.2856C26.0987 17.2644 26.0516 17.2332 26.0122 17.1938C25.9728 17.1544 25.9419 17.1077 25.9214 17.0563C25.9009 17.0049 25.8912 16.95 25.8929 16.8949C25.8929 16.6539 26.0776 16.472 26.3149 16.472ZM24.0688 17.7565C23.3089 17.7565 22.6868 18.3725 22.6868 19.116C22.6868 19.8595 23.3089 20.4755 24.0688 20.4755C24.8277 20.4755 25.4497 19.8595 25.4497 19.116C25.4497 18.3725 24.8277 17.7565 24.0688 17.7565ZM24.0688 18.6941C24.1251 18.6937 24.181 18.7044 24.233 18.7255C24.2851 18.7467 24.3323 18.7778 24.3718 18.8172C24.4114 18.8565 24.4424 18.9033 24.4632 18.9546C24.484 19.0059 24.494 19.0608 24.4927 19.116C24.4927 19.3569 24.3061 19.5379 24.0688 19.5379C24.0123 19.5385 23.9563 19.528 23.904 19.507C23.8518 19.4859 23.8044 19.4548 23.7648 19.4154C23.7251 19.376 23.694 19.3292 23.6732 19.2778C23.6524 19.2263 23.6424 19.1713 23.6438 19.116C23.6425 19.0607 23.6526 19.0057 23.6734 18.9544C23.6943 18.903 23.7254 18.8562 23.7651 18.8169C23.8047 18.7775 23.852 18.7463 23.9042 18.7253C23.9564 18.7042 24.0123 18.6936 24.0688 18.6941ZM11.4704 19.4845C10.9861 19.4869 10.5223 19.6766 10.18 20.0124C9.83768 20.3481 9.64451 20.8026 9.6425 21.2771C9.6425 22.2616 10.4655 23.0679 11.4704 23.0679C12.4743 23.0679 13.2983 22.2616 13.2983 21.2771C13.2963 20.8026 13.1032 20.3481 12.7609 20.0124C12.4185 19.6766 11.9548 19.4869 11.4704 19.4845ZM20.0196 19.4845C19.5352 19.4869 19.0714 19.6766 18.7291 20.0124C18.3868 20.3481 18.1936 20.8026 18.1916 21.2771C18.1916 22.2616 19.0156 23.0679 20.0196 23.0679C21.0244 23.0679 21.8475 22.2616 21.8475 21.2771C21.8455 20.8026 21.6523 20.3481 21.31 20.0124C20.9677 19.6766 20.5039 19.4869 20.0196 19.4845ZM11.4704 20.422C11.9566 20.422 12.3413 20.7999 12.3413 21.2771C12.3413 21.7543 11.9566 22.1303 11.4704 22.1303C11.3558 22.1313 11.2421 22.1099 11.1359 22.0674C11.0298 22.0249 10.9334 21.9621 10.8523 21.8826C10.7713 21.8032 10.7071 21.7088 10.6637 21.6048C10.6203 21.5008 10.5985 21.3894 10.5995 21.2771C10.5995 20.7999 10.9823 20.422 11.4704 20.422ZM20.0196 20.422C20.5067 20.422 20.8905 20.7999 20.8905 21.2771C20.8905 21.7543 20.5067 22.1303 20.0196 22.1303C19.9049 22.1313 19.7912 22.1099 19.6851 22.0674C19.579 22.0249 19.4825 21.9621 19.4015 21.8826C19.3204 21.8032 19.2563 21.7088 19.2129 21.6048C19.1695 21.5008 19.1476 21.3894 19.1487 21.2771C19.1487 20.7999 19.5324 20.422 20.0196 20.422Z" fill="currentColor"/>
<path d="M15.9933 1.00006L15.998 1.30002L15.9981 1.30002L15.9933 1.00006ZM15.5225 1.47635H15.8225L15.8224 1.47141L15.5225 1.47635ZM18.4462 4.83476L18.2232 5.03549L18.2239 5.03618L18.4462 4.83476ZM18.4462 6.02268L18.6678 6.22487L18.6685 6.22409L18.4462 6.02268ZM12.8418 6.84494L12.6199 6.64311L12.6175 6.64577L12.8418 6.84494ZM12.3844 8.06379H12.6844L12.6844 8.06039L12.3844 8.06379ZM15.5225 9.84988H15.8225V9.54988H15.5225V9.84988ZM15.5225 12.432V12.732H15.8225V12.432H15.5225ZM11.0685 12.432L10.9163 12.6906L10.9868 12.732H11.0685V12.432ZM7.87199 11.5497L7.87447 11.2497L7.87258 11.2497L7.87199 11.5497ZM7.87008 11.5497V11.8497L7.87066 11.8497L7.87008 11.5497ZM1.54316 17.7499L1.84316 17.7505V17.7499H1.54316ZM1.54316 17.7518L1.24316 17.7524L1.24316 17.7527L1.54316 17.7518ZM2.31452 20.5627L2.60785 20.6256L2.63074 20.5189L2.5797 20.4224L2.31452 20.5627ZM1.12589 26.1038L1.4157 26.1813L1.41764 26.174L1.41922 26.1667L1.12589 26.1038ZM4.13575 30.9004L4.20205 30.6077L4.19284 30.6059L4.13575 30.9004ZM8.85869 28.0052L8.5734 27.9124L8.57099 27.9198L8.56896 27.9274L8.85869 28.0052ZM10.055 24.328L10.192 24.0611L9.87868 23.9002L9.76969 24.2352L10.055 24.328ZM11.4704 24.8315V25.1315H11.4708L11.4704 24.8315ZM13.618 23.9492V23.6492H13.5009L13.4148 23.7285L13.618 23.9492ZM17.782 23.9492L17.9852 23.7285L17.8991 23.6492H17.782V23.9492ZM21.8724 24.0955L22.1577 24.0029L22.0254 23.5951L21.6877 23.8591L21.8724 24.0955ZM23.1471 28.0249L22.8618 28.1175L23.437 27.9477L23.1471 28.0249ZM23.1414 28.0033L23.4312 27.9257L22.8515 28.0805L23.1414 28.0033ZM27.8691 30.9004L27.8119 30.6058L27.8027 30.6079L27.8691 30.9004ZM30.8761 26.1132L30.5828 26.176L30.5843 26.1831L30.5861 26.19L30.8761 26.1132ZM29.6741 20.5017L29.4067 20.3656L29.3584 20.4605L29.3807 20.5646L29.6741 20.5017ZM30.3976 17.7509H30.6976V17.7505L30.3976 17.7509ZM24.0688 11.5507L24.0692 11.2506L24.0665 11.2507L24.0688 11.5507ZM20.8665 12.4329V12.7329H20.9482L21.0186 12.6915L20.8665 12.4329ZM16.4795 12.4329H16.1795V12.7329H16.4795V12.4329ZM16.3394 9.05055L16.5493 8.83625L16.3394 9.05055ZM13.5558 8.65916L13.3271 8.85352L13.3328 8.85988L13.5558 8.65916ZM13.3414 8.06379L13.6414 8.06872V8.06379H13.3414ZM13.5558 7.4703L13.3342 7.26811L13.3328 7.26958L13.5558 7.4703ZM19.1602 6.64617L18.9382 6.44436L18.9376 6.44496L19.1602 6.64617ZM19.1602 4.21034L19.3824 4.00882L19.3821 4.00852L19.1602 4.21034ZM16.4795 3.6431H16.1795V3.9431H16.4795V3.6431ZM16.4795 1.47635L16.1795 1.47141V1.47635H16.4795ZM7.87008 12.4873L7.87064 12.1873H7.87008V12.4873ZM10.7201 13.2964L10.8787 13.0417L10.8777 13.0411L10.7201 13.2964ZM10.9766 13.3696L10.9765 13.6696H10.9766V13.3696ZM20.9584 13.3696V13.6696L20.9603 13.6696L20.9584 13.3696ZM21.212 13.2964L21.0542 13.0413L21.0535 13.0418L21.212 13.2964ZM28.7687 20.2936L28.5077 20.1456L28.5066 20.1476L28.7687 20.2936ZM28.7209 20.6161L29.0142 20.5533L29.014 20.5521L28.7209 20.6161ZM29.943 26.3204L29.6496 26.3832L29.6513 26.3905L29.943 26.3204ZM29.9487 26.3419L30.2386 26.2642L30.2367 26.2577L29.9487 26.3419ZM27.6777 29.9844L27.7295 30.28L27.7341 30.2791L27.6777 29.9844ZM27.6586 29.9882L27.595 29.695L27.5913 29.6958L27.6586 29.9882ZM24.0668 27.7652L24.3567 27.6876L24.3554 27.6832L24.0668 27.7652ZM24.0592 27.7408L23.7738 27.8334L23.7756 27.8386L24.0592 27.7408ZM22.6313 23.3389L22.3457 23.4305L22.3459 23.4314L22.6313 23.3389ZM22.1748 23.0107V23.3107H22.1748L22.1748 23.0107ZM21.9394 23.0107V22.7107L21.9383 22.7107L21.9394 23.0107ZM21.5824 23.1692L21.8039 23.3714L21.8052 23.37L21.5824 23.1692ZM19.9296 23.8939L19.9291 24.1939L19.9298 24.1939L19.9296 23.8939ZM18.2797 23.1692L18.0574 23.3706L18.0581 23.3714L18.2797 23.1692ZM17.9227 23.0116L17.9232 22.7116H17.9227V23.0116ZM13.4792 23.0116V22.7116L13.4787 22.7116L13.4792 23.0116ZM13.1223 23.1692L13.3437 23.3715L13.3445 23.3706L13.1223 23.1692ZM10.0473 23.3885L9.857 23.6204L9.8575 23.6209L10.0473 23.3885ZM9.28457 23.6042L8.99957 23.5105L8.99924 23.5115L9.28457 23.6042ZM7.9409 27.7408L7.65557 27.6481L7.653 27.656L7.65087 27.6641L7.9409 27.7408ZM7.93515 27.7652L8.22495 27.8427L8.22718 27.8344L8.22892 27.826L7.93515 27.7652ZM4.34247 29.9882L4.27007 30.2794L4.27523 30.2805L4.34247 29.9882ZM4.3262 29.9844L4.38858 29.6909L4.38258 29.6898L4.3262 29.9844ZM2.05134 26.3419L1.76332 26.2577L1.76159 26.2642L2.05134 26.3419ZM2.05708 26.3204L2.34885 26.3905L2.35042 26.3832L2.05708 26.3204ZM3.26581 20.6818L2.97269 20.6179L2.97247 20.6189L3.26581 20.6818ZM3.21413 20.3527L3.4738 20.2024L3.47291 20.2009L3.21413 20.3527ZM2.50019 17.7499H2.20018L2.20019 17.751L2.50019 17.7499ZM2.50019 17.7481H2.80019L2.80019 17.7477L2.50019 17.7481ZM7.86912 12.4873L7.86886 12.7873H7.86912V12.4873ZM24.0688 13.3124H24.3688V13.0124H24.0688V13.3124ZM24.0688 13.3133H23.7688V13.6133H24.0688V13.3133ZM7.86242 14.1937L7.86708 14.4937L7.86716 14.4937L7.86242 14.1937ZM7.39156 14.67H7.6916L7.69152 14.665L7.39156 14.67ZM7.39156 16.4186V16.7186H7.69156V16.4186H7.39156ZM7.39156 17.3562H7.69156V17.0562H7.39156V17.3562ZM7.39156 19.1057H7.09156H7.39156ZM8.34859 17.3562V17.0562H8.04859V17.3562H8.34859ZM8.34859 16.4186H8.04859V16.7186H8.34859V16.4186ZM8.34859 14.67L8.04859 14.665V14.67H8.34859ZM24.0688 14.2499L24.0666 13.95L23.7688 13.9521V14.2499H24.0688ZM24.4927 14.6737L24.1927 14.6654V14.6737H24.4927ZM24.0688 15.0956V14.7956L24.0653 14.7957L24.0688 15.0956ZM23.6438 14.6737L23.9437 14.6814L23.9439 14.6737L23.9437 14.6661L23.6438 14.6737ZM24.0688 14.2509L24.066 14.5509L24.3688 14.5537V14.2509H24.0688ZM21.8216 16.472L21.8196 16.772L21.8237 16.772L21.8216 16.472ZM22.2456 16.8949L21.9456 16.8872V16.8949H22.2456ZM21.8216 17.3168V17.0168L21.8189 17.0168L21.8216 17.3168ZM21.3977 16.8949L21.6976 16.9025L21.6978 16.8949L21.6976 16.8872L21.3977 16.8949ZM26.3149 16.472V16.772L26.3177 16.772L26.3149 16.472ZM26.7398 16.8949L26.4398 16.8872V16.8949H26.7398ZM26.3149 17.3168V17.0168L26.3121 17.0168L26.3149 17.3168ZM25.8929 16.8949L26.1929 16.904V16.8949H25.8929ZM24.0688 18.6941L24.066 18.9941L24.0708 18.9941L24.0688 18.6941ZM24.4927 19.116L24.1927 19.109V19.116H24.4927ZM24.0688 19.5379V19.2379L24.0653 19.2379L24.0688 19.5379ZM23.6438 19.116L23.9437 19.1237L23.9439 19.1164L23.9438 19.109L23.6438 19.116ZM11.4704 19.4845L11.4719 19.1844L11.4689 19.1845L11.4704 19.4845ZM9.6425 21.2771L9.34249 21.2758V21.2771H9.6425ZM13.2983 21.2771H13.5983L13.5983 21.2758L13.2983 21.2771ZM20.0196 19.4845L20.0211 19.1844L20.018 19.1845L20.0196 19.4845ZM18.1916 21.2771L17.8916 21.2758V21.2771H18.1916ZM21.8475 21.2771H22.1475L22.1475 21.2758L21.8475 21.2771ZM11.4704 22.1303V21.8303L11.4678 21.8303L11.4704 22.1303ZM10.5995 21.2771L10.8995 21.2798V21.2771H10.5995ZM20.0196 22.1303V21.8303L20.0169 21.8303L20.0196 22.1303ZM19.1487 21.2771L19.4487 21.2798V21.2771H19.1487ZM15.9933 1.00006L15.9887 0.700097C15.8873 0.701674 15.787 0.722799 15.6936 0.762422L15.8108 1.0386L15.928 1.31478C15.9499 1.30547 15.9737 1.3004 15.998 1.30002L15.9933 1.00006ZM15.8108 1.0386L15.6936 0.762422C15.6002 0.80205 15.5153 0.859485 15.4439 0.931741L15.6572 1.14265L15.8705 1.35356C15.8866 1.33736 15.906 1.32408 15.928 1.31478L15.8108 1.0386ZM15.6572 1.14265L15.4439 0.931741C15.3724 1.00401 15.3159 1.0897 15.2778 1.18406L15.556 1.29637L15.8341 1.40868C15.8423 1.38854 15.8545 1.36975 15.8705 1.35356L15.6572 1.14265ZM15.556 1.29637L15.2778 1.18406C15.2397 1.27844 15.2208 1.37946 15.2225 1.48129L15.5225 1.47635L15.8224 1.47141C15.8221 1.45011 15.826 1.42882 15.8341 1.40868L15.556 1.29637ZM15.5225 1.47635H15.2225V4.11095H15.5225H15.8225V1.47635H15.5225ZM15.5225 4.11095H15.2225C15.2225 4.31686 15.306 4.51306 15.4527 4.65674L15.6626 4.44244L15.8726 4.22814C15.8398 4.19599 15.8225 4.15371 15.8225 4.11095H15.5225ZM15.6626 4.44244L15.4527 4.65674C15.5991 4.80021 15.7965 4.87974 16.001 4.87974V4.57974V4.27974C15.9517 4.27974 15.9056 4.2605 15.8726 4.22814L15.6626 4.44244ZM16.001 4.57974V4.87974H17.7935V4.57974V4.27974H16.001V4.57974ZM17.7935 4.57974V4.87974C18.0436 4.87974 18.1487 4.95268 18.2233 5.03549L18.4462 4.83476L18.6692 4.63404C18.4719 4.41495 18.1999 4.27974 17.7935 4.27974V4.57974ZM18.4462 4.83476L18.2239 5.03618C18.3038 5.12437 18.3606 5.26727 18.3606 5.42825H18.6606H18.9606C18.9606 5.13733 18.8604 4.84518 18.6685 4.63335L18.4462 4.83476ZM18.6606 5.42825H18.3606C18.3606 5.5888 18.3035 5.7334 18.2239 5.82126L18.4462 6.02268L18.6685 6.22409C18.8607 6.01193 18.9606 5.71774 18.9606 5.42825H18.6606ZM18.4462 6.02268L18.2246 5.82049C18.1477 5.90475 18.0422 5.9777 17.7935 5.9777V6.2777V6.5777C18.2013 6.5777 18.471 6.44064 18.6678 6.22487L18.4462 6.02268ZM17.7935 6.2777V5.9777H14.2085V6.2777V6.5777H17.7935V6.2777ZM14.2085 6.2777V5.9777C13.5622 5.9777 12.9925 6.23329 12.6199 6.64312L12.8418 6.84494L13.0638 7.04675C13.3152 6.77028 13.7197 6.5777 14.2085 6.5777V6.2777ZM12.8418 6.84494L12.6175 6.64577C12.2687 7.03865 12.0785 7.54441 12.0844 8.0672L12.3844 8.06379L12.6844 8.06039C12.6801 7.68823 12.8155 7.32654 13.0662 7.0441L12.8418 6.84494ZM12.3844 8.06379H12.0844C12.0844 8.563 12.2522 9.07705 12.6196 9.48228L12.8418 9.28077L13.0641 9.07926C12.8075 8.79631 12.6844 8.43091 12.6844 8.06379H12.3844ZM12.8418 9.28077L12.6196 9.48228C12.9921 9.89306 13.5618 10.1499 14.2085 10.1499V9.84988V9.54988C13.7201 9.54988 13.3156 9.35667 13.0641 9.07926L12.8418 9.28077ZM14.2085 9.84988V10.1499H15.5225V9.84988V9.54988H14.2085V9.84988ZM15.5225 9.84988H15.2225V12.432H15.5225H15.8225V9.84988H15.5225ZM15.5225 12.432V12.132H11.0685V12.432V12.732H15.5225V12.432ZM11.0685 12.432L11.2206 12.1734C10.2089 11.5782 9.0536 11.2595 7.87447 11.2497L7.87199 11.5497L7.86951 11.8497C8.94393 11.8586 9.99597 12.1491 10.9163 12.6906L11.0685 12.432ZM7.87199 11.5497L7.87258 11.2497C7.87155 11.2497 7.87052 11.2497 7.86949 11.2497L7.87008 11.5497L7.87066 11.8497C7.87091 11.8497 7.87116 11.8497 7.8714 11.8497L7.87199 11.5497ZM7.87008 11.5497V11.2497C4.22078 11.2497 1.24316 14.1602 1.24316 17.7499H1.54316H1.84316C1.84316 14.5029 4.54072 11.8497 7.87008 11.8497V11.5497ZM1.54316 17.7499L1.24316 17.7493C1.24316 17.7504 1.24316 17.7514 1.24316 17.7524L1.54316 17.7518L1.84316 17.7512C1.84316 17.751 1.84316 17.7508 1.84316 17.7505L1.54316 17.7499ZM1.54316 17.7518L1.24316 17.7527C1.24621 18.8017 1.57144 19.7995 2.04934 20.703L2.31452 20.5627L2.5797 20.4224C2.13311 19.5782 1.84585 18.6765 1.84316 17.7509L1.54316 17.7518ZM2.31452 20.5627L2.0212 20.4998L0.832565 26.0409L1.12589 26.1038L1.41922 26.1667L2.60785 20.6256L2.31452 20.5627ZM1.12589 26.1038L0.836083 26.0262C0.23748 28.2638 1.66787 30.7277 4.07866 31.195L4.13575 30.9004L4.19284 30.6059C2.13431 30.2069 0.90415 28.0935 1.4157 26.1813L1.12589 26.1038ZM4.13575 30.9004L4.06948 31.193C6.31628 31.7019 8.54194 30.341 9.14842 28.083L8.85869 28.0052L8.56896 27.9274C8.04422 29.881 6.12787 31.044 4.20202 30.6079L4.13575 30.9004ZM8.85869 28.0052L9.14397 28.098L10.3403 24.4208L10.055 24.328L9.76969 24.2352L8.5734 27.9124L8.85869 28.0052ZM10.055 24.328L9.9179 24.5949C10.337 24.8101 10.8616 25.1315 11.4704 25.1315V24.8315V24.5315C11.0438 24.5315 10.6783 24.3109 10.192 24.0611L10.055 24.328ZM11.4704 24.8315L11.4708 25.1315C12.3677 25.1304 13.189 24.7518 13.8212 24.1699L13.618 23.9492L13.4148 23.7285C12.8756 24.2248 12.1943 24.5306 11.4701 24.5315L11.4704 24.8315ZM13.618 23.9492V24.2492H17.782V23.9492V23.6492H13.618V23.9492ZM17.782 23.9492L17.5789 24.1699C18.2109 24.7517 19.0312 25.1304 19.9283 25.1315L19.9286 24.8315L19.929 24.5315C19.2049 24.5306 18.5245 24.2249 17.9852 23.7285L17.782 23.9492ZM19.9286 24.8315L19.9284 25.1315C19.9284 25.1315 19.9283 25.1315 19.9283 25.1315C19.9283 25.1315 19.9282 25.1315 19.9281 25.1315C19.928 25.1315 19.9279 25.1315 19.9278 25.1315C19.9277 25.1315 19.9272 25.1315 19.9266 25.1315C19.9264 25.1315 19.926 25.1315 19.9256 25.1315C19.9254 25.1315 19.9242 25.1314 19.9227 25.1314C19.9222 25.1314 19.92 25.1314 19.9173 25.1313C19.9156 25.1312 19.9108 25.1309 19.9078 25.1307C19.9004 25.1301 19.8518 25.1214 19.8121 25.1079C19.6294 24.812 19.8731 24.5367 19.8977 24.5331C19.9037 24.5325 19.9123 24.5319 19.9149 24.5318C19.9164 24.5317 19.9189 24.5316 19.9199 24.5316C19.9206 24.5316 19.9217 24.5316 19.9222 24.5316C19.924 24.5315 19.9254 24.5315 19.9256 24.5315C19.9261 24.5315 19.9265 24.5315 19.9267 24.5315C19.9271 24.5315 19.9274 24.5315 19.9276 24.5315C19.9278 24.5315 19.9281 24.5315 19.9281 24.5315C19.9282 24.5315 19.9283 24.5315 19.9283 24.5315C19.9284 24.5315 19.9285 24.5315 19.9285 24.5315C19.9286 24.5315 19.9286 24.5315 19.9286 24.5315C19.9287 24.5315 19.9287 24.5315 19.9288 24.5315C19.9288 24.5315 19.9289 24.5315 19.9289 24.5315C19.929 24.5315 19.9291 24.5315 19.9292 24.5315C19.9292 24.5315 19.9294 24.5315 19.9297 24.5315C19.9299 24.5315 19.9302 24.5315 19.9306 24.5315C19.9308 24.5315 19.9312 24.5315 19.9317 24.5315C19.9319 24.5315 19.9333 24.5315 19.9351 24.5316C19.9356 24.5316 19.9367 24.5316 19.9374 24.5316C19.9384 24.5316 19.9409 24.5317 19.9424 24.5318C19.945 24.5319 19.9536 24.5325 19.9596 24.5331C19.9842 24.5367 20.2279 24.812 20.0451 25.1079C20.0055 25.1214 19.9569 25.1301 19.9495 25.1307C19.9465 25.1309 19.9417 25.1312 19.94 25.1313C19.9373 25.1314 19.9351 25.1314 19.9346 25.1314C19.9331 25.1314 19.9319 25.1315 19.9317 25.1315C19.9312 25.1315 19.9309 25.1315 19.9307 25.1315C19.9301 25.1315 19.9295 25.1315 19.9295 25.1315C19.9294 25.1315 19.9293 25.1315 19.9292 25.1315C19.9291 25.1315 19.929 25.1315 19.929 25.1315C19.929 25.1315 19.9289 25.1315 19.9289 25.1315L19.9286 24.8315L19.9284 24.5315C19.9283 24.5315 19.9281 24.5315 19.9279 24.5315C19.9279 24.5315 19.9277 24.5315 19.9276 24.5315C19.9276 24.5315 19.9271 24.5315 19.9264 24.5315C19.9262 24.5315 19.9259 24.5315 19.9254 24.5315C19.9252 24.5315 19.924 24.5315 19.9225 24.5315C19.922 24.5316 19.9198 24.5316 19.9171 24.5317C19.9154 24.5318 19.9107 24.532 19.9076 24.5322C19.9002 24.5328 19.8516 24.5415 19.812 24.5551C19.6292 24.8509 19.8729 25.1263 19.8975 25.1299C19.9035 25.1304 19.9121 25.131 19.9147 25.1312C19.9162 25.1312 19.9187 25.1313 19.9197 25.1313C19.9204 25.1314 19.9215 25.1314 19.922 25.1314C19.9238 25.1314 19.9252 25.1315 19.9254 25.1315C19.9259 25.1315 19.9263 25.1315 19.9265 25.1315C19.9269 25.1315 19.9273 25.1315 19.9274 25.1315C19.9277 25.1315 19.9279 25.1315 19.928 25.1315C19.9281 25.1315 19.9281 25.1315 19.9282 25.1315C19.9283 25.1315 19.9284 25.1315 19.9284 25.1315C19.9285 25.1315 19.9286 25.1315 19.9286 25.1315C19.9287 25.1315 19.9288 25.1315 19.9289 25.1315C19.9289 25.1315 19.929 25.1315 19.9291 25.1315C19.9292 25.1315 19.9292 25.1315 19.9293 25.1315C19.9294 25.1315 19.9296 25.1315 19.9299 25.1315C19.93 25.1315 19.9304 25.1315 19.9308 25.1315C19.931 25.1315 19.9314 25.1315 19.9319 25.1315C19.9321 25.1315 19.9335 25.1314 19.9352 25.1314C19.9357 25.1314 19.9369 25.1314 19.9376 25.1313C19.9386 25.1313 19.941 25.1312 19.9426 25.1312C19.9452 25.131 19.9538 25.1304 19.9598 25.1299C19.9844 25.1263 20.2281 24.8509 20.0453 24.5551C20.0057 24.5415 19.9571 24.5328 19.9497 24.5322C19.9466 24.532 19.9419 24.5318 19.9402 24.5317C19.9375 24.5316 19.9353 24.5316 19.9348 24.5315C19.9333 24.5315 19.9321 24.5315 19.9319 24.5315C19.9314 24.5315 19.9311 24.5315 19.9309 24.5315C19.9302 24.5315 19.9297 24.5315 19.9297 24.5315C19.9295 24.5315 19.9294 24.5315 19.9294 24.5315C19.9292 24.5315 19.929 24.5315 19.9289 24.5315L19.9286 24.8315ZM19.9286 24.8315L19.929 25.1315C20.7394 25.1304 21.4629 24.7962 22.0571 24.3319L21.8724 24.0955L21.6877 23.8591C21.166 24.2667 20.5687 24.5307 19.9283 24.5315L19.9286 24.8315ZM21.8724 24.0955L21.587 24.1881L22.8618 28.1175L23.1471 28.0249L23.4325 27.9323L22.1577 24.0029L21.8724 24.0955ZM23.1471 28.0249L23.437 27.9477L23.4313 27.9261L23.1414 28.0033L22.8515 28.0805L22.8572 28.1021L23.1471 28.0249ZM23.1414 28.0033L22.8516 28.0809C23.4571 30.3421 25.6869 31.7039 27.9356 31.193L27.8691 30.9004L27.8027 30.6079C25.8749 31.0459 23.955 29.8818 23.4312 27.9257L23.1414 28.0033ZM27.8691 30.9004L27.9263 31.1949C30.3323 30.7276 31.7584 28.2705 31.1661 26.0363L30.8761 26.1132L30.5861 26.19C31.0925 28.0999 29.8656 30.207 27.8119 30.6059L27.8691 30.9004ZM30.8761 26.1132L31.1694 26.0503L29.9674 20.4389L29.6741 20.5017L29.3807 20.5646L30.5828 26.176L30.8761 26.1132ZM29.6741 20.5017L29.9414 20.6379C30.3938 19.7495 30.6976 18.7725 30.6976 17.7509H30.3976H30.0976C30.0976 18.6532 29.829 19.5363 29.4067 20.3656L29.6741 20.5017ZM30.3976 17.7509L30.6976 17.7505C30.6952 16.0253 29.9946 14.3728 28.7513 13.1548L28.5414 13.3691L28.3315 13.5834C29.461 14.69 30.0954 16.189 30.0976 17.7513L30.3976 17.7509ZM28.5414 13.3691L28.7513 13.1548C27.5083 11.9371 25.8244 11.253 24.0692 11.2507L24.0688 11.5507L24.0684 11.8507C25.6687 11.8528 27.2017 12.4766 28.3315 13.5834L28.5414 13.3691ZM24.0688 11.5507L24.0665 11.2507C22.8854 11.2594 21.7279 11.5782 20.7144 12.1743L20.8665 12.4329L21.0186 12.6915C21.9406 12.1492 22.9947 11.8586 24.071 11.8506L24.0688 11.5507ZM20.8665 12.4329V12.1329H16.4795V12.4329V12.7329H20.8665V12.4329ZM16.4795 12.4329H16.7795V9.38203H16.4795H16.1795V12.4329H16.4795ZM16.4795 9.38203H16.7795C16.7795 9.17612 16.696 8.97993 16.5493 8.83625L16.3394 9.05055L16.1294 9.26484C16.1622 9.297 16.1795 9.33927 16.1795 9.38203H16.4795ZM16.3394 9.05055L16.5493 8.83625C16.4029 8.69277 16.2055 8.61324 16.001 8.61324V8.91324V9.21324C16.0503 9.21324 16.0964 9.23249 16.1294 9.26484L16.3394 9.05055ZM16.001 8.91324V8.61324H14.2085V8.91324V9.21324H16.001V8.91324ZM14.2085 8.91324V8.61324C13.9575 8.61324 13.8528 8.54065 13.7787 8.45843L13.5558 8.65916L13.3328 8.85988C13.5306 9.07956 13.8029 9.21324 14.2085 9.21324V8.91324ZM13.5558 8.65916L13.7844 8.46487C13.6892 8.35295 13.639 8.21236 13.6414 8.06872L13.3414 8.06379L13.0415 8.05886C13.0367 8.34961 13.1386 8.63151 13.3272 8.85344L13.5558 8.65916ZM13.3414 8.06379H13.6414C13.6414 7.90413 13.698 7.7607 13.7787 7.67103L13.5558 7.4703L13.3328 7.26958C13.1418 7.48181 13.0414 7.77342 13.0414 8.06379H13.3414ZM13.5558 7.4703L13.7774 7.67249C13.8537 7.58883 13.9589 7.51622 14.2085 7.51622V7.21622V6.91622C13.8015 6.91622 13.5315 7.05175 13.3342 7.26811L13.5558 7.4703ZM14.2085 7.21622V7.51622H17.7935V7.21622V6.91622H14.2085V7.21622ZM17.7935 7.21622V7.51622C18.4402 7.51622 19.0101 7.25936 19.3827 6.84738L19.1602 6.64617L18.9376 6.44496C18.6862 6.72304 18.2818 6.91622 17.7935 6.91622V7.21622ZM19.1602 6.64617L19.3821 6.84798C19.75 6.4434 19.9176 5.92815 19.9176 5.42919H19.6176H19.3176C19.3176 5.79655 19.1943 6.16263 18.9382 6.44436L19.1602 6.64617ZM19.6176 5.42919H19.9176C19.9176 4.92929 19.75 4.41422 19.3824 4.00882L19.1602 4.21034L18.9379 4.41185C19.1943 4.69464 19.3176 5.06089 19.3176 5.42919H19.6176ZM19.1602 4.21034L19.3821 4.00852C19.0095 3.59868 18.4398 3.3431 17.7935 3.3431V3.6431V3.9431C18.2823 3.9431 18.6868 4.13568 18.9382 4.41215L19.1602 4.21034ZM17.7935 3.6431V3.3431H16.4795V3.6431V3.9431H17.7935V3.6431ZM16.4795 3.6431H16.7795V1.47635H16.4795H16.1795V3.6431H16.4795ZM16.4795 1.47635L16.7795 1.48129C16.7812 1.37738 16.7615 1.27432 16.7219 1.17833L16.4446 1.29289L16.1673 1.40745C16.1758 1.42795 16.1799 1.44967 16.1796 1.47141L16.4795 1.47635ZM16.4446 1.29289L16.7219 1.17833C16.6822 1.08235 16.6234 0.995578 16.5494 0.923007L16.3394 1.13731L16.1295 1.3516C16.1461 1.3679 16.1589 1.38695 16.1673 1.40745L16.4446 1.29289ZM16.3394 1.13731L16.5494 0.923007C16.4753 0.85045 16.3875 0.793551 16.2912 0.75538L16.1806 1.03425L16.07 1.31312C16.0927 1.32211 16.1128 1.3353 16.1295 1.3516L16.3394 1.13731ZM16.1806 1.03425L16.2912 0.75538C16.195 0.717213 16.0921 0.698463 15.9886 0.700098L15.9933 1.00006L15.9981 1.30002C16.0229 1.29963 16.0474 1.30414 16.07 1.31312L16.1806 1.03425ZM7.87008 12.4873L7.86951 12.7873C8.82315 12.7891 9.75653 13.0542 10.5625 13.5517L10.7201 13.2964L10.8777 13.0411C9.9767 12.485 8.93452 12.1893 7.87064 12.1873L7.87008 12.4873ZM10.7201 13.2964L10.5616 13.5511C10.6861 13.6286 10.83 13.6695 10.9765 13.6696L10.9766 13.3696L10.9767 13.0696C10.9415 13.0695 10.9075 13.0597 10.8787 13.0417L10.7201 13.2964ZM10.9766 13.3696V13.6696H20.9584V13.3696V13.0696H10.9766V13.3696ZM20.9584 13.3696L20.9603 13.6696C21.1052 13.6686 21.2474 13.6278 21.3706 13.5511L21.212 13.2964L21.0535 13.0418C21.0249 13.0595 20.9913 13.0693 20.9565 13.0696L20.9584 13.3696ZM21.212 13.2964L21.3699 13.5515C22.3216 12.9626 23.447 12.7005 24.5685 12.8074L24.597 12.5087L24.6254 12.2101C23.3743 12.0909 22.1179 12.3831 21.0542 13.0413L21.212 13.2964ZM24.597 12.5087L24.5685 12.8074C25.69 12.9142 26.7423 13.3837 27.5598 14.1406L27.7636 13.9205L27.9674 13.7004C27.0525 12.8532 25.8765 12.3292 24.6254 12.2101L24.597 12.5087ZM27.7636 13.9205L27.5598 14.1406C28.3771 14.8975 28.9131 15.8984 29.0845 16.9851L29.3808 16.9383L29.6771 16.8916C29.4845 15.6703 28.8825 14.5477 27.9674 13.7004L27.7636 13.9205ZM29.3808 16.9383L29.0845 16.9851C29.2558 18.0717 29.0532 19.1836 28.5077 20.1456L28.7687 20.2936L29.0297 20.4415C29.6417 19.362 29.8698 18.1129 29.6771 16.8916L29.3808 16.9383ZM28.7687 20.2936L28.5066 20.1476C28.4164 20.3097 28.3882 20.4987 28.4278 20.6801L28.7209 20.6161L29.014 20.5521C29.0057 20.5142 29.0114 20.4744 29.0308 20.4395L28.7687 20.2936ZM28.7209 20.6161L28.4275 20.679L29.6497 26.3832L29.943 26.3204L30.2363 26.2575L29.0142 20.5533L28.7209 20.6161ZM29.943 26.3204L29.6513 26.3905C29.6542 26.4024 29.6573 26.4143 29.6608 26.4261L29.9487 26.3419L30.2367 26.2577C30.236 26.2553 30.2353 26.2528 30.2347 26.2502L29.943 26.3204ZM29.9487 26.3419L29.659 26.4197C30.0323 27.811 29.113 29.4044 27.6213 29.6898L27.6777 29.9844L27.7341 30.2791C29.5843 29.9251 30.6978 27.9762 30.2385 26.2642L29.9487 26.3419ZM27.6777 29.9844L27.6259 29.6889C27.6156 29.6907 27.6053 29.6928 27.595 29.695L27.6586 29.9882L27.7221 30.2814C27.7246 30.2808 27.727 30.2804 27.7295 30.2799L27.6777 29.9844ZM27.6586 29.9882L27.5913 29.6958C26.1548 30.0262 24.762 29.2019 24.3566 27.6876L24.0668 27.7652L23.777 27.8427C24.2636 29.6606 25.9659 30.6853 27.7258 30.2805L27.6586 29.9882ZM24.0668 27.7652L24.3554 27.6832C24.3516 27.6697 24.3474 27.6563 24.3428 27.643L24.0592 27.7408L23.7756 27.8386C23.7765 27.8414 23.7774 27.8442 23.7782 27.8471L24.0668 27.7652ZM24.0592 27.7408L24.3445 27.6482L22.9167 23.2463L22.6313 23.3389L22.3459 23.4314L23.7738 27.8334L24.0592 27.7408ZM22.6313 23.3389L22.9169 23.2472C22.8665 23.0901 22.7666 22.954 22.633 22.8579L22.4579 23.1015L22.2828 23.3451C22.3134 23.3671 22.335 23.3973 22.3457 23.4305L22.6313 23.3389ZM22.4579 23.1015L22.633 22.8579C22.4995 22.762 22.339 22.7107 22.1748 22.7107L22.1748 23.0107L22.1748 23.3107C22.2143 23.3107 22.2521 23.3231 22.2828 23.3451L22.4579 23.1015ZM22.1748 23.0107V22.7107H21.9394V23.0107V23.3107H22.1748V23.0107ZM21.9394 23.0107L21.9383 22.7107C21.8294 22.7111 21.7215 22.734 21.6218 22.7783L21.7436 23.0525L21.8653 23.3267C21.8887 23.3163 21.9143 23.3108 21.9404 23.3107L21.9394 23.0107ZM21.7436 23.0525L21.6218 22.7783C21.5222 22.8225 21.4327 22.8872 21.3596 22.9683L21.5824 23.1692L21.8052 23.37C21.8215 23.352 21.8419 23.3371 21.8653 23.3267L21.7436 23.0525ZM21.5824 23.1692L21.3608 22.9669C21.1813 23.1635 20.9611 23.3212 20.7144 23.4294L20.8349 23.7042L20.9554 23.9789C21.2782 23.8373 21.5674 23.6305 21.8039 23.3714L21.5824 23.1692ZM20.8349 23.7042L20.7144 23.4294C20.4677 23.5376 20.2002 23.5937 19.9294 23.5939L19.9296 23.8939L19.9298 24.1939C20.2831 24.1937 20.6325 24.1205 20.9554 23.9789L20.8349 23.7042ZM19.9296 23.8939L19.9301 23.5939C19.6598 23.5934 19.3928 23.5372 19.1465 23.429L19.0259 23.7037L18.9052 23.9784C19.2275 24.1199 19.5763 24.1933 19.9291 24.1939L19.9296 23.8939ZM19.0259 23.7037L19.1465 23.429C18.9002 23.3208 18.6805 23.1633 18.5013 22.9669L18.2797 23.1692L18.0581 23.3714C18.2942 23.6301 18.5829 23.8368 18.9052 23.9784L19.0259 23.7037ZM18.2797 23.1692L18.502 22.9677C18.4287 22.8868 18.3392 22.8225 18.2395 22.7785L18.1184 23.053L17.9973 23.3275C18.0207 23.3378 18.0411 23.3526 18.0574 23.3706L18.2797 23.1692ZM18.1184 23.053L18.2395 22.7785C18.1398 22.7346 18.0321 22.7118 17.9232 22.7116L17.9227 23.0116L17.9222 23.3116C17.9483 23.3117 17.9739 23.3171 17.9973 23.3275L18.1184 23.053ZM17.9227 23.0116V22.7116H13.4792V23.0116V23.3116H17.9227V23.0116ZM13.4792 23.0116L13.4787 22.7116C13.3699 22.7118 13.2621 22.7346 13.1624 22.7785L13.2835 23.053L13.4047 23.3275C13.428 23.3171 13.4536 23.3117 13.4797 23.3116L13.4792 23.0116ZM13.2835 23.053L13.1624 22.7785C13.0628 22.8225 12.9732 22.8868 12.9 22.9677L13.1223 23.1692L13.3445 23.3706C13.3609 23.3526 13.3813 23.3378 13.4047 23.3275L13.2835 23.053ZM13.1223 23.1692L12.9008 22.9668C12.5696 23.3291 12.1066 23.5526 11.6087 23.5881L11.63 23.8873L11.6514 24.1866C12.3007 24.1402 12.9076 23.8487 13.3437 23.3715L13.1223 23.1692ZM11.63 23.8873L11.6087 23.5881C11.1107 23.6236 10.619 23.4682 10.2371 23.1562L10.0473 23.3885L9.8575 23.6209C10.359 24.0306 11.0021 24.2329 11.6514 24.1866L11.63 23.8873ZM10.0473 23.3885L10.2376 23.1566C10.1397 23.0763 10.0236 23.0211 9.89973 22.9955L9.83894 23.2892L9.77814 23.583C9.80769 23.5891 9.83472 23.6022 9.857 23.6204L10.0473 23.3885ZM9.83894 23.2892L9.89973 22.9955C9.77586 22.9698 9.64749 22.9744 9.52575 23.0088L9.60736 23.2975L9.68898 23.5862C9.71791 23.578 9.74858 23.5769 9.77814 23.583L9.83894 23.2892ZM9.60736 23.2975L9.52575 23.0088C9.40399 23.0432 9.29214 23.1066 9.20026 23.1939L9.4069 23.4114L9.61354 23.6289C9.63424 23.6092 9.66007 23.5944 9.68898 23.5862L9.60736 23.2975ZM9.4069 23.4114L9.20026 23.1939C9.10836 23.2812 9.03924 23.3898 8.99957 23.5105L9.28457 23.6042L9.56956 23.6979C9.57797 23.6723 9.59287 23.6485 9.61354 23.6289L9.4069 23.4114ZM9.28457 23.6042L8.99924 23.5115L7.65557 27.6481L7.9409 27.7408L8.22622 27.8335L9.56989 23.6969L9.28457 23.6042ZM7.9409 27.7408L7.65087 27.6641C7.64734 27.6774 7.64418 27.6909 7.64138 27.7044L7.93515 27.7652L8.22892 27.826C8.22952 27.8231 8.23018 27.8203 8.23093 27.8175L7.9409 27.7408ZM7.93515 27.7652L7.64536 27.6876C7.24004 29.2018 5.84633 30.0262 4.4097 29.6958L4.34247 29.9882L4.27523 30.2805C6.03508 30.6852 7.73832 29.6607 8.22495 27.8427L7.93515 27.7652ZM4.34247 29.9882L4.41486 29.697C4.40612 29.6949 4.39735 29.6928 4.38856 29.691L4.3262 29.9844L4.26383 30.2779C4.26593 30.2783 4.26802 30.2788 4.27008 30.2793L4.34247 29.9882ZM4.3262 29.9844L4.38258 29.6898C2.89029 29.4042 1.96795 27.8104 2.34109 26.4197L2.05134 26.3419L1.76159 26.2642C1.30211 27.9768 2.42016 29.9252 4.26982 30.2791L4.3262 29.9844ZM2.05134 26.3419L2.33929 26.4261C2.34273 26.4143 2.34589 26.4025 2.34876 26.3905L2.05708 26.3204L1.7654 26.2502C1.76479 26.2527 1.76413 26.2552 1.76339 26.2577L2.05134 26.3419ZM2.05708 26.3204L2.35042 26.3832L3.55915 20.7446L3.26581 20.6818L2.97247 20.6189L1.76375 26.2575L2.05708 26.3204ZM3.26581 20.6818L3.55893 20.7456C3.59938 20.5601 3.56882 20.3666 3.47379 20.2024L3.21413 20.3527L2.95447 20.5029C2.97494 20.5383 2.98115 20.5791 2.97269 20.6179L3.26581 20.6818ZM3.21413 20.3527L3.47291 20.2009C3.03498 19.4542 2.80329 18.6092 2.80018 17.7489L2.50019 17.7499L2.20019 17.751C2.20368 18.7179 2.4641 19.6668 2.95535 20.5044L3.21413 20.3527ZM2.50019 17.7499H2.80019V17.7481H2.50019H2.20019V17.7499H2.50019ZM2.50019 17.7481L2.80019 17.7477C2.79947 17.0971 2.92974 16.4525 3.1837 15.8509L2.90731 15.7342L2.63093 15.6175C2.34582 16.293 2.19939 17.0171 2.20019 17.7484L2.50019 17.7481ZM2.90731 15.7342L3.1837 15.8509C3.43766 15.2492 3.81042 14.7021 4.28093 14.2411L4.07097 14.0268L3.86101 13.8125C3.33414 14.3288 2.91604 14.9421 2.63093 15.6175L2.90731 15.7342ZM4.07097 14.0268L4.28093 14.2411C4.75146 13.7801 5.31051 13.4141 5.92625 13.1645L5.81355 12.8865L5.70086 12.6085C5.01312 12.8872 4.38786 13.2963 3.86101 13.8125L4.07097 14.0268ZM5.81355 12.8865L5.92625 13.1645C6.54199 12.915 7.20214 12.7867 7.86886 12.7873L7.86912 12.4873L7.86938 12.1873C7.12547 12.1866 6.38858 12.3297 5.70086 12.6085L5.81355 12.8865ZM7.86912 12.4873V12.7873H7.87008V12.4873V12.1873H7.86912V12.4873ZM24.0688 13.3124V13.0124C23.1467 13.0124 22.3868 13.761 22.3868 14.6737H22.6868H22.9868C22.9868 14.0994 23.471 13.6124 24.0688 13.6124V13.3124ZM22.6868 14.6737H22.3868C22.3868 15.587 23.1473 16.3332 24.0688 16.3332V16.0332V15.7332C23.4705 15.7332 22.9868 15.2475 22.9868 14.6737H22.6868ZM24.0688 16.0332V16.3332C24.9894 16.3332 25.7497 15.5868 25.7497 14.6737H25.4497H25.1497C25.1497 15.2476 24.6659 15.7332 24.0688 15.7332V16.0332ZM25.4497 14.6737H25.7497C25.7497 13.7609 24.9897 13.0133 24.0688 13.0133V13.3133V13.6133C24.6657 13.6133 25.1497 14.0996 25.1497 14.6737H25.4497ZM24.0688 13.3133H24.3688V13.3124H24.0688H23.7688V13.3133H24.0688ZM7.86242 14.1937L7.85776 13.8937C7.75636 13.8953 7.65612 13.9164 7.56272 13.9561L7.67987 14.2322L7.79703 14.5084C7.81898 14.4991 7.8428 14.494 7.86708 14.4937L7.86242 14.1937ZM7.67987 14.2322L7.56272 13.9561C7.4693 13.9957 7.38437 14.0531 7.31294 14.1254L7.52628 14.3363L7.73963 14.5472C7.75565 14.531 7.7751 14.5177 7.79703 14.5084L7.67987 14.2322ZM7.52628 14.3363L7.31294 14.1254C7.24149 14.1976 7.18495 14.2833 7.14686 14.3777L7.42504 14.49L7.70322 14.6023C7.71136 14.5822 7.72362 14.5634 7.73963 14.5472L7.52628 14.3363ZM7.42504 14.49L7.14686 14.3777C7.10875 14.4721 7.08993 14.5731 7.0916 14.6749L7.39156 14.67L7.69152 14.665C7.69117 14.6437 7.6951 14.6224 7.70322 14.6023L7.42504 14.49ZM7.39156 14.67H7.09156V16.4186H7.39156H7.69156V14.67H7.39156ZM7.39156 16.4186V16.1186H5.6268V16.4186V16.7186H7.39156V16.4186ZM5.6268 16.4186V16.1186C5.42229 16.1186 5.22495 16.1981 5.0785 16.3416L5.28844 16.5559L5.49838 16.7702C5.53141 16.7378 5.57749 16.7186 5.6268 16.7186V16.4186ZM5.28844 16.5559L5.0785 16.3416C4.93184 16.4853 4.84829 16.6815 4.84829 16.8874H5.14829H5.44829C5.44829 16.8446 5.46556 16.8023 5.49838 16.7702L5.28844 16.5559ZM5.14829 16.8874H4.84829C4.84829 17.0933 4.93184 17.2895 5.0785 17.4331L5.28844 17.2188L5.49838 17.0045C5.46556 16.9724 5.44829 16.9301 5.44829 16.8874H5.14829ZM5.28844 17.2188L5.0785 17.4331C5.22495 17.5766 5.42229 17.6562 5.6268 17.6562V17.3562V17.0562C5.57749 17.0562 5.53141 17.0369 5.49838 17.0045L5.28844 17.2188ZM5.6268 17.3562V17.6562H7.39156V17.3562V17.0562H5.6268V17.3562ZM7.39156 17.3562H7.09156V19.1057H7.39156H7.69156V17.3562H7.39156ZM7.39156 19.1057H7.09156C7.09156 19.3116 7.17511 19.5078 7.32177 19.6515L7.53172 19.4372L7.74166 19.2229C7.70884 19.1907 7.69156 19.1484 7.69156 19.1057H7.39156ZM7.53172 19.4372L7.32177 19.6515C7.46822 19.7949 7.66556 19.8745 7.87008 19.8745V19.5745V19.2745C7.82077 19.2745 7.77469 19.2552 7.74166 19.2229L7.53172 19.4372ZM7.87008 19.5745V19.8745C8.07459 19.8745 8.27193 19.7949 8.41838 19.6515L8.20844 19.4372L7.99849 19.2229C7.96547 19.2552 7.91938 19.2745 7.87008 19.2745V19.5745ZM8.20844 19.4372L8.41838 19.6515C8.56504 19.5078 8.64859 19.3116 8.64859 19.1057H8.34859H8.04859C8.04859 19.1484 8.03131 19.1907 7.99849 19.2229L8.20844 19.4372ZM8.34859 19.1057H8.64859V17.3562H8.34859H8.04859V19.1057H8.34859ZM8.34859 17.3562V17.6562H10.1134V17.3562V17.0562H8.34859V17.3562ZM10.1134 17.3562V17.6562C10.3179 17.6562 10.5152 17.5766 10.6617 17.4331L10.4517 17.2188L10.2418 17.0045C10.2087 17.0369 10.1627 17.0562 10.1134 17.0562V17.3562ZM10.4517 17.2188L10.6617 17.4331C10.8083 17.2895 10.8919 17.0933 10.8919 16.8874H10.5919H10.2919C10.2919 16.9301 10.2746 16.9724 10.2418 17.0045L10.4517 17.2188ZM10.5919 16.8874H10.8919C10.8919 16.6815 10.8083 16.4853 10.6617 16.3416L10.4517 16.5559L10.2418 16.7702C10.2746 16.8023 10.2919 16.8446 10.2919 16.8874H10.5919ZM10.4517 16.5559L10.6617 16.3416C10.5152 16.1981 10.3179 16.1186 10.1134 16.1186V16.4186V16.7186C10.1627 16.7186 10.2087 16.7378 10.2418 16.7702L10.4517 16.5559ZM10.1134 16.4186V16.1186H8.34859V16.4186V16.7186H10.1134V16.4186ZM8.34859 16.4186H8.64859V14.67H8.34859H8.04859V16.4186H8.34859ZM8.34859 14.67L8.64855 14.6749C8.65026 14.571 8.63062 14.468 8.59096 14.372L8.31369 14.4865L8.03643 14.6011C8.04489 14.6216 8.04899 14.6433 8.04863 14.665L8.34859 14.67ZM8.31369 14.4865L8.59096 14.372C8.5513 14.276 8.49252 14.1892 8.41844 14.1166L8.2085 14.3309L7.99856 14.5452C8.01519 14.5615 8.02795 14.5806 8.03643 14.6011L8.31369 14.4865ZM8.2085 14.3309L8.41844 14.1166C8.34438 14.0441 8.25653 13.9872 8.16028 13.949L8.04969 14.2279L7.9391 14.5068C7.96175 14.5157 7.98191 14.5289 7.99856 14.5452L8.2085 14.3309ZM8.04969 14.2279L8.16028 13.949C8.06404 13.9108 7.96115 13.8921 7.85768 13.8937L7.86242 14.1937L7.86716 14.4937C7.89195 14.4933 7.91643 14.4978 7.9391 14.5068L8.04969 14.2279ZM24.0688 14.2499L24.0709 14.5499C24.088 14.5498 24.1048 14.5531 24.1203 14.5594L24.2335 14.2816L24.3467 14.0037C24.2578 13.9675 24.1626 13.9493 24.0666 13.95L24.0688 14.2499ZM24.2335 14.2816L24.1203 14.5594C24.1358 14.5657 24.1493 14.5748 24.1604 14.5859L24.3725 14.3737L24.5846 14.1615C24.5166 14.0935 24.4356 14.04 24.3467 14.0037L24.2335 14.2816ZM24.3725 14.3737L24.1604 14.5859C24.1715 14.597 24.1798 14.6097 24.1853 14.6233L24.4638 14.5117L24.7422 14.4002C24.7064 14.3107 24.6527 14.2296 24.5846 14.1615L24.3725 14.3737ZM24.4638 14.5117L24.1853 14.6233C24.1907 14.6369 24.1932 14.6512 24.1928 14.6654L24.4927 14.6737L24.7926 14.6821C24.7953 14.5856 24.7781 14.4897 24.7422 14.4002L24.4638 14.5117ZM24.4927 14.6737H24.1927C24.1927 14.7454 24.144 14.7956 24.0688 14.7956V15.0956V15.3956C24.4682 15.3956 24.7927 15.084 24.7927 14.6737H24.4927ZM24.0688 15.0956L24.0653 14.7957C24.0483 14.7959 24.0316 14.7927 24.0161 14.7865L23.904 15.0647L23.7919 15.343C23.881 15.3789 23.9763 15.3967 24.0722 15.3956L24.0688 15.0956ZM23.904 15.0647L24.0161 14.7865C24.0008 14.7803 23.9872 14.7713 23.9761 14.7603L23.7648 14.9732L23.5534 15.186C23.6217 15.2538 23.7028 15.3071 23.7919 15.343L23.904 15.0647ZM23.7648 14.9732L23.9761 14.7603C23.9651 14.7493 23.9568 14.7366 23.9513 14.7232L23.6732 14.8355L23.395 14.9479C23.4311 15.0373 23.4851 15.1182 23.5534 15.186L23.7648 14.9732ZM23.6732 14.8355L23.9513 14.7232C23.9459 14.7097 23.9434 14.6955 23.9437 14.6814L23.6438 14.6737L23.3439 14.666C23.3415 14.7625 23.3589 14.8584 23.395 14.9479L23.6732 14.8355ZM23.6438 14.6737L23.9437 14.6661C23.9434 14.6519 23.9459 14.6376 23.9514 14.624L23.6732 14.5118L23.3949 14.3996C23.3589 14.4891 23.3415 14.5849 23.3439 14.6814L23.6438 14.6737ZM23.6732 14.5118L23.9514 14.624C23.9569 14.6104 23.9652 14.5977 23.9763 14.5866L23.7647 14.374L23.5531 14.1613C23.4849 14.2292 23.431 14.3102 23.3949 14.3996L23.6732 14.5118ZM23.7647 14.374L23.9763 14.5866C23.9874 14.5756 24.0011 14.5665 24.0165 14.5602L23.904 14.2821L23.7914 14.0041C23.7024 14.0401 23.6213 14.0935 23.5531 14.1613L23.7647 14.374ZM23.904 14.2821L24.0165 14.5602C24.032 14.5539 24.0489 14.5507 24.066 14.5509L24.0688 14.2509L24.0715 13.9509C23.9756 13.95 23.8803 13.968 23.7914 14.0041L23.904 14.2821ZM24.0688 14.2509H24.3688V14.2499H24.0688H23.7688V14.2509H24.0688ZM21.8216 15.5344V15.2344C20.9007 15.2344 20.1407 15.982 20.1407 16.8949H20.4407H20.7407C20.7407 16.3207 21.2247 15.8344 21.8216 15.8344V15.5344ZM20.4407 16.8949H20.1407C20.1407 17.808 20.901 18.5544 21.8216 18.5544V18.2544V17.9544C21.2245 17.9544 20.7407 17.4688 20.7407 16.8949H20.4407ZM21.8216 18.2544V18.5544C22.7423 18.5544 23.5026 17.808 23.5026 16.8949H23.2026H22.9026C22.9026 17.4688 22.4188 17.9544 21.8216 17.9544V18.2544ZM23.2026 16.8949H23.5026C23.5026 15.982 22.7426 15.2344 21.8216 15.2344V15.5344V15.8344C22.4186 15.8344 22.9026 16.3207 22.9026 16.8949H23.2026ZM26.3149 15.5344V15.2344C25.3934 15.2344 24.6358 15.9826 24.6358 16.8949H24.9358H25.2358C25.2358 16.3201 25.7185 15.8344 26.3149 15.8344V15.5344ZM24.9358 16.8949H24.6358C24.6358 17.8074 25.3937 18.5544 26.3149 18.5544V18.2544V17.9544C25.7183 17.9544 25.2358 17.4693 25.2358 16.8949H24.9358ZM26.3149 18.2544V18.5544C27.2364 18.5544 27.9969 17.8081 27.9969 16.8949H27.6969H27.3969C27.3969 17.4686 26.9132 17.9544 26.3149 17.9544V18.2544ZM27.6969 16.8949H27.9969C27.9969 15.9819 27.2367 15.2344 26.3149 15.2344V15.5344V15.8344C26.9129 15.8344 27.3969 16.3208 27.3969 16.8949H27.6969ZM21.8216 16.472L21.8237 16.772C21.8408 16.7719 21.8576 16.7751 21.8731 16.7814L21.9862 16.5035L22.0992 16.2257C22.0104 16.1895 21.9153 16.1714 21.8196 16.172L21.8216 16.472ZM21.9862 16.5035L21.8731 16.7814C21.8885 16.7877 21.9021 16.7968 21.9132 16.8079L22.1251 16.5955L22.3369 16.383C22.2689 16.3152 22.188 16.2618 22.0992 16.2257L21.9862 16.5035ZM22.1251 16.5955L21.9132 16.8079C21.9243 16.8189 21.9326 16.8317 21.9381 16.8452L22.2164 16.7332L22.4947 16.6211C22.4587 16.5318 22.4049 16.4509 22.3369 16.383L22.1251 16.5955ZM22.2164 16.7332L21.9381 16.8452C21.9435 16.8588 21.9461 16.873 21.9457 16.8872L22.2456 16.8949L22.5455 16.9025C22.548 16.8062 22.5306 16.7105 22.4947 16.6211L22.2164 16.7332ZM22.2456 16.8949H21.9456C21.9456 16.967 21.8974 17.0168 21.8216 17.0168V17.3168V17.6168C22.2225 17.6168 22.5456 17.3046 22.5456 16.8949H22.2456ZM21.8216 17.3168L21.8189 17.0168C21.8019 17.0169 21.7852 17.0137 21.7698 17.0075L21.6572 17.2856L21.5446 17.5637C21.6335 17.5996 21.7286 17.6176 21.8244 17.6168L21.8216 17.3168ZM21.6572 17.2856L21.7698 17.0075C21.7544 17.0013 21.7409 16.9923 21.7299 16.9813L21.5183 17.1939L21.3067 17.4066C21.3748 17.4744 21.4558 17.5277 21.5446 17.5637L21.6572 17.2856ZM21.5183 17.1939L21.7299 16.9813C21.7189 16.9703 21.7106 16.9577 21.7052 16.9442L21.4269 17.0564L21.1487 17.1686C21.1847 17.2579 21.2386 17.3388 21.3067 17.4066L21.5183 17.1939ZM21.4269 17.0564L21.7052 16.9442C21.6998 16.9308 21.6972 16.9166 21.6976 16.9025L21.3977 16.8949L21.0978 16.8872C21.0953 16.9835 21.1127 17.0793 21.1487 17.1686L21.4269 17.0564ZM21.3977 16.8949L21.6976 16.8872C21.6972 16.873 21.6998 16.8588 21.7052 16.8452L21.4269 16.7332L21.1486 16.6211C21.1127 16.7105 21.0953 16.8062 21.0978 16.9025L21.3977 16.8949ZM21.4269 16.7332L21.7052 16.8452C21.7107 16.8317 21.719 16.8189 21.7301 16.8079L21.5182 16.5955L21.3064 16.383C21.2384 16.4509 21.1846 16.5318 21.1486 16.6211L21.4269 16.7332ZM21.5182 16.5955L21.7301 16.8079C21.7412 16.7968 21.7548 16.7877 21.7702 16.7814L21.6571 16.5035L21.5441 16.2257C21.4553 16.2618 21.3744 16.3152 21.3064 16.383L21.5182 16.5955ZM21.6571 16.5035L21.7702 16.7814C21.7857 16.7751 21.8025 16.7719 21.8196 16.772L21.8216 16.472L21.8237 16.172C21.728 16.1714 21.6329 16.1895 21.5441 16.2257L21.6571 16.5035ZM26.3149 16.472L26.3177 16.772C26.3348 16.7718 26.3516 16.7751 26.3671 16.7813L26.4797 16.5033L26.5923 16.2252C26.5033 16.1892 26.4081 16.1711 26.3121 16.172L26.3149 16.472ZM26.4797 16.5033L26.3671 16.7813C26.3826 16.7876 26.3962 16.7967 26.4073 16.8078L26.6189 16.5951L26.8306 16.3825C26.7624 16.3146 26.6813 16.2612 26.5923 16.2252L26.4797 16.5033ZM26.6189 16.5951L26.4073 16.8078C26.4184 16.8188 26.4268 16.8316 26.4323 16.8451L26.7105 16.7329L26.9887 16.6207C26.9527 16.5313 26.8988 16.4503 26.8306 16.3825L26.6189 16.5951ZM26.7105 16.7329L26.4323 16.8451C26.4377 16.8587 26.4403 16.873 26.4399 16.8872L26.7398 16.8949L27.0397 16.9025C27.0422 16.806 27.0248 16.7102 26.9887 16.6207L26.7105 16.7329ZM26.7398 16.8949H26.4398C26.4398 16.9661 26.3916 17.0168 26.3149 17.0168V17.3168V17.6168C26.7148 17.6168 27.0398 17.3055 27.0398 16.8949H26.7398ZM26.3149 17.3168L26.3121 17.0168C26.2953 17.0169 26.2788 17.0138 26.2636 17.0076L26.1507 17.2856L26.0379 17.5635C26.1267 17.5996 26.2219 17.6177 26.3177 17.6168L26.3149 17.3168ZM26.1507 17.2856L26.2636 17.0076C26.2485 17.0014 26.2351 16.9925 26.2243 16.9817L26.0122 17.1938L25.8001 17.406C25.8681 17.474 25.949 17.5274 26.0379 17.5635L26.1507 17.2856ZM26.0122 17.1938L26.2243 16.9817C26.2134 16.9708 26.2053 16.9583 26.2 16.9451L25.9214 17.0563L25.6428 17.1675C25.6785 17.257 25.7321 17.338 25.8001 17.406L26.0122 17.1938ZM25.9214 17.0563L26.2 16.9451C26.1947 16.9318 26.1923 16.9179 26.1927 16.904L25.8929 16.8949L25.593 16.8857C25.5901 16.9821 25.607 17.078 25.6428 17.1675L25.9214 17.0563ZM25.8929 16.8949H26.1929C26.1929 16.8205 26.2423 16.772 26.3149 16.772V16.472V16.172C25.9128 16.172 25.5929 16.4873 25.5929 16.8949H25.8929ZM24.0688 17.7565V17.4565C23.1473 17.4565 22.3868 18.2028 22.3868 19.116H22.6868H22.9868C22.9868 18.5422 23.4705 18.0565 24.0688 18.0565V17.7565ZM22.6868 19.116H22.3868C22.3868 20.0292 23.1473 20.7755 24.0688 20.7755V20.4755V20.1755C23.4705 20.1755 22.9868 19.6898 22.9868 19.116H22.6868ZM24.0688 20.4755V20.7755C24.9894 20.7755 25.7497 20.0291 25.7497 19.116H25.4497H25.1497C25.1497 19.6899 24.6659 20.1755 24.0688 20.1755V20.4755ZM25.4497 19.116H25.7497C25.7497 18.2029 24.9894 17.4565 24.0688 17.4565V17.7565V18.0565C24.6659 18.0565 25.1497 18.5421 25.1497 19.116H25.4497ZM24.0688 18.6941L24.0708 18.9941C24.0879 18.994 24.1047 18.9972 24.1201 19.0035L24.233 18.7255L24.3459 18.4476C24.2573 18.4116 24.1623 18.3934 24.0667 18.3941L24.0688 18.6941ZM24.233 18.7255L24.1201 19.0035C24.1355 19.0097 24.1491 19.0188 24.1602 19.0298L24.3718 18.8172L24.5834 18.6045C24.5154 18.5369 24.4346 18.4836 24.3459 18.4476L24.233 18.7255ZM24.3718 18.8172L24.1602 19.0298C24.1713 19.0409 24.1796 19.0536 24.1851 19.0671L24.4632 18.9546L24.7413 18.8421C24.7052 18.7529 24.6514 18.6722 24.5834 18.6045L24.3718 18.8172ZM24.4632 18.9546L24.1851 19.0671C24.1906 19.0806 24.1931 19.0948 24.1928 19.109L24.4927 19.116L24.7926 19.123C24.7949 19.0267 24.7774 18.9312 24.7413 18.8421L24.4632 18.9546ZM24.4927 19.116H24.1927C24.1927 19.1877 24.144 19.2379 24.0688 19.2379V19.5379V19.8379C24.4682 19.8379 24.7927 19.5262 24.7927 19.116H24.4927ZM24.0688 19.5379L24.0653 19.2379C24.0483 19.2381 24.0316 19.2349 24.0161 19.2287L23.904 19.507L23.7919 19.7853C23.881 19.8211 23.9763 19.839 24.0722 19.8379L24.0688 19.5379ZM23.904 19.507L24.0161 19.2287C24.0007 19.2225 23.9872 19.2135 23.9761 19.2025L23.7648 19.4154L23.5534 19.6283C23.6217 19.6961 23.7028 19.7494 23.7919 19.7853L23.904 19.507ZM23.7648 19.4154L23.9761 19.2025C23.9651 19.1916 23.9568 19.1789 23.9513 19.1654L23.6732 19.2778L23.395 19.3901C23.4311 19.4795 23.4851 19.5605 23.5534 19.6283L23.7648 19.4154ZM23.6732 19.2778L23.9513 19.1654C23.9459 19.152 23.9434 19.1378 23.9437 19.1237L23.6438 19.116L23.3439 19.1083C23.3415 19.2048 23.3589 19.3007 23.395 19.3901L23.6732 19.2778ZM23.6438 19.116L23.9438 19.109C23.9434 19.0948 23.946 19.0806 23.9515 19.067L23.6734 18.9544L23.3954 18.8417C23.3592 18.9309 23.3417 19.0266 23.3439 19.123L23.6438 19.116ZM23.6734 18.9544L23.9515 19.067C23.957 19.0535 23.9653 19.0408 23.9764 19.0297L23.7651 18.8169L23.5537 18.604C23.4855 18.6717 23.4316 18.7524 23.3954 18.8417L23.6734 18.9544ZM23.7651 18.8169L23.9764 19.0297C23.9876 19.0187 24.0012 19.0096 24.0166 19.0034L23.9042 18.7253L23.7917 18.4471C23.7029 18.4831 23.6219 18.5363 23.5537 18.604L23.7651 18.8169ZM23.9042 18.7253L24.0166 19.0034C24.0321 18.9971 24.0489 18.9939 24.066 18.9941L24.0688 18.6941L24.0715 18.3941C23.9757 18.3932 23.8806 18.4112 23.7917 18.4471L23.9042 18.7253ZM11.4704 19.4845L11.4689 19.1845C10.9074 19.1873 10.3686 19.4072 9.96993 19.7982L10.18 20.0124L10.39 20.2265C10.676 19.9461 11.0647 19.7865 11.4719 19.7845L11.4704 19.4845ZM10.18 20.0124L9.96993 19.7982C9.57108 20.1893 9.34485 20.7203 9.3425 21.2758L9.6425 21.2771L9.94249 21.2784C9.94416 20.8849 10.1043 20.5068 10.39 20.2265L10.18 20.0124ZM9.6425 21.2771H9.34249C9.34249 22.433 10.3057 23.3679 11.4704 23.3679V23.0679V22.7679C10.6254 22.7679 9.94249 22.0901 9.94249 21.2771H9.6425ZM11.4704 23.0679V23.3679C12.6341 23.3679 13.5983 22.4331 13.5983 21.2771H13.2983H12.9983C12.9983 22.09 12.3146 22.7679 11.4704 22.7679V23.0679ZM13.2983 21.2771L13.5983 21.2758C13.596 20.7203 13.3698 20.1893 12.9709 19.7982L12.7609 20.0124L12.5508 20.2265C12.8366 20.5068 12.9967 20.8849 12.9983 21.2784L13.2983 21.2771ZM12.7609 20.0124L12.9709 19.7982C12.5723 19.4072 12.0334 19.1873 11.4719 19.1845L11.4704 19.4845L11.4689 19.7845C11.8761 19.7865 12.2648 19.9461 12.5508 20.2265L12.7609 20.0124ZM20.0196 19.4845L20.018 19.1845C19.4566 19.1873 18.9177 19.4072 18.5191 19.7982L18.7291 20.0124L18.9392 20.2265C19.2252 19.9461 19.6139 19.7865 20.0211 19.7845L20.0196 19.4845ZM18.7291 20.0124L18.5191 19.7982C18.1202 20.1893 17.894 20.7203 17.8916 21.2758L18.1916 21.2771L18.4916 21.2784C18.4933 20.8849 18.6534 20.5068 18.9392 20.2265L18.7291 20.0124ZM18.1916 21.2771H17.8916C17.8916 22.4331 18.8559 23.3679 20.0196 23.3679V23.0679V22.7679C19.1754 22.7679 18.4916 22.09 18.4916 21.2771H18.1916ZM20.0196 23.0679V23.3679C21.1843 23.3679 22.1475 22.433 22.1475 21.2771H21.8475H21.5475C21.5475 22.0901 20.8646 22.7679 20.0196 22.7679V23.0679ZM21.8475 21.2771L22.1475 21.2758C22.1451 20.7203 21.9189 20.1893 21.5201 19.7982L21.31 20.0124L21.0999 20.2265C21.3857 20.5068 21.5458 20.8849 21.5475 21.2784L21.8475 21.2771ZM21.31 20.0124L21.5201 19.7982C21.1214 19.4072 20.5826 19.1873 20.0211 19.1845L20.0196 19.4845L20.018 19.7845C20.4253 19.7865 20.814 19.9461 21.0999 20.2265L21.31 20.0124ZM11.4704 20.422V20.722C11.7961 20.722 12.0413 20.9707 12.0413 21.2771H12.3413H12.6413C12.6413 20.6291 12.1171 20.122 11.4704 20.122V20.422ZM12.3413 21.2771H12.0413C12.0413 21.5827 11.797 21.8303 11.4704 21.8303V22.1303V22.4303C12.1162 22.4303 12.6413 21.926 12.6413 21.2771H12.3413ZM11.4704 22.1303L11.4678 21.8303C11.3921 21.831 11.3172 21.8169 11.2475 21.7889L11.1359 22.0674L11.0244 22.3459C11.1669 22.403 11.3194 22.4316 11.473 22.4303L11.4704 22.1303ZM11.1359 22.0674L11.2475 21.7889C11.1778 21.761 11.1149 21.7199 11.0623 21.6683L10.8523 21.8826L10.6424 22.0969C10.7519 22.2042 10.8818 22.2888 11.0244 22.3459L11.1359 22.0674ZM10.8523 21.8826L11.0623 21.6683C11.0097 21.6168 10.9684 21.5559 10.9406 21.4892L10.6637 21.6048L10.3869 21.7204C10.4459 21.8617 10.5328 21.9896 10.6424 22.0969L10.8523 21.8826ZM10.6637 21.6048L10.9406 21.4892C10.9128 21.4226 10.8989 21.3514 10.8995 21.2798L10.5995 21.2771L10.2995 21.2744C10.2981 21.4274 10.3279 21.5791 10.3869 21.7204L10.6637 21.6048ZM10.5995 21.2771H10.8995C10.8995 20.9703 11.1433 20.722 11.4704 20.722V20.422V20.122C10.8214 20.122 10.2995 20.6295 10.2995 21.2771H10.5995ZM20.0196 20.422V20.722C20.346 20.722 20.5905 20.9705 20.5905 21.2771H20.8905H21.1905C21.1905 20.6293 20.6674 20.122 20.0196 20.122V20.422ZM20.8905 21.2771H20.5905C20.5905 21.5829 20.3468 21.8303 20.0196 21.8303V22.1303V22.4303C20.6665 22.4303 21.1905 21.9258 21.1905 21.2771H20.8905ZM20.0196 22.1303L20.0169 21.8303C19.9413 21.831 19.8664 21.8169 19.7967 21.7889L19.6851 22.0674L19.5735 22.3459C19.716 22.403 19.8685 22.4316 20.0222 22.4303L20.0196 22.1303ZM19.6851 22.0674L19.7967 21.7889C19.727 21.761 19.664 21.7199 19.6114 21.6683L19.4015 21.8826L19.1915 22.0969C19.3011 22.2042 19.431 22.2888 19.5735 22.3459L19.6851 22.0674ZM19.4015 21.8826L19.6114 21.6683C19.5588 21.6168 19.5175 21.5559 19.4897 21.4892L19.2129 21.6048L18.936 21.7204C18.995 21.8617 19.082 21.9896 19.1915 22.0969L19.4015 21.8826ZM19.2129 21.6048L19.4897 21.4892C19.4619 21.4226 19.448 21.3514 19.4487 21.2798L19.1487 21.2771L18.8487 21.2744C18.8473 21.4274 18.877 21.5791 18.936 21.7204L19.2129 21.6048ZM19.1487 21.2771H19.4487C19.4487 20.9705 19.6932 20.722 20.0196 20.722V20.422V20.122C19.3717 20.122 18.8487 20.6293 18.8487 21.2771H19.1487Z" fill="currentColor" mask="url(#path-1-outside-1_539_715)"/>
</g>
<defs>
<clipPath id="clip0_539_715">
<rect width="32" height="32" fill="currentColor"/>
</clipPath>
</defs>
</svg>
