<svg width="32" height="32" viewBox="0 0 32 32" fill="none" xmlns="http://www.w3.org/2000/svg">
<path d="M16.6667 22.667H15.3334C14.9334 22.667 14.6667 22.9337 14.6667 23.3337C14.6667 23.7337 14.9334 24.0003 15.3334 24.0003H16.6667C17.0667 24.0003 17.3334 23.7337 17.3334 23.3337C17.3334 22.9337 17.0667 22.667 16.6667 22.667ZM10.0001 17.3337H8.66675C8.26675 17.3337 8.00008 17.6003 8.00008 18.0003C8.00008 18.4003 8.26675 18.667 8.66675 18.667H10.0001C10.4001 18.667 10.6667 18.4003 10.6667 18.0003C10.6667 17.6003 10.4001 17.3337 10.0001 17.3337ZM16.6667 17.3337H15.3334C14.9334 17.3337 14.6667 17.6003 14.6667 18.0003C14.6667 18.4003 14.9334 18.667 15.3334 18.667H16.6667C17.0667 18.667 17.3334 18.4003 17.3334 18.0003C17.3334 17.6003 17.0667 17.3337 16.6667 17.3337ZM10.0001 22.667H8.66675C8.26675 22.667 8.00008 22.9337 8.00008 23.3337C8.00008 23.7337 8.26675 24.0003 8.66675 24.0003H10.0001C10.4001 24.0003 10.6667 23.7337 10.6667 23.3337C10.6667 22.9337 10.4001 22.667 10.0001 22.667ZM18.0001 10.0003H16.6667V8.66699C16.6667 8.26699 16.4001 8.00033 16.0001 8.00033C15.6001 8.00033 15.3334 8.26699 15.3334 8.66699V10.0003H14.0001C13.6001 10.0003 13.3334 10.267 13.3334 10.667C13.3334 11.067 13.6001 11.3337 14.0001 11.3337H15.3334V12.667C15.3334 13.067 15.6001 13.3337 16.0001 13.3337C16.4001 13.3337 16.6667 13.067 16.6667 12.667V11.3337H18.0001C18.4001 11.3337 18.6667 11.067 18.6667 10.667C18.6667 10.267 18.4001 10.0003 18.0001 10.0003ZM28.6667 9.33366H24.0001V3.33366C24.0001 2.93366 23.7334 2.66699 23.3334 2.66699H8.66675C8.26675 2.66699 8.00008 2.93366 8.00008 3.33366V9.33366H3.33341C2.93341 9.33366 2.66675 9.60033 2.66675 10.0003V28.667C2.66675 29.067 2.93341 29.3337 3.33341 29.3337H28.6667C29.0667 29.3337 29.3334 29.067 29.3334 28.667V10.0003C29.3334 9.60033 29.0667 9.33366 28.6667 9.33366ZM28.0001 28.0003H4.00008V10.667H8.66675C9.06675 10.667 9.33341 10.4003 9.33341 10.0003V4.00033H22.6667V10.0003C22.6667 10.4003 22.9334 10.667 23.3334 10.667H28.0001V28.0003ZM23.3334 22.667H22.0001C21.6001 22.667 21.3334 22.9337 21.3334 23.3337C21.3334 23.7337 21.6001 24.0003 22.0001 24.0003H23.3334C23.7334 24.0003 24.0001 23.7337 24.0001 23.3337C24.0001 22.9337 23.7334 22.667 23.3334 22.667ZM22.0001 17.3337C21.6001 17.3337 21.3334 17.6003 21.3334 18.0003C21.3334 18.4003 21.6001 18.667 22.0001 18.667H23.3334C23.7334 18.667 24.0001 18.4003 24.0001 18.0003C24.0001 17.6003 23.7334 17.3337 23.3334 17.3337H22.0001Z" fill="#1E0A52"/>
</svg>
