<svg width="22" height="22" viewBox="0 0 22 22" fill="none" xmlns="http://www.w3.org/2000/svg">
<g clip-path="url(#clip0_221_868)">
<path d="M11.0001 2.42871C13.329 2.42871 13.6196 2.43728 14.5333 2.48014C15.4461 2.523 16.0676 2.66614 16.6144 2.87871C17.1801 3.09643 17.6567 3.39128 18.1333 3.867C18.5691 4.29548 18.9064 4.81379 19.1216 5.38585C19.3333 5.93185 19.4773 6.55414 19.5201 7.467C19.5604 8.38071 19.5716 8.67128 19.5716 11.0001C19.5716 13.329 19.563 13.6196 19.5201 14.5333C19.4773 15.4461 19.3333 16.0676 19.1216 16.6144C18.907 17.1868 18.5697 17.7052 18.1333 18.1333C17.7047 18.569 17.1864 18.9062 16.6144 19.1216C16.0684 19.3333 15.4461 19.4773 14.5333 19.5201C13.6196 19.5604 13.329 19.5716 11.0001 19.5716C8.67128 19.5716 8.38071 19.563 7.467 19.5201C6.55414 19.4773 5.93271 19.3333 5.38585 19.1216C4.81356 18.9068 4.29516 18.5695 3.867 18.1333C3.43106 17.7049 3.09379 17.1865 2.87871 16.6144C2.66614 16.0684 2.523 15.4461 2.48014 14.5333C2.43985 13.6196 2.42871 13.329 2.42871 11.0001C2.42871 8.67128 2.43728 8.38071 2.48014 7.467C2.523 6.55328 2.66614 5.93271 2.87871 5.38585C3.0932 4.81344 3.43054 4.29499 3.867 3.867C4.29529 3.43091 4.81365 3.09362 5.38585 2.87871C5.93271 2.66614 6.55328 2.523 7.467 2.48014C8.38071 2.43985 8.67128 2.42871 11.0001 2.42871ZM11.0001 6.71442C9.8635 6.71442 8.77341 7.16595 7.96968 7.96968C7.16595 8.77341 6.71442 9.8635 6.71442 11.0001C6.71442 12.1368 7.16595 13.2269 7.96968 14.0306C8.77341 14.8343 9.8635 15.2859 11.0001 15.2859C12.1368 15.2859 13.2269 14.8343 14.0306 14.0306C14.8343 13.2269 15.2859 12.1368 15.2859 11.0001C15.2859 9.8635 14.8343 8.77341 14.0306 7.96968C13.2269 7.16595 12.1368 6.71442 11.0001 6.71442V6.71442ZM16.5716 6.50014C16.5716 6.21598 16.4587 5.94346 16.2578 5.74252C16.0568 5.54159 15.7843 5.42871 15.5001 5.42871C15.216 5.42871 14.9435 5.54159 14.7425 5.74252C14.5416 5.94346 14.4287 6.21598 14.4287 6.50014C14.4287 6.7843 14.5416 7.05682 14.7425 7.25775C14.9435 7.45869 15.216 7.57157 15.5001 7.57157C15.7843 7.57157 16.0568 7.45869 16.2578 7.25775C16.4587 7.05682 16.5716 6.7843 16.5716 6.50014ZM11.0001 8.42871C11.6821 8.42871 12.3362 8.69963 12.8184 9.18186C13.3007 9.6641 13.5716 10.3182 13.5716 11.0001C13.5716 11.6821 13.3007 12.3362 12.8184 12.8184C12.3362 13.3007 11.6821 13.5716 11.0001 13.5716C10.3182 13.5716 9.6641 13.3007 9.18186 12.8184C8.69963 12.3362 8.42871 11.6821 8.42871 11.0001C8.42871 10.3182 8.69963 9.6641 9.18186 9.18186C9.6641 8.69963 10.3182 8.42871 11.0001 8.42871V8.42871Z" fill="white"/>
</g>
<defs>
<clipPath id="clip0_221_868">
<rect width="20.5714" height="20.5714" fill="white" transform="translate(0.714355 0.714355)"/>
</clipPath>
</defs>
</svg>
