<svg viewBox="0 0 32 32" fill="none" xmlns="http://www.w3.org/2000/svg">
<path d="M29.2807 13.04C29.2797 7.34915 24.6487 2.71907 18.9575 2.71875C14.6772 2.71907 10.8621 5.36099 9.33315 9.32707C5.46883 10.8199 2.71907 14.5722 2.71875 18.9571C2.71875 24.6493 7.34915 29.28 13.0407 29.28C17.3219 29.28 21.1376 26.6375 22.6669 22.6707C26.5309 21.177 29.2803 17.4247 29.2807 13.04ZM18.9575 21.7632C16.2711 21.7629 13.7911 20.5194 12.1648 18.5031L14.8468 17.0675L9.26851 14.8995L7.97859 20.7434L10.7293 19.2711C12.6474 21.7971 15.674 23.3629 18.9572 23.3632C19.5328 23.3632 20.0967 23.3136 20.6467 23.2224C19.1242 25.9379 16.2355 27.68 13.0403 27.68C8.23107 27.68 4.31843 23.7667 4.31843 18.9571C4.31907 14.1479 8.23139 10.2356 13.04 10.2356C15.7344 10.2356 18.1946 11.4627 19.8154 13.4634L17.0912 14.9213L22.6695 17.0893L23.9594 11.2455L21.2487 12.6964C19.3363 10.1856 16.3351 8.63555 13.04 8.63555C12.4653 8.63555 11.9018 8.68515 11.3524 8.77571C12.8743 6.06083 15.7623 4.31875 18.9572 4.31875C23.7668 4.31907 27.6797 8.23139 27.6807 13.04C27.68 17.8496 23.7668 21.7626 18.9575 21.7632Z" fill="currentColor"/>
</svg>
