<svg width="22" height="22" viewBox="0 0 22 22" fill="none" xmlns="http://www.w3.org/2000/svg">
<g clip-path="url(#clip0_221_870)">
<path d="M16.8145 19.4187H5.29935C3.77892 19.4187 2.54199 18.1844 2.54199 16.667V5.18085C2.54199 3.66349 3.77892 2.4292 5.29935 2.4292H16.8145C18.3345 2.4292 19.5714 3.66349 19.5714 5.18085V16.6674C19.5714 18.1848 18.3345 19.4187 16.8145 19.4187ZM8.29628 16.4745H8.29979V9.14612H6.01979V16.4745H8.29584H8.29628ZM7.15826 8.14524C7.33161 8.14547 7.5033 8.1115 7.6635 8.04527C7.8237 7.97904 7.96926 7.88185 8.09184 7.75927C8.21442 7.63669 8.31161 7.49113 8.37784 7.33093C8.44407 7.17073 8.47805 6.99904 8.47782 6.82568C8.47712 6.47593 8.33787 6.1407 8.09056 5.89338C7.84324 5.64607 7.50801 5.50682 7.15826 5.50612C6.80832 5.50624 6.47275 5.6453 6.22531 5.89274C5.97787 6.14018 5.83881 6.47575 5.8387 6.82568C5.83881 7.17562 5.97787 7.51118 6.22531 7.75862C6.47275 8.00606 6.80832 8.14513 7.15826 8.14524ZM16.8277 16.4749V12.4573C16.8277 10.4833 16.3991 8.96458 14.0958 8.96458C12.9886 8.96458 12.2453 9.57118 11.9398 10.147H11.909V9.14612H9.72573V16.4745H12.0018V12.8481C12.0018 11.8916 12.1833 10.9663 13.3688 10.9663C14.5345 10.9663 14.5517 12.06 14.5517 12.9096V16.4745H16.8277V16.4749Z" fill="white"/>
</g>
<defs>
<clipPath id="clip0_221_870">
<rect width="17.1429" height="17.1429" fill="white" transform="translate(2.42871 2.4292)"/>
</clipPath>
</defs>
</svg>
