<svg viewBox="0 0 16 16" fill="none" xmlns="http://www.w3.org/2000/svg">
<path d="M7.99984 1.33301C6.58535 1.33301 5.2288 1.89491 4.2286 2.89511C3.22841 3.8953 2.6665 5.25185 2.6665 6.66634C2.6665 10.2663 7.3665 14.333 7.5665 14.5063C7.68726 14.6096 7.84094 14.6664 7.99984 14.6664C8.15874 14.6664 8.31242 14.6096 8.43317 14.5063C8.6665 14.333 13.3332 10.2663 13.3332 6.66634C13.3332 5.25185 12.7713 3.8953 11.7711 2.89511C10.7709 1.89491 9.41433 1.33301 7.99984 1.33301ZM7.99984 13.0997C6.57984 11.7663 3.99984 8.89301 3.99984 6.66634C3.99984 5.60548 4.42126 4.58806 5.17141 3.83791C5.92156 3.08777 6.93897 2.66634 7.99984 2.66634C9.0607 2.66634 10.0781 3.08777 10.8283 3.83791C11.5784 4.58806 11.9998 5.60548 11.9998 6.66634C11.9998 8.89301 9.41984 11.773 7.99984 13.0997ZM7.99984 3.99967C7.47242 3.99967 6.95685 4.15607 6.51832 4.44909C6.07979 4.74211 5.73799 5.15858 5.53616 5.64585C5.33432 6.13312 5.28152 6.6693 5.38441 7.18658C5.4873 7.70386 5.74128 8.17902 6.11422 8.55196C6.48716 8.9249 6.96231 9.17887 7.4796 9.28177C7.99688 9.38466 8.53306 9.33185 9.02033 9.13002C9.5076 8.92819 9.92407 8.58639 10.2171 8.14786C10.5101 7.70933 10.6665 7.19376 10.6665 6.66634C10.6665 5.9591 10.3856 5.28082 9.88546 4.78072C9.38536 4.28063 8.70708 3.99967 7.99984 3.99967ZM7.99984 7.99967C7.73613 7.99967 7.47834 7.92148 7.25908 7.77497C7.03981 7.62846 6.86891 7.42022 6.768 7.17659C6.66708 6.93295 6.64068 6.66486 6.69212 6.40622C6.74357 6.14758 6.87056 5.91 7.05703 5.72353C7.2435 5.53706 7.48108 5.41007 7.73972 5.35863C7.99836 5.30718 8.26645 5.33358 8.51008 5.4345C8.75372 5.53542 8.96196 5.70632 9.10846 5.92558C9.25497 6.14485 9.33317 6.40263 9.33317 6.66634C9.33317 7.01996 9.19269 7.3591 8.94265 7.60915C8.6926 7.8592 8.35346 7.99967 7.99984 7.99967Z" fill="currentColor"/>
</svg>
