<svg width="32" height="32" viewBox="0 0 32 32" fill="none" xmlns="http://www.w3.org/2000/svg">
<g clip-path="url(#clip0_842_5590)">
<path d="M32 6.77987C32.0048 6.73666 32.0048 6.69307 32 6.64987C32.0036 6.62332 32.0036 6.59641 32 6.56987C31.9793 6.54408 31.9558 6.52061 31.93 6.49987C31.8968 6.47407 31.8597 6.45381 31.82 6.43987L16.17 0.609865C16.0601 0.570149 15.9399 0.570149 15.83 0.609865L0.32 6.32987C0.280339 6.34381 0.243193 6.36407 0.21 6.38987L0.1 6.48987C0.0964285 6.51641 0.0964285 6.54332 0.1 6.56987C0.0952114 6.61307 0.0952114 6.65666 0.1 6.69987H0V25.1399C0.00114291 25.2372 0.0312375 25.3319 0.0864475 25.4121C0.141657 25.4922 0.219482 25.5541 0.31 25.5899L15.83 31.3899C15.9329 31.43 16.0471 31.43 16.15 31.3899L31.67 25.5899C31.7605 25.5541 31.8383 25.4922 31.8936 25.4121C31.9488 25.3319 31.9789 25.2372 31.98 25.1399V6.78987L32 6.77987ZM15.52 30.2399L1 24.7999V7.48987L2.74 8.13987L4.74 8.87987V15.5499C4.7389 15.6313 4.75851 15.7116 4.797 15.7833C4.83548 15.855 4.89158 15.9158 4.96 15.9599C5.03108 15.9967 5.10995 16.0159 5.19 16.0159C5.27005 16.0159 5.34892 15.9967 5.42 15.9599L7.67 15.0099L10 17.8899C10.0463 17.9426 10.1032 17.9849 10.1669 18.0142C10.2307 18.0435 10.2999 18.0591 10.37 18.0599C10.4263 18.0694 10.4837 18.0694 10.54 18.0599C10.6332 18.0269 10.7139 17.966 10.7712 17.8855C10.8285 17.8049 10.8595 17.7087 10.86 17.6099V11.2099L15.52 12.9999V30.2399ZM9.91 10.8399V16.2599L8.11 14.1499C8.0627 14.0998 8.00518 14.0605 7.94134 14.0346C7.87749 14.0087 7.80882 13.9969 7.74 13.9999C7.67701 13.9906 7.61299 13.9906 7.55 13.9999L5.64 14.7999V9.23987L9.91 10.8399ZM6.59 8.55987L10.24 7.29987L13.75 8.70987L10.39 9.99987L6.59 8.55987ZM16 12.0999L11.76 10.4999L15.25 9.17987C15.3416 9.14457 15.4208 9.08307 15.4778 9.00305C15.5347 8.92302 15.5667 8.82801 15.57 8.72987C15.5702 8.63223 15.5407 8.53685 15.4853 8.45645C15.4299 8.37604 15.3513 8.31444 15.26 8.27987L10.43 6.33987C10.321 6.2954 10.199 6.2954 10.09 6.33987L5.17 7.99987L1.88 6.78987L16 1.57987L30.13 6.78987L16 12.0999ZM31 24.7999L16.48 30.2399V12.9999L28.38 8.52987L31.03 7.52987L31 24.7999Z" fill="#1E0A52"/>
<path d="M26.5799 13.0002C26.533 12.88 26.4405 12.7831 26.3225 12.7307C26.2046 12.6783 26.0707 12.6745 25.95 12.7202L21.2299 14.4502C21.1103 14.4953 21.0129 14.5854 20.9588 14.7012C20.9046 14.8171 20.8978 14.9495 20.94 15.0702C20.9729 15.1634 21.0338 15.2442 21.1143 15.3014C21.1949 15.3587 21.2911 15.3897 21.3899 15.3902C21.4461 15.4006 21.5038 15.4006 21.5599 15.3902L26.29 13.6602C26.3531 13.6371 26.411 13.6013 26.4601 13.5552C26.5091 13.5091 26.5484 13.4536 26.5755 13.392C26.6025 13.3304 26.6169 13.2639 26.6177 13.1966C26.6184 13.1293 26.6056 13.0625 26.5799 13.0002ZM24.4699 19.9402L24.3799 19.8802C24.361 19.8582 24.337 19.841 24.3099 19.8302C24.2537 19.8211 24.1962 19.8211 24.1399 19.8302H24.01H23.95H23.8999L23.79 19.9002L22.3899 21.4002C22.3013 21.4932 22.2519 21.6168 22.2519 21.7452C22.2519 21.8737 22.3013 21.9973 22.3899 22.0902C22.4818 22.1702 22.5983 22.2161 22.7199 22.2202C22.7879 22.2206 22.8551 22.2065 22.9171 22.1789C22.9792 22.1513 23.0347 22.1109 23.0799 22.0602L23.6399 21.4602V24.0102C23.6386 24.0737 23.6501 24.1367 23.6737 24.1955C23.6973 24.2544 23.7327 24.3078 23.7775 24.3527C23.8223 24.3975 23.8758 24.4328 23.9347 24.4565C23.9935 24.4801 24.0565 24.4916 24.12 24.4902C24.1838 24.4916 24.2473 24.4801 24.3067 24.4566C24.3661 24.4331 24.4202 24.3979 24.4658 24.3532C24.5115 24.3085 24.5477 24.2552 24.5725 24.1963C24.5972 24.1374 24.61 24.0741 24.61 24.0102V21.5002L25.17 22.1002C25.2145 22.145 25.2675 22.1805 25.3259 22.2047C25.3842 22.229 25.4468 22.2414 25.51 22.2414C25.5731 22.2414 25.6357 22.229 25.694 22.2047C25.7524 22.1805 25.8054 22.145 25.85 22.1002C25.9409 22.0085 25.992 21.8845 25.992 21.7552C25.992 21.626 25.9409 21.502 25.85 21.4102L24.4699 19.9402ZM28.1 18.8202C28.0067 18.8259 27.9167 18.857 27.84 18.9102L27.76 18.9702L26.36 20.4702C26.269 20.562 26.2179 20.686 26.2179 20.8152C26.2179 20.9445 26.269 21.0685 26.36 21.1602C26.4518 21.2402 26.5683 21.2861 26.69 21.2902C26.7579 21.2906 26.8251 21.2765 26.8871 21.2489C26.9492 21.2213 27.0047 21.1809 27.0499 21.1302L27.61 20.5302V23.0802C27.6086 23.1437 27.6201 23.2067 27.6437 23.2655C27.6673 23.3244 27.7027 23.3778 27.7475 23.4227C27.7923 23.4675 27.8458 23.5028 27.9047 23.5265C27.9635 23.5501 28.0265 23.5616 28.09 23.5602C28.1538 23.5616 28.2173 23.5501 28.2767 23.5266C28.3361 23.5031 28.3902 23.4679 28.4358 23.4232C28.4815 23.3785 28.5177 23.3252 28.5425 23.2663C28.5672 23.2074 28.58 23.1441 28.5799 23.0802V20.5402L29.1399 21.1402C29.1845 21.185 29.2375 21.2205 29.2959 21.2447C29.3542 21.269 29.4168 21.2814 29.4799 21.2814C29.5431 21.2814 29.6057 21.269 29.664 21.2447C29.7224 21.2205 29.7754 21.185 29.82 21.1402C29.9109 21.0485 29.962 20.9245 29.962 20.7952C29.962 20.666 29.9109 20.542 29.82 20.4502L28.4599 19.0002L28.3799 18.9402C28.301 18.8727 28.2033 18.8308 28.1 18.8202Z" fill="#1E0A52"/>
</g>
<defs>
<clipPath id="clip0_842_5590">
<rect width="32" height="32" fill="white"/>
</clipPath>
</defs>
</svg>
