<svg id="Layer_1" data-name="Layer 1" xmlns="http://www.w3.org/2000/svg" xmlns:xlink="http://www.w3.org/1999/xlink" viewBox="0 0 155.02 42.03"><defs><style>.cls-1{fill:none;}.cls-2,.cls-3{fill-rule:evenodd;}.cls-2{fill:url(#linear-gradient);}.cls-3{fill:url(#linear-gradient-2);}.cls-4{fill:url(#linear-gradient-3);}.cls-5{clip-path:url(#clip-path);}.cls-6{fill:url(#linear-gradient-4);}.cls-7{clip-path:url(#clip-path-2);}.cls-8{clip-path:url(#clip-path-3);}.cls-9{clip-path:url(#clip-path-4);}.cls-10{clip-path:url(#clip-path-5);}</style><linearGradient id="linear-gradient" x1="15.68" y1="31.72" x2="42.5" y2="14.24" gradientUnits="userSpaceOnUse"><stop offset="0" stop-color="#ffc131"/><stop offset="0.78" stop-color="#ffe433"/></linearGradient><linearGradient id="linear-gradient-2" x1="26.92" y1="31.45" x2="50.73" y2="15.69" gradientUnits="userSpaceOnUse"><stop offset="0" stop-color="#5f1db8"/><stop offset="1" stop-color="#aa79fd"/></linearGradient><linearGradient id="linear-gradient-3" x1="20.65" y1="15.52" x2="28.36" y2="10.51" xlink:href="#linear-gradient"/><clipPath id="clip-path" transform="translate(-14.49 -4.48)"><path class="cls-1" d="M73,14.42a2.79,2.79,0,0,0-2.11.77,3,3,0,0,0-.73,2.14V33.67a3,3,0,0,0,.73,2.14,2.79,2.79,0,0,0,2.11.77,2.7,2.7,0,0,0,2.06-.77,3,3,0,0,0,.72-2.14V17.33a3,3,0,0,0-.74-2.14A2.68,2.68,0,0,0,73,14.42Z"/></clipPath><linearGradient id="linear-gradient-4" x1="52.02" y1="21.02" x2="155.02" y2="21.02" gradientUnits="userSpaceOnUse"><stop offset="0.41" stop-color="#aa79fd"/><stop offset="1" stop-color="#5f1db8"/></linearGradient><clipPath id="clip-path-2" transform="translate(-14.49 -4.48)"><path class="cls-1" d="M88.62,14.73h-6a3,3,0,0,0-2.18.75,2.94,2.94,0,0,0-.75,2.18V33.34a2.63,2.63,0,0,0,2.93,2.93h6a16.07,16.07,0,0,0,5-.72,9.74,9.74,0,0,0,3.68-2.11,9,9,0,0,0,2.28-3.37,12.51,12.51,0,0,0,.78-4.59c0-3.42-1-6.07-3.07-7.94S92.37,14.73,88.62,14.73Zm5.58,13.5A4.73,4.73,0,0,1,93,30.16a5,5,0,0,1-2,1.16,8.56,8.56,0,0,1-2.79.4H85.35V19.28h2.94A6.52,6.52,0,0,1,93,20.81a6.28,6.28,0,0,1,1.56,4.67A9,9,0,0,1,94.2,28.23Z"/></clipPath><clipPath id="clip-path-3" transform="translate(-14.49 -4.48)"><path class="cls-1" d="M119.82,30.16a4.8,4.8,0,0,0-1.68-1.91,4.09,4.09,0,0,0-1-.46,7.05,7.05,0,0,0,1.17-.43,5.85,5.85,0,0,0,2.6-2.3,6.91,6.91,0,0,0,.89-3.58,6.31,6.31,0,0,0-2-5,8.07,8.07,0,0,0-5.62-1.79h-7.52a2.89,2.89,0,0,0-2.12.73,2.86,2.86,0,0,0-.75,2.14V33.7a2.91,2.91,0,0,0,.73,2.11,2.79,2.79,0,0,0,2.11.77,2.68,2.68,0,0,0,2.06-.77,3,3,0,0,0,.72-2.11V28.23h1.68a3.14,3.14,0,0,1,1.3.26,2.09,2.09,0,0,1,.93.91l2.78,5.16a4.33,4.33,0,0,0,1.33,1.53,3.49,3.49,0,0,0,1.91.49,2.69,2.69,0,0,0,1.85-.55,2,2,0,0,0,.64-1.38,3.14,3.14,0,0,0-.47-1.74Zm-6.72-5.9h-3.73V19h3.73a4,4,0,0,1,2.46.64,2.34,2.34,0,0,1,.84,2,2.31,2.31,0,0,1-.84,2A4,4,0,0,1,113.1,24.26Z"/></clipPath><clipPath id="clip-path-4" transform="translate(-14.49 -4.48)"><path class="cls-1" d="M145.83,14.42a3,3,0,0,0-1.67.43A4,4,0,0,0,143,16.26l-6,10.85-6-10.85a3.85,3.85,0,0,0-1.15-1.41,3.07,3.07,0,0,0-1.73-.43,2.67,2.67,0,0,0-1.95.69,2.56,2.56,0,0,0-.71,1.91V34a2.64,2.64,0,0,0,.66,1.91,2.93,2.93,0,0,0,3.78,0,2.72,2.72,0,0,0,.64-1.91V24.71L134.7,32a3,3,0,0,0,.91,1,2.15,2.15,0,0,0,1.26.34,2.1,2.1,0,0,0,1.27-.34,3,3,0,0,0,.87-1l4.31-7.44V34a2.64,2.64,0,0,0,.66,1.91,2.92,2.92,0,0,0,3.77,0,2.67,2.67,0,0,0,.64-1.91V17a2.65,2.65,0,0,0-.65-1.91A2.53,2.53,0,0,0,145.83,14.42Z"/></clipPath><clipPath id="clip-path-5" transform="translate(-14.49 -4.48)"><path class="cls-1" d="M168,25.84a8.68,8.68,0,0,0-4.43-2.13L160.07,23a4.75,4.75,0,0,1-2-.72,1.34,1.34,0,0,1-.55-1.08A1.75,1.75,0,0,1,158,20a2.74,2.74,0,0,1,1.21-.76,6,6,0,0,1,1.93-.27,11.48,11.48,0,0,1,2.14.21,9.85,9.85,0,0,1,2,.61,2.63,2.63,0,0,0,1.64.23,2,2,0,0,0,1.1-.69,2.38,2.38,0,0,0,.49-1.19,2.33,2.33,0,0,0-.25-1.33,2.19,2.19,0,0,0-1-1,9.64,9.64,0,0,0-2.83-1.07,14.34,14.34,0,0,0-3.22-.37,12.35,12.35,0,0,0-3.7.52,9.09,9.09,0,0,0-2.87,1.44,6.56,6.56,0,0,0-1.87,2.2,6.11,6.11,0,0,0-.67,2.9,5.5,5.5,0,0,0,1.42,3.93,8.28,8.28,0,0,0,4.39,2.15l3.57.76a5.29,5.29,0,0,1,2,.74,1.34,1.34,0,0,1,.57,1.13,1.62,1.62,0,0,1-.81,1.33,5.08,5.08,0,0,1-2.8.56,12.69,12.69,0,0,1-2.78-.32,11.94,11.94,0,0,1-2.63-.87,2.34,2.34,0,0,0-1.58-.2,2.16,2.16,0,0,0-1.14.77,2.63,2.63,0,0,0-.51,1.28,2.26,2.26,0,0,0,.24,1.39,2.35,2.35,0,0,0,1.16,1.07,13.07,13.07,0,0,0,2.15.8,21.76,21.76,0,0,0,2.53.52,18.8,18.8,0,0,0,2.56.18,13.52,13.52,0,0,0,3.75-.49A8.76,8.76,0,0,0,167,34.73a6.56,6.56,0,0,0,1.85-2.2,6.23,6.23,0,0,0,.64-2.86A5.19,5.19,0,0,0,168,25.84Z"/></clipPath></defs><g id="_5" data-name="5"><polygon class="cls-2" points="28.88 18.22 22.25 26.69 31.03 26.69 15.68 42.03 21.48 30.74 12.27 30.74 20.56 18.22 28.88 18.22"/><path class="cls-3" d="M50.6,31.57A6.4,6.4,0,0,0,51,18.79L49.3,18.7,49.15,17a9.52,9.52,0,0,0-18.69-1.53l-.51,2L28,16.87A7.7,7.7,0,0,0,27,16.64a7.51,7.51,0,0,0-8.6,7.43A7.51,7.51,0,0,0,25,31.52L23,35.07a11.24,11.24,0,0,1-5.13-3A11.38,11.38,0,0,1,27.3,12.77a13.4,13.4,0,0,1,25.49,2.37A10.27,10.27,0,0,1,50.6,35.45H45.12L49,31.57Z" transform="translate(-14.49 -4.48)"/><circle class="cls-4" cx="24.74" cy="12.86" r="4.14"/></g><g class="cls-5"><rect class="cls-6" x="52.02" y="6.52" width="103" height="29"/></g><g class="cls-7"><rect class="cls-6" x="52.02" y="6.52" width="103" height="29"/></g><g class="cls-8"><rect class="cls-6" x="52.02" y="6.52" width="103" height="29"/></g><g class="cls-9"><rect class="cls-6" x="52.02" y="6.52" width="103" height="29"/></g><g class="cls-10"><rect class="cls-6" x="52.02" y="6.52" width="103" height="29"/></g></svg>