<svg viewBox="0 0 32 32" fill="none" xmlns="http://www.w3.org/2000/svg">
<path d="M4.66691 27.3333C5.77358 28.4399 7.56025 28.4399 8.66691 27.3333L26.0002 9.99992C27.1069 8.89325 27.1069 7.10659 26.0002 5.99992C24.8936 4.89326 23.1069 4.89326 22.0002 5.99992L4.66691 23.3333C3.56025 24.4399 3.56025 26.2266 4.66691 27.3333Z" stroke="currentColor" stroke-width="2" stroke-linecap="round" stroke-linejoin="round"/>
<path d="M24.0127 11.9866L20.0127 7.98657" stroke="currentColor" stroke-width="2" stroke-linecap="round" stroke-linejoin="round"/>
<path d="M11.333 3.25341L13.333 2.66675L12.7463 4.66675L13.333 6.66675L11.333 6.08008L9.33301 6.66675L9.91967 4.66675L9.33301 2.66675L11.333 3.25341Z" stroke="currentColor" stroke-width="1.33333" stroke-linecap="round" stroke-linejoin="round"/>
<path d="M6 11.2534L8 10.6667L7.41333 12.6667L8 14.6667L6 14.0801L4 14.6667L4.58667 12.6667L4 10.6667L6 11.2534Z" stroke="currentColor" stroke-width="1.33333" stroke-linecap="round" stroke-linejoin="round"/>
<path d="M26 17.9199L28 17.3333L27.4133 19.3333L28 21.3333L26 20.7466L24 21.3333L24.5867 19.3333L24 17.3333L26 17.9199Z" stroke="currentColor" stroke-width="1.33333" stroke-linecap="round" stroke-linejoin="round"/>
</svg>
