<svg width="16" height="16" viewBox="0 0 16 16" fill="none" xmlns="http://www.w3.org/2000/svg">
<path d="M14.6666 7.66683V10.3335C14.6666 12.6668 13.3333 13.6668 11.3333 13.6668H4.66659C2.66659 13.6668 1.33325 12.6668 1.33325 10.3335V5.66683C1.33325 3.3335 2.66659 2.3335 4.66659 2.3335H7.99992" stroke="white" stroke-width="1.5" stroke-miterlimit="10" stroke-linecap="round" stroke-linejoin="round"/>
<path d="M4.66675 6L6.75342 7.66667C7.44008 8.21333 8.56675 8.21333 9.25342 7.66667" stroke="white" stroke-width="1.5" stroke-miterlimit="10" stroke-linecap="round" stroke-linejoin="round"/>
<path d="M12.9866 1.87996L13.1733 2.25996C13.2666 2.44662 13.5 2.61996 13.7066 2.65996L13.96 2.69996C14.72 2.82662 14.9 3.38663 14.3533 3.93996L14.12 4.17329C13.9666 4.33329 13.88 4.63996 13.9267 4.85329L13.96 4.99329C14.1666 5.91329 13.68 6.26662 12.88 5.78662L12.7066 5.68662C12.5 5.56662 12.1666 5.56662 11.96 5.68662L11.7866 5.78662C10.98 6.27328 10.4933 5.91329 10.7066 4.99329L10.74 4.85329C10.7866 4.63996 10.7 4.33329 10.5466 4.17329L10.3133 3.93996C9.76664 3.38663 9.94664 2.82662 10.7066 2.69996L10.96 2.65996C11.16 2.62663 11.4 2.44662 11.4933 2.25996L11.68 1.87996C12.04 1.15329 12.6266 1.15329 12.9866 1.87996Z" stroke="white" stroke-width="1.5" stroke-linecap="round" stroke-linejoin="round"/>
</svg>
