<svg width="32" height="32" viewBox="0 0 32 32" fill="none" xmlns="http://www.w3.org/2000/svg">
<g clip-path="url(#clip0_842_5575)">
<path d="M12 32H8C7.82319 32 7.65362 31.9298 7.5286 31.8047C7.40357 31.6797 7.33333 31.5101 7.33333 31.3333V29.5433C7.0658 29.4506 6.80362 29.3431 6.548 29.2213L5.28467 30.4847C5.15965 30.6096 4.99011 30.6799 4.81333 30.6799C4.63656 30.6799 4.46702 30.6096 4.342 30.4847L1.51533 27.658C1.39035 27.533 1.32014 27.3634 1.32014 27.1867C1.32014 27.0099 1.39035 26.8404 1.51533 26.7153L2.782 25.4527C2.65927 25.1967 2.55044 24.9343 2.456 24.6667H0.666667C0.489856 24.6667 0.320286 24.5964 0.195262 24.4714C0.0702379 24.3464 0 24.1768 0 24V20C0 19.8232 0.0702379 19.6536 0.195262 19.5286C0.320286 19.4036 0.489856 19.3333 0.666667 19.3333H2.45733C2.55109 19.0667 2.65902 18.8052 2.78067 18.55L1.514 17.2833C1.38902 17.1583 1.31881 16.9888 1.31881 16.812C1.31881 16.6352 1.38902 16.4657 1.514 16.3407L4.34067 13.514C4.46566 13.389 4.6352 13.3187 4.812 13.3187C4.8997 13.3187 4.98653 13.336 5.06753 13.3696C5.14852 13.4033 5.22208 13.4526 5.284 13.5147L6.54533 14.7813C6.80145 14.6579 7.06457 14.5495 7.33333 14.4567V12.6667C7.33333 12.4899 7.40357 12.3203 7.5286 12.1953C7.65362 12.0702 7.82319 12 8 12H12C12.1768 12 12.3464 12.0702 12.4714 12.1953C12.5964 12.3203 12.6667 12.4899 12.6667 12.6667V14.458C12.933 14.5515 13.1938 14.6599 13.448 14.7827L14.7147 13.516C14.8397 13.391 15.0092 13.3208 15.186 13.3208C15.3628 13.3208 15.5323 13.391 15.6573 13.516L18.484 16.3427C18.609 16.4677 18.6792 16.6372 18.6792 16.814C18.6792 16.9908 18.609 17.1603 18.484 17.2853L17.2173 18.552C17.34 18.8062 17.4484 19.0671 17.542 19.3333H19.3333C19.5101 19.3333 19.6797 19.4036 19.8047 19.5286C19.9298 19.6536 20 19.8232 20 20V24C20 24.1768 19.9298 24.3464 19.8047 24.4714C19.6797 24.5964 19.5101 24.6667 19.3333 24.6667H17.5433C17.45 24.9349 17.3409 25.1973 17.2167 25.4527L18.4833 26.714C18.5454 26.7759 18.5947 26.8495 18.6283 26.9305C18.6619 27.0115 18.6792 27.0983 18.6792 27.186C18.6792 27.2737 18.6619 27.3605 18.6283 27.4415C18.5947 27.5225 18.5454 27.5961 18.4833 27.658L15.6567 30.4847C15.5316 30.6096 15.3621 30.6799 15.1853 30.6799C15.0086 30.6799 14.839 30.6096 14.714 30.4847L13.4473 29.218C13.1932 29.3401 12.9326 29.4482 12.6667 29.542V31.3333C12.6667 31.5101 12.5964 31.6797 12.4714 31.8047C12.3464 31.9298 12.1768 32 12 32ZM8.66667 30.6667H11.3333V29.0533C11.3332 28.9076 11.3809 28.7658 11.4691 28.6498C11.5572 28.5337 11.6809 28.4497 11.8213 28.4107C12.3191 28.2715 12.7988 28.0744 13.2507 27.8233C13.3488 27.7695 13.4588 27.7409 13.5707 27.74C13.6133 27.72 13.642 27.74 13.6767 27.7487C13.8177 27.7699 13.9484 27.8352 14.05 27.9353L15.1833 29.0687L17.0667 27.1873L15.9273 26.054C15.8634 25.9903 15.813 25.9144 15.7793 25.8307C15.747 25.7515 15.7305 25.6668 15.7307 25.5813V25.526C15.7385 25.4286 15.7671 25.334 15.8147 25.2487C16.0707 24.8019 16.2691 24.3246 16.4053 23.828C16.4434 23.6855 16.5277 23.5596 16.6449 23.4701C16.7622 23.3806 16.9058 23.3325 17.0533 23.3333H18.6667V20.6667H17.0533C16.9075 20.6667 16.7657 20.6189 16.6496 20.5307C16.5335 20.4424 16.4496 20.3185 16.4107 20.178C16.273 19.6813 16.0746 19.2035 15.82 18.7553C15.7481 18.6285 15.7198 18.4815 15.7395 18.337C15.7591 18.1925 15.8256 18.0584 15.9287 17.9553L17.0707 16.8133L15.1867 14.9333L14.0447 16.0747C13.9416 16.1779 13.8076 16.2445 13.6631 16.2642C13.5186 16.284 13.3716 16.2558 13.2447 16.184C12.7966 15.9291 12.3188 15.7304 11.822 15.5927C11.6809 15.5536 11.5566 15.4691 11.4683 15.3524C11.38 15.2356 11.3326 15.0931 11.3333 14.9467V13.3333H8.66667V14.9467C8.66663 15.0927 8.61867 15.2346 8.53015 15.3507C8.44163 15.4668 8.31744 15.5506 8.17667 15.5893C7.68005 15.7257 7.2027 15.9244 6.756 16.1807C6.72887 16.1951 6.70106 16.2082 6.67267 16.22C6.59518 16.2506 6.51265 16.2665 6.42933 16.2667C6.38333 16.262 6.358 16.2667 6.32333 16.2587C6.18176 16.237 6.05064 16.1712 5.94867 16.0707L4.81533 14.9307L2.92933 16.8133L4.06267 17.9467C4.1877 18.0717 4.25796 18.2412 4.258 18.418V18.4713C4.24997 18.5671 4.22228 18.6601 4.17667 18.7447C3.92537 19.1961 3.72823 19.6757 3.58933 20.1733C3.55126 20.3147 3.46769 20.4397 3.35154 20.5288C3.23538 20.618 3.0931 20.6664 2.94667 20.6667H1.33333V23.3333H2.94667C3.09275 23.3334 3.23477 23.3815 3.35088 23.4701C3.46699 23.5588 3.55077 23.6831 3.58933 23.824C3.72761 24.3234 3.92477 24.8045 4.17667 25.2573C4.24691 25.3837 4.27417 25.5295 4.25433 25.6727C4.23449 25.8159 4.16862 25.9488 4.06667 26.0513L2.93333 27.1847L4.81333 29.07L5.94667 27.9367C6.04895 27.8344 6.18172 27.7682 6.32495 27.7479C6.46817 27.7277 6.61409 27.7547 6.74067 27.8247C7.19371 28.0766 7.67509 28.2737 8.17467 28.412C8.3156 28.4503 8.44007 28.5337 8.52895 28.6496C8.61784 28.7655 8.66622 28.9073 8.66667 29.0533V30.6667Z" fill="#1E0A52"/>
<path d="M10 26C9.20888 26 8.43552 25.7654 7.77772 25.3259C7.11992 24.8864 6.60723 24.2616 6.30448 23.5307C6.00173 22.7998 5.92252 21.9956 6.07686 21.2196C6.2312 20.4437 6.61216 19.731 7.17157 19.1716C7.73098 18.6122 8.44372 18.2312 9.21964 18.0769C9.99556 17.9225 10.7998 18.0017 11.5307 18.3045C12.2616 18.6072 12.8864 19.1199 13.3259 19.7777C13.7654 20.4355 14 21.2089 14 22C13.9989 23.0605 13.5772 24.0773 12.8273 24.8273C12.0773 25.5772 11.0605 25.9989 10 26ZM10 19.3333C9.47258 19.3333 8.95701 19.4897 8.51848 19.7827C8.07995 20.0758 7.73816 20.4922 7.53632 20.9795C7.33449 21.4668 7.28168 22.003 7.38457 22.5202C7.48747 23.0375 7.74144 23.5127 8.11438 23.8856C8.48732 24.2586 8.96248 24.5125 9.47976 24.6154C9.99704 24.7183 10.5332 24.6655 11.0205 24.4637C11.5078 24.2618 11.9242 23.9201 12.2173 23.4815C12.5103 23.043 12.6667 22.5274 12.6667 22C12.6667 21.2928 12.3857 20.6145 11.8856 20.1144C11.3855 19.6143 10.7072 19.3333 10 19.3333ZM25.3333 16H22.6667C22.4899 16 22.3203 15.9298 22.1953 15.8047C22.0702 15.6797 22 15.5101 22 15.3333V14.3627C21.6265 14.2445 21.264 14.0939 20.9167 13.9127L20.2313 14.6C20.104 14.7204 19.9353 14.7876 19.76 14.7876C19.5847 14.7876 19.416 14.7204 19.2887 14.6L17.402 12.7133C17.277 12.5883 17.2068 12.4188 17.2068 12.242C17.2068 12.0652 17.277 11.8957 17.402 11.7707L18.0873 11.0847C17.9058 10.7371 17.7554 10.3741 17.638 10H16.6667C16.4899 10 16.3203 9.92976 16.1953 9.80474C16.0702 9.67971 16 9.51014 16 9.33333V6.66667C16 6.48986 16.0702 6.32029 16.1953 6.19526C16.3203 6.07024 16.4899 6 16.6667 6H17.638C17.7555 5.62655 17.9059 5.26425 18.0873 4.91733L17.4 4.23133C17.275 4.10632 17.2048 3.93678 17.2048 3.76C17.2048 3.58322 17.275 3.41369 17.4 3.28867L19.2867 1.402C19.4117 1.27697 19.5812 1.2067 19.758 1.20667C19.9348 1.2067 20.1043 1.27697 20.2293 1.402L20.9147 2.08733C21.2626 1.90595 21.6258 1.75537 22 1.63733V0.666667C22 0.489856 22.0702 0.320286 22.1953 0.195262C22.3203 0.0702379 22.4899 0 22.6667 0L25.3333 0C25.5101 0 25.6797 0.0702379 25.8047 0.195262C25.9298 0.320286 26 0.489856 26 0.666667V1.63733C26.3735 1.75548 26.736 1.90606 27.0833 2.08733L27.7687 1.4C27.896 1.27955 28.0647 1.21244 28.24 1.21244C28.4153 1.21244 28.584 1.27955 28.7113 1.4L30.598 3.28667C30.723 3.41169 30.7932 3.58122 30.7932 3.758C30.7932 3.93478 30.723 4.10431 30.598 4.22933L29.9127 4.91733C30.0941 5.26425 30.2445 5.62655 30.362 6H31.3333C31.5101 6 31.6797 6.07024 31.8047 6.19526C31.9298 6.32029 32 6.48986 32 6.66667V9.33333C32 9.51014 31.9298 9.67971 31.8047 9.80474C31.6797 9.92976 31.5101 10 31.3333 10H30.362C30.2445 10.3734 30.0941 10.7358 29.9127 11.0827L30.6 11.7687C30.725 11.8937 30.7952 12.0632 30.7952 12.24C30.7952 12.4168 30.725 12.5863 30.6 12.7113L28.7133 14.598C28.5883 14.723 28.4188 14.7933 28.242 14.7933C28.0652 14.7933 27.8957 14.723 27.7707 14.598L27.0853 13.9127C26.7374 14.0941 26.3742 14.2446 26 14.3627V15.3333C26 15.5101 25.9298 15.6797 25.8047 15.8047C25.6797 15.9298 25.5101 16 25.3333 16ZM23.3333 14.6667H24.6667V13.8533C24.6667 13.7026 24.7178 13.5564 24.8117 13.4385C24.9055 13.3206 25.0365 13.2379 25.1833 13.204C25.769 13.0681 26.328 12.8356 26.8373 12.516C26.9653 12.4353 27.1169 12.4005 27.2672 12.4173C27.4176 12.4342 27.5577 12.5016 27.6647 12.6087L28.24 13.184L29.184 12.24L28.6087 11.6647C28.5018 11.5578 28.4344 11.4178 28.4176 11.2676C28.4007 11.1174 28.4354 10.9659 28.516 10.838C28.8359 10.3287 29.0682 9.76939 29.2033 9.18333C29.2373 9.03639 29.32 8.90529 29.4381 8.81145C29.5561 8.71761 29.7025 8.66657 29.8533 8.66667H30.6667V7.33333H29.8533C29.7025 7.33343 29.5561 7.28239 29.4381 7.18855C29.32 7.09471 29.2373 6.96361 29.2033 6.81667C29.0682 6.23062 28.8359 5.67133 28.516 5.162C28.4354 5.03411 28.4007 4.88264 28.4176 4.73244C28.4344 4.58224 28.5018 4.44221 28.6087 4.33533L29.184 3.76L28.24 2.816L27.6647 3.39133C27.5577 3.49836 27.4176 3.56584 27.2672 3.58268C27.1169 3.59952 26.9653 3.56472 26.8373 3.484C26.328 3.16442 25.769 2.93191 25.1833 2.796C25.0365 2.76209 24.9055 2.67944 24.8117 2.56152C24.7178 2.4436 24.6667 2.29736 24.6667 2.14667V1.33333H23.3333V2.14667C23.3333 2.29736 23.2822 2.4436 23.1883 2.56152C23.0945 2.67944 22.9635 2.76209 22.8167 2.796C22.231 2.93191 21.672 3.16442 21.1627 3.484C21.0345 3.56523 20.8825 3.60032 20.7317 3.58347C20.5809 3.56663 20.4404 3.49885 20.3333 3.39133L19.758 2.816L18.816 3.76L19.3913 4.33533C19.4982 4.44221 19.5656 4.58224 19.5824 4.73244C19.5993 4.88264 19.5646 5.03411 19.484 5.162C19.1653 5.67155 18.9341 6.23082 18.8 6.81667C18.7659 6.96417 18.6827 7.09569 18.564 7.18959C18.4452 7.28349 18.298 7.33419 18.1467 7.33333H17.3333V8.66667H18.1467C18.2975 8.66657 18.4439 8.71761 18.5619 8.81145C18.68 8.90529 18.7627 9.03639 18.7967 9.18333C18.9318 9.76939 19.1641 10.3287 19.484 10.838C19.5646 10.9659 19.5993 11.1174 19.5824 11.2676C19.5656 11.4178 19.4982 11.5578 19.3913 11.6647L18.816 12.24L19.76 13.184L20.3353 12.6087C20.4423 12.5016 20.5824 12.4342 20.7328 12.4173C20.8831 12.4005 21.0347 12.4353 21.1627 12.516C21.672 12.8356 22.231 13.0681 22.8167 13.204C22.9635 13.2379 23.0945 13.3206 23.1883 13.4385C23.2822 13.5564 23.3333 13.7026 23.3333 13.8533V14.6667Z" fill="#1E0A52"/>
<path d="M24.0001 11.3337C23.3408 11.3337 22.6963 11.1382 22.1482 10.7719C21.6 10.4056 21.1728 9.88503 20.9205 9.27594C20.6682 8.66685 20.6022 7.99663 20.7308 7.35003C20.8594 6.70342 21.1769 6.10948 21.6431 5.6433C22.1092 5.17713 22.7032 4.85966 23.3498 4.73104C23.9964 4.60243 24.6666 4.66844 25.2757 4.92073C25.8848 5.17302 26.4054 5.60026 26.7716 6.14843C27.1379 6.69659 27.3334 7.34106 27.3334 8.00033C27.3324 8.88406 26.9808 9.73129 26.3559 10.3562C25.731 10.9811 24.8838 11.3326 24.0001 11.3337ZM24.0001 6.00033C23.6045 6.00033 23.2178 6.11763 22.8889 6.33739C22.56 6.55715 22.3037 6.86951 22.1523 7.23496C22.0009 7.60041 21.9613 8.00255 22.0385 8.39051C22.1157 8.77847 22.3062 9.13484 22.5859 9.41454C22.8656 9.69425 23.2219 9.88473 23.6099 9.9619C23.9979 10.0391 24.4 9.99946 24.7654 9.84809C25.1309 9.69671 25.4433 9.44037 25.663 9.11147C25.8828 8.78257 26.0001 8.39589 26.0001 8.00033C26.0001 7.46989 25.7894 6.96119 25.4143 6.58611C25.0392 6.21104 24.5305 6.00033 24.0001 6.00033Z" fill="#1E0A52"/>
</g>
<defs>
<clipPath id="clip0_842_5575">
<rect width="32" height="32" fill="white"/>
</clipPath>
</defs>
</svg>
