<svg width="32" height="32" viewBox="0 0 32 32" fill="none" xmlns="http://www.w3.org/2000/svg">
<g clip-path="url(#clip0_842_5583)">
<path d="M29.4866 2.95312H2.51325C1.31325 2.95312 0.333252 3.93312 0.333252 5.13312V26.8665C0.333252 28.0665 1.31325 29.0465 2.51325 29.0465H29.4866C30.6866 29.0465 31.6666 28.0665 31.6666 26.8665V5.13312C31.6666 3.93312 30.6866 2.95312 29.4866 2.95312ZM30.3333 26.8665C30.3333 27.3331 29.9533 27.7131 29.4866 27.7131H2.51325C2.04659 27.7131 1.66659 27.3331 1.66659 26.8665V22.4065H28.8666C29.2333 22.4065 29.5333 22.1065 29.5333 21.7398C29.5333 21.3731 29.2333 21.0731 28.8666 21.0731H1.66659V5.13312C1.66659 4.66646 2.04659 4.28646 2.51325 4.28646H29.4866C29.9533 4.28646 30.3333 4.66646 30.3333 5.13312V26.8665Z" fill="#1E0A52"/>
<path d="M20.5266 12.207L13.7132 7.30029C13.6139 7.22869 13.4968 7.18592 13.3747 7.17669C13.2526 7.16747 13.1303 7.19214 13.0214 7.248C12.9124 7.30386 12.821 7.38872 12.7572 7.49324C12.6934 7.59775 12.6598 7.71785 12.6599 7.84029V17.647C12.6598 17.7694 12.6934 17.8895 12.7572 17.994C12.821 18.0985 12.9124 18.1834 13.0214 18.2392C13.1303 18.2951 13.2526 18.3198 13.3747 18.3105C13.4968 18.3013 13.6139 18.2586 13.7132 18.187L20.5266 13.2803C20.6999 13.1536 20.8066 12.9536 20.8066 12.7403C20.8066 12.527 20.6999 12.3336 20.5266 12.207ZM13.9932 16.3536V9.14695L18.9999 12.7536L13.9932 16.3536ZM15.9999 23.0603C14.8999 23.0603 13.9999 23.9603 13.9999 25.0603C13.9999 26.1603 14.8999 27.0603 15.9999 27.0603C17.0999 27.0603 17.9999 26.1603 17.9999 25.0603C17.9999 23.9603 17.0999 23.0603 15.9999 23.0603ZM15.9999 25.727C15.6332 25.727 15.3332 25.427 15.3332 25.0603C15.3332 24.6936 15.6332 24.3936 15.9999 24.3936C16.3666 24.3936 16.6666 24.6936 16.6666 25.0603C16.6666 25.427 16.3666 25.727 15.9999 25.727Z" fill="#1E0A52"/>
</g>
<defs>
<clipPath id="clip0_842_5583">
<rect width="32" height="32" fill="white"/>
</clipPath>
</defs>
</svg>
