<svg viewBox="0 0 32 32" fill="none" xmlns="http://www.w3.org/2000/svg">
<path d="M11.9481 20.681C12.4723 20.1086 12.8186 19.396 12.9448 18.6302C13.0711 17.8644 12.9718 17.0784 12.6591 16.368C12.3463 15.6576 11.8337 15.0536 11.1837 14.6295C10.5336 14.2054 9.77423 13.9796 8.99808 13.9796C8.22192 13.9796 7.46253 14.2054 6.81248 14.6295C6.16243 15.0536 5.64981 15.6576 5.3371 16.368C5.02439 17.0784 4.9251 17.8644 5.05134 18.6302C5.17759 19.396 5.5239 20.1086 6.04808 20.681C5.0479 21.142 4.17104 21.8332 3.4892 22.698C2.80737 23.5629 2.33991 24.5769 2.12508 25.657C2.07089 25.9385 2.07973 26.2285 2.15097 26.5062C2.22221 26.7839 2.35407 27.0423 2.53708 27.263C2.72682 27.4939 2.96545 27.6797 3.23574 27.8072C3.50603 27.9346 3.80125 28.0005 4.10008 28H13.9001C14.1986 28.0002 14.4934 27.9342 14.7633 27.8067C15.0332 27.6793 15.2715 27.4936 15.4611 27.263C15.644 27.0425 15.7758 26.7842 15.8471 26.5067C15.9183 26.2292 15.9272 25.9394 15.8731 25.658C15.6583 24.5774 15.1906 23.5631 14.5084 22.6981C13.8262 21.833 12.9488 21.1418 11.9481 20.681ZM9.00008 16C9.39564 16 9.78232 16.1173 10.1112 16.3371C10.4401 16.5568 10.6965 16.8692 10.8478 17.2346C10.9992 17.6001 11.0388 18.0022 10.9616 18.3902C10.8845 18.7781 10.694 19.1345 10.4143 19.4142C10.1346 19.6939 9.77822 19.8844 9.39026 19.9616C9.0023 20.0387 8.60016 19.9991 8.23471 19.8478C7.86926 19.6964 7.5569 19.44 7.33714 19.1111C7.11737 18.7822 7.00008 18.3956 7.00008 18C7.00008 17.4696 7.21079 16.9609 7.58586 16.5858C7.96094 16.2107 8.46964 16 9.00008 16ZM4.10008 26C4.32959 24.8697 4.94281 23.8535 5.83582 23.1236C6.72883 22.3937 7.84672 21.995 9.00008 21.995C10.1534 21.995 11.2713 22.3937 12.1643 23.1236C13.0573 23.8535 13.6706 24.8697 13.9001 26H4.10008ZM29.8711 25.658C29.6565 24.5776 29.1891 23.5634 28.5072 22.6984C27.8254 21.8333 26.9484 21.142 25.9481 20.681C26.4722 20.1086 26.8186 19.396 26.9448 18.6302C27.0711 17.8644 26.9718 17.0784 26.6591 16.368C26.3463 15.6576 25.8337 15.0536 25.1837 14.6295C24.5336 14.2054 23.7742 13.9796 22.9981 13.9796C22.2219 13.9796 21.4625 14.2054 20.8125 14.6295C20.1624 15.0536 19.6498 15.6576 19.3371 16.368C19.0244 17.0784 18.9251 17.8644 19.0513 18.6302C19.1776 19.396 19.5239 20.1086 20.0481 20.681C19.0479 21.142 18.171 21.8332 17.4892 22.698C16.8074 23.5629 16.3399 24.5769 16.1251 25.657C16.0709 25.9385 16.0797 26.2285 16.151 26.5062C16.2222 26.7839 16.3541 27.0423 16.5371 27.263C16.7268 27.4939 16.9655 27.6797 17.2357 27.8072C17.506 27.9346 17.8012 28.0005 18.1001 28H27.9001C28.1986 28.0002 28.4934 27.9342 28.7633 27.8067C29.0332 27.6793 29.2715 27.4936 29.4611 27.263C29.6437 27.0423 29.7751 26.784 29.846 26.5065C29.9169 26.229 29.9255 25.9392 29.8711 25.658ZM23.0001 16C23.3956 16 23.7823 16.1173 24.1112 16.3371C24.4401 16.5568 24.6965 16.8692 24.8478 17.2346C24.9992 17.6001 25.0388 18.0022 24.9616 18.3902C24.8845 18.7781 24.694 19.1345 24.4143 19.4142C24.1346 19.6939 23.7782 19.8844 23.3903 19.9616C23.0023 20.0387 22.6002 19.9991 22.2347 19.8478C21.8693 19.6964 21.5569 19.44 21.3371 19.1111C21.1174 18.7822 21.0001 18.3956 21.0001 18C21.0001 17.4696 21.2108 16.9609 21.5859 16.5858C21.9609 16.2107 22.4696 16 23.0001 16ZM18.1001 26C18.3296 24.8697 18.9428 23.8535 19.8358 23.1236C20.7288 22.3937 21.8467 21.995 23.0001 21.995C24.1534 21.995 25.2713 22.3937 26.1643 23.1236C27.0573 23.8535 27.6706 24.8697 27.9001 26H18.1001ZM11.4751 12.851C11.6199 12.9405 11.7853 12.9915 11.9554 12.9992C12.1255 13.0069 12.2947 12.971 12.4471 12.895L14.2361 12H19.0001C19.5305 12 20.0392 11.7893 20.4143 11.4142C20.7894 11.0391 21.0001 10.5304 21.0001 10V6C21.0001 5.46957 20.7894 4.96086 20.4143 4.58579C20.0392 4.21071 19.5305 4 19.0001 4H13.0001C12.4696 4 11.9609 4.21071 11.5859 4.58579C11.2108 4.96086 11.0001 5.46957 11.0001 6V12C11.0001 12.1706 11.0437 12.3383 11.1269 12.4873C11.21 12.6362 11.3299 12.7614 11.4751 12.851ZM13.0001 6H19.0001V10H14.0001C13.8449 9.99986 13.6919 10.0358 13.5531 10.105L13.0001 10.382V6Z" fill="currentColor"/>
</svg>
