<svg width="32" height="32" viewBox="0 0 32 32" fill="none" xmlns="http://www.w3.org/2000/svg">
<path d="M18.5193 6.66812C18.4156 6.0825 17.8981 5.56437 17.3143 5.46125C16.4417 5.32542 15.5532 5.32542 14.6806 5.46125C14.095 5.56437 13.5775 6.0825 13.4743 6.66625C13.4037 7.10182 13.3692 7.54249 13.3712 7.98375C13.3688 8.42432 13.4027 8.86435 13.4725 9.29937C13.5762 9.885 14.0937 10.4031 14.6775 10.5062C15.1135 10.5765 15.5546 10.6106 15.9962 10.6081C16.437 10.6105 16.8772 10.5767 17.3125 10.5069C17.8981 10.4031 18.4156 9.88187 18.5193 9.30125C18.5892 8.8656 18.6233 8.42496 18.6212 7.98375C18.6234 7.54315 18.5893 7.10313 18.5193 6.66812Z" fill="currentColor"/>
<path d="M17.3143 21.4932C16.4416 21.3577 15.5533 21.3577 14.6806 21.4932C14.095 21.5969 13.5775 22.115 13.4743 22.6988C13.4037 23.1342 13.3692 23.5746 13.3712 24.0157C13.3688 24.4562 13.4027 24.8963 13.4725 25.3313C13.5762 25.9169 14.0937 26.435 14.6775 26.5382C15.5502 26.6732 16.4385 26.6732 17.3112 26.5382C17.8968 26.435 18.4143 25.9169 18.5181 25.3332C18.6531 24.4606 18.6531 23.5726 18.5181 22.7C18.4156 22.1144 17.8981 21.5963 17.3143 21.4932Z" fill="currentColor"/>
<path d="M18.5193 14.6877C18.4156 14.1021 17.8981 13.5846 17.3143 13.4814C16.4416 13.346 15.5533 13.346 14.6806 13.4814C14.095 13.5852 13.5775 14.1027 13.4743 14.6864C13.4039 15.1208 13.3694 15.5602 13.3712 16.0002C13.3689 16.4408 13.4027 16.8808 13.4725 17.3158C13.5762 17.9014 14.0937 18.4189 14.6775 18.5221C15.5502 18.6575 16.4385 18.6575 17.3112 18.5221C17.8968 18.4189 18.4143 17.9008 18.5181 17.3171C18.6531 16.4443 18.6531 15.556 18.5181 14.6833L18.5193 14.6877Z" fill="currentColor"/>
</svg>
