<svg width="100" height="100" viewBox="0 0 100 100" fill="none" xmlns="http://www.w3.org/2000/svg">
<g clip-path="url(#clip0_4913_44953)">
<path d="M53.125 46.875H100V3.125C100 2.2962 99.6708 1.50134 99.0847 0.915291C98.4987 0.32924 97.7038 0 96.875 0L53.125 0V46.875Z" fill="#4CAF50"/>
<path d="M46.875 46.875V0H3.125C2.2962 0 1.50134 0.32924 0.915291 0.915291C0.32924 1.50134 0 2.2962 0 3.125L0 46.875H46.875Z" fill="#F44336"/>
<path d="M46.875 53.125H0V96.875C0 97.7038 0.32924 98.4987 0.915291 99.0847C1.50134 99.6708 2.2962 100 3.125 100H46.875V53.125Z" fill="#2196F3"/>
<path d="M53.125 53.125V100H96.875C97.7038 100 98.4987 99.6708 99.0847 99.0847C99.6708 98.4987 100 97.7038 100 96.875V53.125H53.125Z" fill="#FFC107"/>
</g>
<defs>
<clipPath id="clip0_4913_44953">
<rect width="100" height="100" fill="white"/>
</clipPath>
</defs>
</svg>
