<svg width="16" height="16" viewBox="0 0 16 16" fill="none" xmlns="http://www.w3.org/2000/svg">
<path d="M8 12.6668C10.2067 12.6668 12 10.8735 12 8.66683V5.3335C12 3.12683 10.2067 1.3335 8 1.3335C5.79333 1.3335 4 3.12683 4 5.3335V8.66683C4 10.8735 5.79333 12.6668 8 12.6668Z" stroke="#230D5A" stroke-width="1.2" stroke-linecap="round" stroke-linejoin="round"/>
<path d="M2 7.3335V8.66683C2 11.9802 4.68667 14.6668 8 14.6668C11.3133 14.6668 14 11.9802 14 8.66683V7.3335" stroke="#230D5A" stroke-width="1.2" stroke-linecap="round" stroke-linejoin="round"/>
<path d="M6.07324 4.98662C7.25991 4.55329 8.55324 4.55329 9.73991 4.98662" stroke="#230D5A" stroke-width="1.2" stroke-linecap="round" stroke-linejoin="round"/>
<path d="M6.68677 6.98678C7.48677 6.76678 8.33343 6.76678 9.13343 6.98678" stroke="#230D5A" stroke-width="1.2" stroke-linecap="round" stroke-linejoin="round"/>
</svg>
