<svg viewBox="0 0 32 32" fill="none" xmlns="http://www.w3.org/2000/svg">
<path d="M17.0816 22.292L16.853 22.116C16.7681 22.0605 16.6758 22.0161 16.5787 21.984L16.3044 21.8667C16.0573 21.817 15.8012 21.8271 15.5592 21.8963C15.3171 21.9654 15.0967 22.0913 14.9178 22.2627C14.7832 22.4053 14.6749 22.569 14.5978 22.7467C14.4825 23.0139 14.4518 23.308 14.5098 23.592C14.5677 23.8759 14.7116 24.137 14.9234 24.3424C15.1352 24.5478 15.4053 24.6883 15.6999 24.7463C15.9944 24.8042 16.3002 24.777 16.5787 24.668C16.7608 24.583 16.93 24.4744 17.0816 24.3454C17.293 24.1391 17.4363 23.8772 17.4932 23.5927C17.5502 23.3082 17.5183 23.0138 17.4016 22.7467C17.3256 22.5771 17.217 22.4229 17.0816 22.292ZM22.0949 1.33337H9.90444C8.69202 1.33337 7.52926 1.79694 6.67195 2.6221C5.81464 3.44726 5.33301 4.56642 5.33301 5.73337V26.2667C5.33301 27.4337 5.81464 28.5528 6.67195 29.378C7.52926 30.2031 8.69202 30.6667 9.90444 30.6667H22.0949C23.3073 30.6667 24.4701 30.2031 25.3274 29.378C26.1847 28.5528 26.6663 27.4337 26.6663 26.2667V5.73337C26.6663 4.56642 26.1847 3.44726 25.3274 2.6221C24.4701 1.79694 23.3073 1.33337 22.0949 1.33337ZM23.6187 26.2667C23.6187 26.6557 23.4582 27.0287 23.1724 27.3038C22.8866 27.5789 22.4991 27.7334 22.0949 27.7334H9.90444C9.5003 27.7334 9.11271 27.5789 8.82694 27.3038C8.54117 27.0287 8.38063 26.6557 8.38063 26.2667V5.73337C8.38063 5.34439 8.54117 4.97134 8.82694 4.69628C9.11271 4.42123 9.5003 4.26671 9.90444 4.26671H22.0949C22.4991 4.26671 22.8866 4.42123 23.1724 4.69628C23.4582 4.97134 23.6187 5.34439 23.6187 5.73337V26.2667Z" fill="currentColor"/>
</svg>
