<svg width="16" height="16" viewBox="0 0 16 16" fill="none" xmlns="http://www.w3.org/2000/svg">
<path d="M12.6666 8.00016H7.99992V3.3335C7.99992 2.9335 7.73325 2.66683 7.33325 2.66683C3.99992 2.66683 1.33325 5.3335 1.33325 8.66683C1.33325 12.0002 3.99992 14.6668 7.33325 14.6668C10.6666 14.6668 13.3333 12.0002 13.3333 8.66683C13.3333 8.26683 13.0666 8.00016 12.6666 8.00016ZM7.99992 13.2668C5.46659 13.6668 3.06659 11.8668 2.73325 9.3335C2.33325 6.80016 4.13325 4.40016 6.66658 4.06683V8.66683C6.66658 9.06683 6.93325 9.3335 7.33325 9.3335H11.9333C11.6666 11.4002 10.0666 13.0002 7.99992 13.2668ZM9.99992 1.3335C9.59992 1.3335 9.33325 1.60016 9.33325 2.00016V6.00016C9.33325 6.40016 9.59992 6.66683 9.99992 6.66683H13.9999C14.3999 6.66683 14.6666 6.40016 14.6666 6.00016C14.6666 3.40016 12.5999 1.3335 9.99992 1.3335ZM10.6666 5.3335V2.7335C11.9999 3.00016 12.9999 4.00016 13.2666 5.3335H10.6666Z" fill="#230D5A"/>
</svg>
