<svg width="32" height="32" viewBox="0 0 32 32" fill="none" xmlns="http://www.w3.org/2000/svg">
<path d="M27.3 3.6C27.2135 3.53509 27.1082 3.5 27 3.5H5C4.89181 3.5 4.78655 3.53509 4.7 3.6L0.7 6.6C0.616047 6.66296 0.554033 6.75075 0.522743 6.85092C0.491453 6.95108 0.492473 7.05856 0.525658 7.15811C0.558844 7.25767 0.622512 7.34426 0.707645 7.40562C0.792778 7.46698 0.895059 7.5 1 7.5H1.5V10C1.49988 10.5763 1.69889 11.135 2.06335 11.5815C2.4278 12.0279 2.93532 12.3347 3.5 12.45V27.5H1V28.5H31V27.5H28.5V12.45C29.0647 12.3347 29.5722 12.0279 29.9367 11.5815C30.3011 11.135 30.5001 10.5763 30.5 10V7.5H31C31.1049 7.5 31.2072 7.46698 31.2924 7.40562C31.3775 7.34426 31.4412 7.25767 31.4743 7.15811C31.5075 7.05856 31.5085 6.95108 31.4773 6.85092C31.446 6.75075 31.384 6.66296 31.3 6.6L27.3 3.6ZM27.5 27.5H4.5V23.5H27.5V27.5ZM7.5 22.5V21.5H8.5V22.5H7.5ZM11.5 22.5V21.5H12.5V22.5H11.5ZM15.5 22.5V21.5H16.5V22.5H15.5ZM19.5 22.5V21.5H20.5V22.5H19.5ZM23.5 22.5V21.5H24.5V22.5H23.5ZM27.5 22.5H25.5V21C25.5 20.8674 25.4473 20.7402 25.3536 20.6464C25.2598 20.5527 25.1326 20.5 25 20.5H23C22.8674 20.5 22.7402 20.5527 22.6464 20.6464C22.5527 20.7402 22.5 20.8674 22.5 21V22.5H21.5V21C21.5 20.8674 21.4473 20.7402 21.3536 20.6464C21.2598 20.5527 21.1326 20.5 21 20.5H19C18.8674 20.5 18.7402 20.5527 18.6464 20.6464C18.5527 20.7402 18.5 20.8674 18.5 21V22.5H17.5V21C17.5 20.8674 17.4473 20.7402 17.3536 20.6464C17.2598 20.5527 17.1326 20.5 17 20.5H15C14.8674 20.5 14.7402 20.5527 14.6464 20.6464C14.5527 20.7402 14.5 20.8674 14.5 21V22.5H13.5V21C13.5 20.8674 13.4473 20.7402 13.3536 20.6464C13.2598 20.5527 13.1326 20.5 13 20.5H11C10.8674 20.5 10.7402 20.5527 10.6464 20.6464C10.5527 20.7402 10.5 20.8674 10.5 21V22.5H9.5V21C9.5 20.8674 9.44732 20.7402 9.35355 20.6464C9.25979 20.5527 9.13261 20.5 9 20.5H7C6.86739 20.5 6.74021 20.5527 6.64645 20.6464C6.55268 20.7402 6.5 20.8674 6.5 21V22.5H4.5V18.5H27.5V22.5ZM7.5 17.5V16.5H8.5V17.5H7.5ZM11.5 17.5V16.5H12.5V17.5H11.5ZM15.5 17.5V16.5H16.5V17.5H15.5ZM19.5 17.5V16.5H20.5V17.5H19.5ZM23.5 17.5V16.5H24.5V17.5H23.5ZM27.5 17.5H25.5V16C25.5 15.8674 25.4473 15.7402 25.3536 15.6464C25.2598 15.5527 25.1326 15.5 25 15.5H23C22.8674 15.5 22.7402 15.5527 22.6464 15.6464C22.5527 15.7402 22.5 15.8674 22.5 16V17.5H21.5V16C21.5 15.8674 21.4473 15.7402 21.3536 15.6464C21.2598 15.5527 21.1326 15.5 21 15.5H19C18.8674 15.5 18.7402 15.5527 18.6464 15.6464C18.5527 15.7402 18.5 15.8674 18.5 16V17.5H17.5V16C17.5 15.8674 17.4473 15.7402 17.3536 15.6464C17.2598 15.5527 17.1326 15.5 17 15.5H15C14.8674 15.5 14.7402 15.5527 14.6464 15.6464C14.5527 15.7402 14.5 15.8674 14.5 16V17.5H13.5V16C13.5 15.8674 13.4473 15.7402 13.3536 15.6464C13.2598 15.5527 13.1326 15.5 13 15.5H11C10.8674 15.5 10.7402 15.5527 10.6464 15.6464C10.5527 15.7402 10.5 15.8674 10.5 16V17.5H9.5V16C9.5 15.8674 9.44732 15.7402 9.35355 15.6464C9.25979 15.5527 9.13261 15.5 9 15.5H7C6.86739 15.5 6.74021 15.5527 6.64645 15.6464C6.55268 15.7402 6.5 15.8674 6.5 16V17.5H4.5V12.445C5.09865 12.3238 5.63223 11.9877 6 11.5C6.23287 11.8105 6.53483 12.0625 6.88197 12.2361C7.2291 12.4096 7.61189 12.5 8 12.5C8.38811 12.5 8.7709 12.4096 9.11803 12.2361C9.46517 12.0625 9.76713 11.8105 10 11.5C10.2329 11.8105 10.5348 12.0625 10.882 12.2361C11.2291 12.4096 11.6119 12.5 12 12.5C12.3881 12.5 12.7709 12.4096 13.118 12.2361C13.4652 12.0625 13.7671 11.8105 14 11.5C14.2329 11.8105 14.5348 12.0625 14.882 12.2361C15.2291 12.4096 15.6119 12.5 16 12.5C16.3881 12.5 16.7709 12.4096 17.118 12.2361C17.4652 12.0625 17.7671 11.8105 18 11.5C18.2329 11.8105 18.5348 12.0625 18.882 12.2361C19.2291 12.4096 19.6119 12.5 20 12.5C20.3881 12.5 20.7709 12.4096 21.118 12.2361C21.4652 12.0625 21.7671 11.8105 22 11.5C22.2329 11.8105 22.5348 12.0625 22.882 12.2361C23.2291 12.4096 23.6119 12.5 24 12.5C24.3881 12.5 24.7709 12.4096 25.118 12.2361C25.4652 12.0625 25.7671 11.8105 26 11.5C26.3678 11.9877 26.9013 12.3238 27.5 12.445V17.5ZM29.5 10C29.5 10.3978 29.342 10.7794 29.0607 11.0607C28.7794 11.342 28.3978 11.5 28 11.5C27.6022 11.5 27.2206 11.342 26.9393 11.0607C26.658 10.7794 26.5 10.3978 26.5 10C26.5 9.86739 26.4473 9.74021 26.3536 9.64645C26.2598 9.55268 26.1326 9.5 26 9.5C25.8674 9.5 25.7402 9.55268 25.6464 9.64645C25.5527 9.74021 25.5 9.86739 25.5 10C25.5 10.3978 25.342 10.7794 25.0607 11.0607C24.7794 11.342 24.3978 11.5 24 11.5C23.6022 11.5 23.2206 11.342 22.9393 11.0607C22.658 10.7794 22.5 10.3978 22.5 10C22.5 9.86739 22.4473 9.74021 22.3536 9.64645C22.2598 9.55268 22.1326 9.5 22 9.5C21.8674 9.5 21.7402 9.55268 21.6464 9.64645C21.5527 9.74021 21.5 9.86739 21.5 10C21.5 10.3978 21.342 10.7794 21.0607 11.0607C20.7794 11.342 20.3978 11.5 20 11.5C19.6022 11.5 19.2206 11.342 18.9393 11.0607C18.658 10.7794 18.5 10.3978 18.5 10C18.5 9.86739 18.4473 9.74021 18.3536 9.64645C18.2598 9.55268 18.1326 9.5 18 9.5C17.8674 9.5 17.7402 9.55268 17.6464 9.64645C17.5527 9.74021 17.5 9.86739 17.5 10C17.5 10.3978 17.342 10.7794 17.0607 11.0607C16.7794 11.342 16.3978 11.5 16 11.5C15.6022 11.5 15.2206 11.342 14.9393 11.0607C14.658 10.7794 14.5 10.3978 14.5 10C14.5 9.86739 14.4473 9.74021 14.3536 9.64645C14.2598 9.55268 14.1326 9.5 14 9.5C13.8674 9.5 13.7402 9.55268 13.6464 9.64645C13.5527 9.74021 13.5 9.86739 13.5 10C13.5 10.3978 13.342 10.7794 13.0607 11.0607C12.7794 11.342 12.3978 11.5 12 11.5C11.6022 11.5 11.2206 11.342 10.9393 11.0607C10.658 10.7794 10.5 10.3978 10.5 10C10.5 9.86739 10.4473 9.74021 10.3536 9.64645C10.2598 9.55268 10.1326 9.5 10 9.5C9.86739 9.5 9.74021 9.55268 9.64645 9.64645C9.55268 9.74021 9.5 9.86739 9.5 10C9.5 10.3978 9.34196 10.7794 9.06066 11.0607C8.77936 11.342 8.39782 11.5 8 11.5C7.60218 11.5 7.22064 11.342 6.93934 11.0607C6.65804 10.7794 6.5 10.3978 6.5 10C6.5 9.86739 6.44732 9.74021 6.35355 9.64645C6.25979 9.55268 6.13261 9.5 6 9.5C5.86739 9.5 5.74021 9.55268 5.64645 9.64645C5.55268 9.74021 5.5 9.86739 5.5 10C5.5 10.3978 5.34196 10.7794 5.06066 11.0607C4.77936 11.342 4.39782 11.5 4 11.5C3.60218 11.5 3.22064 11.342 2.93934 11.0607C2.65804 10.7794 2.5 10.3978 2.5 10V7.5H29.5V10ZM2.5 6.5L5.165 4.5H26.835L29.5 6.5H2.5Z" fill="#1E0A52"/>
</svg>
