<svg width="100" height="100" viewBox="0 0 100 100" fill="none" xmlns="http://www.w3.org/2000/svg">
<path d="M41.614 22.6339C44.8391 19.2736 49.3291 17.1894 54.2949 17.1894C60.8961 17.1894 66.6553 20.8703 69.7223 26.3346C72.3876 25.1438 75.3377 24.4814 78.4416 24.4814C90.3475 24.4814 100 34.2179 100 46.2278C100 58.2391 90.3475 67.9757 78.4416 67.9757C77.0156 67.9765 75.593 67.8348 74.1952 67.5526C71.4944 72.3702 66.3476 75.6252 60.4402 75.6252C57.9673 75.6252 55.6282 75.0541 53.5456 74.0383C50.8077 80.4785 44.4288 84.9941 36.9943 84.9941C29.2522 84.9941 22.6539 80.0953 20.1211 73.2249C19.0143 73.46 17.8676 73.5825 16.6909 73.5825C7.47297 73.5826 0 66.0327 0 56.7179C0 50.4758 3.35756 45.0255 8.34615 42.1096C7.31912 39.7464 6.74785 37.1381 6.74785 34.3959C6.74785 23.6837 15.4444 15 26.171 15C32.4687 15 38.0656 17.9943 41.614 22.6339Z" fill="#00A1E0"/>
<path d="M14.4874 51.2992C14.4248 51.463 14.5103 51.4973 14.5302 51.5257C14.7182 51.6624 14.9092 51.7608 15.1014 51.8705C16.1214 52.4117 17.0844 52.5698 18.0915 52.5698C20.1428 52.5698 21.4163 51.4787 21.4163 49.7222V49.6881C21.4163 48.064 19.979 47.4744 18.63 47.0484L18.4548 46.9915C17.4377 46.6609 16.5602 46.3762 16.5602 45.7066V45.6711C16.5602 45.0984 17.073 44.6767 17.8679 44.6767C18.7511 44.6767 19.7995 44.9702 20.4747 45.3433C20.4747 45.3433 20.6727 45.4716 20.7454 45.2793C20.7852 45.1767 21.1272 44.2564 21.1628 44.1567C21.2012 44.0484 21.1329 43.9687 21.0631 43.9259C20.2924 43.4572 19.2269 43.1367 18.1244 43.1367L17.9193 43.1381C16.0418 43.1381 14.7313 44.2721 14.7313 45.8974V45.9316C14.7313 47.6452 16.1771 48.2008 17.5319 48.5883L17.7498 48.6552C18.737 48.9586 19.5874 49.2193 19.5874 49.9145V49.9487C19.5874 50.5841 19.0348 51.0569 18.143 51.0569C17.7968 51.0569 16.6928 51.0498 15.5005 50.2962C15.3566 50.2121 15.2726 50.1509 15.1615 50.084C15.1031 50.0469 14.9564 49.9828 14.8923 50.1766L14.4874 51.2992ZM44.5173 51.2992C44.4546 51.463 44.5401 51.4973 44.56 51.5257C44.748 51.6624 44.939 51.7608 45.1312 51.8705C46.1511 52.4117 47.1143 52.5698 48.1213 52.5698C50.1725 52.5698 51.4461 51.4787 51.4461 49.7222V49.6881C51.4461 48.064 50.0088 47.4744 48.6597 47.0484L48.4845 46.9915C47.4674 46.6609 46.5898 46.3762 46.5898 45.7066V45.6711C46.5898 45.0984 47.1026 44.6767 47.8975 44.6767C48.7807 44.6767 49.8292 44.9702 50.5044 45.3433C50.5044 45.3433 50.7024 45.4716 50.775 45.2793C50.8149 45.1767 51.1568 44.2564 51.1924 44.1567C51.231 44.0484 51.1625 43.9687 51.0927 43.9259C50.3221 43.4572 49.2565 43.1367 48.154 43.1367L47.9488 43.1381C46.0713 43.1381 44.7608 44.2721 44.7608 45.8974V45.9316C44.7608 47.6452 46.2067 48.2008 47.5614 48.5883L47.7793 48.6552C48.7665 48.9586 49.6185 49.2193 49.6185 49.9145V49.9487C49.6185 50.5841 49.0643 51.0569 48.1725 51.0569C47.8265 51.0569 46.7225 51.0498 45.5302 50.2962C45.3862 50.2121 45.3008 50.1537 45.1926 50.084C45.1555 50.0597 44.9817 49.9928 44.9219 50.1766L44.5173 51.2992ZM65.0179 47.8587C65.0179 48.8516 64.8327 49.6336 64.468 50.1864C64.1076 50.7334 63.562 50.9998 62.8014 50.9998C62.0394 50.9998 61.4966 50.7348 61.1419 50.1864C60.7828 49.6351 60.6006 48.8516 60.6006 47.8587C60.6006 46.8673 60.7828 46.0867 61.1419 45.5396C61.4966 44.9984 62.0394 44.7348 62.8014 44.7348C63.5621 44.7348 64.1077 44.9984 64.4695 45.5396C64.8328 46.0866 65.0179 46.8672 65.0179 47.8587ZM66.7302 46.0183C66.562 45.4498 66.2999 44.9484 65.951 44.5311C65.6019 44.1123 65.1604 43.7762 64.6361 43.5311C64.1133 43.2876 63.4951 43.1636 62.8014 43.1636C62.1063 43.1636 61.488 43.2876 60.9652 43.5311C60.441 43.7762 59.9994 44.1124 59.649 44.5311C59.3014 44.9499 59.0393 45.4513 58.8698 46.0183C58.7031 46.5838 58.6191 47.202 58.6191 47.8587C58.6191 48.5155 58.7031 49.1351 58.8698 49.6992C59.0393 50.2661 59.3 50.7677 59.6505 51.1864C59.9994 51.6052 60.4425 51.9399 60.9653 52.1778C61.4894 52.4157 62.1062 52.5367 62.8015 52.5367C63.4952 52.5367 64.1121 52.4157 64.6362 52.1778C65.159 51.9399 65.6019 51.6051 65.9511 51.1864C66.3 50.769 66.5621 50.2676 66.7303 49.6992C66.8984 49.1337 66.9824 48.514 66.9824 47.8587C66.9824 47.2035 66.8982 46.5838 66.7302 46.0183ZM80.7909 50.7346C80.734 50.568 80.573 50.6306 80.573 50.6306C80.3238 50.7261 80.0587 50.8144 79.7767 50.8585C79.4903 50.9026 79.1755 50.9255 78.8379 50.9255C78.009 50.9255 77.3508 50.6791 76.8793 50.1919C76.4063 49.7047 76.1414 48.917 76.1442 47.8514C76.1471 46.8814 76.3806 46.1519 76.8009 45.5965C77.2184 45.0438 77.8537 44.7602 78.7012 44.7602C79.4078 44.7602 79.9463 44.8414 80.5102 45.0195C80.5102 45.0195 80.6456 45.0779 80.7096 44.9013C80.8592 44.4853 80.9703 44.1876 81.1299 43.7303C81.1755 43.6007 81.0644 43.5451 81.0245 43.5294C80.8022 43.4425 80.278 43.3016 79.882 43.2417C79.5116 43.1848 79.0786 43.1548 78.5971 43.1548C77.8776 43.1548 77.2367 43.2774 76.6883 43.5224C76.1413 43.766 75.6769 44.1021 75.3094 44.521C74.9419 44.9398 74.6627 45.4411 74.4761 46.0081C74.2909 46.5736 74.1969 47.1947 74.1969 47.8514C74.1969 49.2717 74.5801 50.4197 75.3366 51.2602C76.0943 52.1036 77.2326 52.5323 78.717 52.5323C79.5944 52.5323 80.4947 52.3543 81.1415 52.0993C81.1415 52.0993 81.2654 52.0394 81.2113 51.8957L80.7909 50.7346ZM83.7868 46.9076C83.868 46.3563 84.0205 45.8976 84.2555 45.5401C84.6103 44.9974 85.1515 44.6997 85.9123 44.6997C86.673 44.6997 87.1758 44.9988 87.5362 45.5401C87.7755 45.8976 87.8795 46.3764 87.9209 46.9076H83.7868ZM89.5518 45.6953C89.4065 45.1468 89.0461 44.5927 88.8096 44.3391C88.4364 43.9374 88.0718 43.6568 87.71 43.5001C87.237 43.2978 86.67 43.1639 86.049 43.1639C85.3254 43.1639 84.6686 43.2851 84.1359 43.5357C83.6017 43.7865 83.1531 44.1284 82.8011 44.5543C82.4492 44.9788 82.1843 45.4845 82.0162 46.0585C81.8467 46.6298 81.7612 47.2523 81.7612 47.9089C81.7612 48.5771 81.8496 49.1996 82.0248 49.7593C82.2014 50.3235 82.4834 50.8206 82.8652 51.2322C83.2455 51.6468 83.7356 51.9717 84.3225 52.198C84.9051 52.4231 85.6132 52.5399 86.4265 52.5384C88.1003 52.5327 88.982 52.1595 89.3453 51.9586C89.4094 51.9231 89.4707 51.8604 89.3936 51.681L89.0148 50.6196C88.9579 50.4615 88.7968 50.5199 88.7968 50.5199C88.3822 50.6738 87.7926 50.9501 86.4179 50.9473C85.5191 50.9459 84.8523 50.681 84.4349 50.2663C84.0061 49.8419 83.7967 49.2179 83.7597 48.3376L89.556 48.3433C89.556 48.3433 89.7083 48.3405 89.7242 48.1923C89.7299 48.1298 89.9237 47.0016 89.5518 45.6953ZM37.3669 46.9076C37.4495 46.3563 37.6005 45.8976 37.8356 45.5401C38.1902 44.9974 38.7316 44.6997 39.4922 44.6997C40.2529 44.6997 40.7558 44.9988 41.1176 45.5401C41.3554 45.8976 41.4594 46.3764 41.5007 46.9076H37.3669ZM43.1304 45.6953C42.9851 45.1468 42.6262 44.5927 42.3897 44.3391C42.0165 43.9374 41.6518 43.6568 41.29 43.5001C40.8171 43.2978 40.2502 43.1639 39.6291 43.1639C38.9068 43.1639 38.2487 43.2851 37.716 43.5357C37.1818 43.7865 36.7331 44.1284 36.3812 44.5543C36.0294 44.9788 35.7644 45.4845 35.5963 46.0585C35.4283 46.6298 35.3414 47.2523 35.3414 47.9089C35.3414 48.5771 35.4297 49.1996 35.6049 49.7593C35.7816 50.3235 36.0637 50.8206 36.4454 51.2322C36.8258 51.6468 37.3158 51.9717 37.9026 52.198C38.4853 52.4231 39.1932 52.5399 40.0066 52.5384C41.6804 52.5327 42.5622 52.1595 42.9255 51.9586C42.9896 51.9231 43.0508 51.8604 42.9739 51.681L42.5964 50.6196C42.538 50.4615 42.3771 50.5199 42.3771 50.5199C41.9626 50.6738 41.3742 50.9501 39.9967 50.9473C39.0993 50.9459 38.4327 50.681 38.0153 50.2663C37.5864 49.8419 37.3771 49.2179 37.34 48.3376L43.1363 48.3433C43.1363 48.3433 43.2886 48.3405 43.3043 48.1923C43.3099 48.1298 43.5035 47.0016 43.1304 45.6953ZM24.8383 50.7029C24.6118 50.5219 24.5804 50.4764 24.5035 50.3595C24.3895 50.1815 24.3312 49.9279 24.3312 49.606C24.3312 49.096 24.4992 48.7299 24.8483 48.4835C24.8441 48.485 25.3469 48.049 26.5292 48.0646C27.3596 48.0761 28.1017 48.1986 28.1017 48.1986V50.8339H28.1031C28.1031 50.8339 27.3667 50.992 26.5377 51.0418C25.3582 51.1131 24.834 50.7015 24.8383 50.7029ZM27.1445 46.6302C26.9095 46.6131 26.6045 46.6031 26.2399 46.6031C25.7428 46.6031 25.2627 46.6657 24.8126 46.7869C24.3596 46.9079 23.9522 47.0975 23.6017 47.348C23.2518 47.5978 22.9642 47.9249 22.7613 48.3039C22.5562 48.6857 22.4522 49.1358 22.4522 49.6401C22.4522 50.1529 22.5405 50.5988 22.7172 50.9635C22.8938 51.3296 23.1488 51.6344 23.4735 51.8696C23.7954 52.1046 24.1929 52.2769 24.6544 52.3809C25.1089 52.4849 25.6245 52.5375 26.1886 52.5375C26.7826 52.5375 27.3752 52.4892 27.9493 52.3908C28.5177 52.2939 29.2157 52.1528 29.4094 52.1088C29.5452 52.0761 29.6805 52.0414 29.8154 52.0048C29.9593 51.9693 29.9479 51.8153 29.9479 51.8153L29.945 46.5148C29.945 45.3523 29.6345 44.4905 29.0234 43.9563C28.4151 43.4236 27.5191 43.1542 26.361 43.1542C25.9265 43.1542 25.2271 43.2142 24.8083 43.2982C24.8083 43.2982 23.5419 43.5432 23.0205 43.9506C23.0205 43.9506 22.9066 44.0219 22.9692 44.1815L23.3795 45.2841C23.4308 45.4265 23.569 45.3781 23.569 45.3781C23.569 45.3781 23.6132 45.3609 23.6645 45.331C24.7799 44.7242 26.1901 44.7427 26.1901 44.7427C26.817 44.7427 27.2984 44.8681 27.6232 45.1173C27.9394 45.3594 28.1003 45.7255 28.1003 46.4976V46.7426C27.6017 46.6715 27.1445 46.6302 27.1445 46.6302ZM73.8941 43.6436C73.9382 43.5125 73.8457 43.4498 73.8071 43.4356C73.7089 43.3972 73.2161 43.2932 72.8357 43.269C72.1078 43.2248 71.7033 43.3473 71.3414 43.5097C70.9824 43.6721 70.5836 43.9341 70.3613 44.2319V43.5268C70.3613 43.4285 70.2915 43.3501 70.1946 43.3501H68.7088C68.6121 43.3501 68.5423 43.4284 68.5423 43.5268V52.1721C68.5423 52.2689 68.6221 52.3487 68.7189 52.3487H70.2417C70.2883 52.3485 70.333 52.3297 70.3658 52.2966C70.3986 52.2635 70.417 52.2187 70.4169 52.1721V47.853C70.4169 47.2733 70.481 46.695 70.6093 46.3317C70.7346 45.9727 70.9055 45.685 71.1164 45.4784C71.3286 45.2733 71.5693 45.1294 71.8329 45.0482C72.102 44.9655 72.3997 44.9385 72.6106 44.9385C72.9141 44.9385 73.2474 45.0168 73.2474 45.0168C73.3584 45.0296 73.4212 44.9612 73.4581 44.8601C73.5579 44.5952 73.84 43.8017 73.8941 43.6436Z" fill="white"/>
<path d="M59.5988 39.6341C59.4136 39.5771 59.2455 39.5386 59.0261 39.4974C58.8038 39.4575 58.5389 39.4375 58.2384 39.4375C57.1899 39.4375 56.3637 39.7338 55.784 40.3178C55.207 40.8991 54.8152 41.7836 54.6186 42.9475L54.5473 43.3392H53.2312C53.2312 43.3392 53.0717 43.3335 53.0374 43.5074L52.8224 44.7139C52.8067 44.8279 52.8567 44.9005 53.0104 44.9005H54.2911L52.9919 52.154C52.8907 52.7381 52.7739 53.2182 52.6442 53.5827C52.5174 53.9418 52.3936 54.211 52.2397 54.4076C52.0916 54.5957 51.952 54.7352 51.7097 54.8164C51.5103 54.8833 51.2796 54.9147 51.0274 54.9147C50.8878 54.9147 50.7013 54.8918 50.5631 54.8633C50.4263 54.8362 50.3537 54.8064 50.2497 54.7621C50.2497 54.7621 50.1001 54.7053 50.0402 54.8548C49.9932 54.9787 49.6514 55.9174 49.61 56.0329C49.5702 56.1482 49.6271 56.238 49.6997 56.265C49.8707 56.3249 49.9974 56.3647 50.2296 56.4203C50.5517 56.4959 50.8236 56.5001 51.0786 56.5001C51.6113 56.5001 52.0985 56.4246 52.5017 56.2793C52.9063 56.1326 53.2595 55.8775 53.5729 55.5329C53.9105 55.1596 54.1227 54.7693 54.3251 54.2352C54.5259 53.7081 54.6984 53.0528 54.835 52.2893L56.1413 44.9005H58.0502C58.0502 44.9005 58.211 44.9062 58.2439 44.731L58.4604 43.5259C58.4747 43.4106 58.4262 43.3393 58.2709 43.3393H56.4176C56.4276 43.2981 56.5116 42.6455 56.7239 42.0317C56.8151 41.771 56.986 41.5587 57.1299 41.4134C57.2725 41.2709 57.4362 41.1698 57.6158 41.1114C57.7995 41.0515 58.009 41.0231 58.2383 41.0231C58.4121 41.0231 58.5844 41.043 58.714 41.07C58.8935 41.1086 58.9633 41.1285 59.0104 41.1428C59.1999 41.1998 59.2254 41.1442 59.2626 41.0531L59.7056 39.8366C59.7511 39.7053 59.6386 39.6497 59.5988 39.6341ZM33.7049 52.1697C33.7049 52.2666 33.6351 52.345 33.5382 52.345H32.0012C31.9043 52.345 31.8359 52.2666 31.8359 52.1697V39.7994C31.8359 39.7026 31.9043 39.6242 32.0012 39.6242H33.5382C33.6351 39.6242 33.7049 39.7026 33.7049 39.7994V52.1697Z" fill="white"/>
</svg>
