<svg width="100" height="100" viewBox="0 0 100 100" fill="none" xmlns="http://www.w3.org/2000/svg">
<path d="M2.5 62.5327C3.077 75.7747 21.884 75.7717 22.459 62.5327V52.5527H12.479C6.987 52.5527 2.5 57.0397 2.5 62.5327Z" fill="#CE3056"/>
<path d="M62.5337 47.4462C68.0267 47.4462 72.5137 42.9592 72.5137 37.4662V12.4792C71.9397 -0.756797 53.1317 -0.765797 52.5547 12.4792V37.4672C52.5537 42.9592 57.0407 47.4462 62.5337 47.4462Z" fill="#5BB381"/>
<path d="M37.4673 52.5527C31.9753 52.5527 27.4883 57.0397 27.4883 62.5327V87.5197C28.0623 100.756 46.8703 100.765 47.4473 87.5197V62.5317C47.4473 57.0397 42.9603 52.5527 37.4673 52.5527Z" fill="#CE3056"/>
<path d="M97.4981 37.4675C96.9211 24.2255 78.1141 24.2285 77.5391 37.4675V47.4475H87.5191C93.0111 47.4475 97.4981 42.9605 97.4981 37.4675Z" fill="#5BB381"/>
<path d="M12.4812 47.4473H37.4692C50.7052 46.8733 50.7142 28.0653 37.4692 27.4883H12.4812C-0.756844 28.0633 -0.761844 46.8703 12.4812 47.4473Z" fill="#61C3EC"/>
<path d="M62.5347 77.5407H52.5547V87.5207C52.5547 93.0137 57.0417 97.5007 62.5347 97.5007C75.7757 96.9227 75.7727 78.1157 62.5347 77.5407ZM87.5217 52.5527H62.5347C49.2967 53.1277 49.2917 71.9347 62.5347 72.5117H87.5227C100.758 71.9377 100.767 53.1307 87.5217 52.5527Z" fill="#E4B34B"/>
<path d="M37.4655 2.5C24.2235 3.077 24.2265 21.884 37.4655 22.459H47.4455V12.479C47.4455 6.987 42.9585 2.5 37.4655 2.5Z" fill="#61C3EC"/>
</svg>
