<svg viewBox="0 0 16 16" fill="none" xmlns="http://www.w3.org/2000/svg">
<path d="M8.94992 2.60076L10.0191 4.67005C10.1528 5.0038 10.4869 5.20406 10.8211 5.27081L13.0932 5.60456C13.9619 5.73807 14.2961 6.80608 13.6946 7.40684L12.0239 8.94212C11.7566 9.20913 11.623 9.54288 11.6898 9.87664L12.0908 12.0794C12.2244 12.9472 11.3557 13.6147 10.5538 13.2142L8.48213 12.1462C8.148 12.0127 7.81386 12.0127 7.47973 12.1462L5.4081 13.2142C4.60618 13.6147 3.73744 12.9472 3.87109 12.0794L4.27205 9.87664C4.33888 9.54288 4.20522 9.14237 3.93792 8.94212L2.33407 7.34009C1.66581 6.73933 2.06677 5.67131 2.93552 5.53781L5.20762 5.20406C5.54176 5.1373 5.87589 4.93705 6.00954 4.67005L7.01194 2.60076C7.47973 1.79975 8.54896 1.79975 8.94992 2.60076Z" stroke="currentColor" stroke-width="1.5" stroke-linecap="round" stroke-linejoin="round"/>
</svg>
