<svg width="32" height="32" viewBox="0 0 32 32" fill="none" xmlns="http://www.w3.org/2000/svg">
<path d="M25.1773 24.6587C25.393 24.6587 25.6086 24.6681 25.8242 24.6462C26.3242 24.5962 26.7867 24.4743 27.2273 24.2306C28.0148 23.7962 28.6211 23.0149 28.8492 22.1462C29.0242 21.4774 28.9617 20.7368 28.9617 20.0524V14.9368C28.9617 14.2993 28.8023 13.6587 28.4617 13.1149C27.9867 12.3587 27.2086 11.7712 26.3273 11.5868C25.6648 11.4493 24.8461 11.4431 24.1992 11.6493C23.3461 11.9212 22.5742 12.5306 22.1773 13.3462C21.9242 13.8649 21.8055 14.4024 21.8055 14.9806V21.1149C21.8055 21.5493 21.843 21.9899 21.9992 22.3993C22.3211 23.2368 22.9242 23.9712 23.7586 24.3337C24.2117 24.5368 24.6742 24.6524 25.1773 24.6587C25.668 24.6618 26.1367 24.2243 26.1148 23.7212C26.093 23.2087 25.7023 22.7868 25.1773 22.7837C25.0617 22.7837 24.9492 22.7743 24.8336 22.7587C24.918 22.7712 24.9992 22.7806 25.0836 22.7931C24.8742 22.7618 24.6742 22.7056 24.4805 22.6243L24.7055 22.7181C24.568 22.6587 24.4336 22.5868 24.3086 22.5056C24.3023 22.5024 24.2086 22.4431 24.2086 22.4337C24.2086 22.4368 24.4148 22.6056 24.2867 22.4931C24.2305 22.4431 24.1742 22.3962 24.1211 22.3431C24.0742 22.2962 24.0273 22.2462 23.9836 22.1931C23.9305 22.1306 23.8805 22.0212 24.0273 22.2556C24.0055 22.2212 23.9805 22.1899 23.9555 22.1556C23.8711 22.0306 23.8023 21.8962 23.743 21.7587L23.8367 21.9837C23.7555 21.7899 23.6992 21.5899 23.668 21.3806C23.6805 21.4649 23.6898 21.5462 23.7023 21.6306C23.6648 21.3399 23.6773 21.0399 23.6773 20.7462V15.5774C23.6773 15.2337 23.6555 14.8806 23.7023 14.5399C23.6898 14.6243 23.6805 14.7056 23.668 14.7899C23.6992 14.5806 23.7555 14.3806 23.8367 14.1868L23.743 14.4118C23.8023 14.2743 23.8742 14.1399 23.9555 14.0149C23.9586 14.0087 24.018 13.9149 24.0273 13.9149C24.0242 13.9149 23.8555 14.1212 23.968 13.9931C24.018 13.9368 24.0648 13.8806 24.118 13.8274C24.1648 13.7806 24.2148 13.7337 24.268 13.6899C24.3305 13.6368 24.4398 13.5868 24.2055 13.7337C24.2398 13.7118 24.2711 13.6868 24.3055 13.6618C24.4305 13.5774 24.5648 13.5087 24.7023 13.4493L24.4773 13.5431C24.6711 13.4618 24.8711 13.4056 25.0805 13.3743C24.9961 13.3868 24.9148 13.3962 24.8305 13.4087C25.1805 13.3618 25.5742 13.3618 25.9273 13.4087C25.843 13.3962 25.7617 13.3868 25.6773 13.3743C25.8867 13.4056 26.0867 13.4618 26.2805 13.5431L26.0555 13.4493C26.193 13.5087 26.3273 13.5806 26.4523 13.6618C26.4586 13.6649 26.5523 13.7243 26.5523 13.7337C26.5523 13.7306 26.3461 13.5618 26.4742 13.6743C26.5305 13.7243 26.5867 13.7712 26.6398 13.8243C26.6867 13.8712 26.7336 13.9212 26.7773 13.9743C26.8305 14.0368 26.8805 14.1462 26.7336 13.9118C26.7555 13.9462 26.7805 13.9774 26.8055 14.0118C26.8898 14.1368 26.9586 14.2712 27.018 14.4087L26.9242 14.1837C27.0055 14.3774 27.0617 14.5774 27.093 14.7868C27.0805 14.7024 27.0711 14.6212 27.0586 14.5368C27.0961 14.8274 27.0836 15.1274 27.0836 15.4212V20.5899C27.0836 20.9337 27.1055 21.2868 27.0586 21.6274C27.0711 21.5431 27.0805 21.4618 27.093 21.3774C27.0617 21.5868 27.0055 21.7868 26.9242 21.9806L27.018 21.7556C26.9586 21.8931 26.8867 22.0274 26.8055 22.1524C26.8023 22.1587 26.743 22.2524 26.7336 22.2524C26.7367 22.2524 26.9055 22.0462 26.793 22.1743C26.743 22.2306 26.6961 22.2868 26.643 22.3399C26.5961 22.3868 26.5461 22.4337 26.493 22.4774C26.4305 22.5306 26.3211 22.5806 26.5555 22.4337C26.5211 22.4556 26.4898 22.4806 26.4555 22.5056C26.3305 22.5899 26.1961 22.6587 26.0586 22.7181L26.2836 22.6243C26.0898 22.7056 25.8898 22.7618 25.6805 22.7931C25.7648 22.7806 25.8461 22.7712 25.9305 22.7587C25.6805 22.7931 25.4305 22.7837 25.1773 22.7837C24.6867 22.7837 24.218 23.2149 24.2398 23.7212C24.2617 24.2274 24.6492 24.6587 25.1773 24.6587ZM6.41484 24.6587C6.63047 24.6587 6.84609 24.6681 7.06172 24.6462C7.56172 24.5962 8.02422 24.4743 8.46484 24.2306C9.25234 23.7962 9.85859 23.0149 10.0867 22.1462C10.2617 21.4774 10.1992 20.7368 10.1992 20.0524V14.9368C10.1992 14.2993 10.0398 13.6587 9.69922 13.1149C9.22422 12.3587 8.44609 11.7712 7.56484 11.5868C6.90234 11.4493 6.08359 11.4431 5.43672 11.6493C4.58359 11.9212 3.81172 12.5306 3.41484 13.3462C3.16172 13.8649 3.04297 14.4024 3.04297 14.9806V21.1149C3.04297 21.5493 3.08047 21.9899 3.23672 22.3993C3.55859 23.2368 4.16172 23.9712 4.99609 24.3337C5.44922 24.5368 5.91172 24.6524 6.41484 24.6587C6.90547 24.6618 7.37422 24.2243 7.35234 23.7212C7.33047 23.2087 6.93984 22.7868 6.41484 22.7837C6.29922 22.7837 6.18672 22.7743 6.07109 22.7587C6.15547 22.7712 6.23672 22.7806 6.32109 22.7931C6.11172 22.7618 5.91172 22.7056 5.71797 22.6243L5.94297 22.7181C5.80547 22.6587 5.67109 22.5868 5.54609 22.5056C5.53984 22.5024 5.44609 22.4431 5.44609 22.4337C5.44609 22.4368 5.65234 22.6056 5.52422 22.4931C5.46797 22.4431 5.41172 22.3962 5.35859 22.3431C5.31172 22.2962 5.26484 22.2462 5.22109 22.1931C5.16797 22.1306 5.11797 22.0212 5.26484 22.2556C5.24297 22.2212 5.21797 22.1899 5.19297 22.1556C5.10859 22.0306 5.03984 21.8962 4.98047 21.7587L5.07422 21.9837C4.99297 21.7899 4.93672 21.5899 4.90547 21.3806C4.91797 21.4649 4.92734 21.5462 4.93984 21.6306C4.90234 21.3399 4.91484 21.0399 4.91484 20.7462V15.5774C4.91484 15.2337 4.89297 14.8806 4.93984 14.5399C4.92734 14.6243 4.91797 14.7056 4.90547 14.7899C4.93672 14.5806 4.99297 14.3806 5.07422 14.1868L4.98047 14.4118C5.03984 14.2743 5.11172 14.1399 5.19297 14.0149C5.19609 14.0087 5.25547 13.9149 5.26484 13.9149C5.26172 13.9149 5.09297 14.1212 5.20547 13.9931C5.25547 13.9368 5.30234 13.8806 5.35547 13.8274C5.40234 13.7806 5.45234 13.7337 5.50547 13.6899C5.56797 13.6368 5.67734 13.5868 5.44297 13.7337C5.47734 13.7118 5.50859 13.6868 5.54297 13.6618C5.66797 13.5774 5.80234 13.5087 5.93984 13.4493L5.71484 13.5431C5.90859 13.4618 6.10859 13.4056 6.31797 13.3743C6.23359 13.3868 6.15234 13.3962 6.06797 13.4087C6.41797 13.3618 6.81172 13.3618 7.16484 13.4087C7.08047 13.3962 6.99922 13.3868 6.91484 13.3743C7.12422 13.4056 7.32422 13.4618 7.51797 13.5431L7.29297 13.4493C7.43047 13.5087 7.56484 13.5806 7.68984 13.6618C7.69609 13.6649 7.78984 13.7243 7.78984 13.7337C7.78984 13.7306 7.58359 13.5618 7.71172 13.6743C7.76797 13.7243 7.82422 13.7712 7.87734 13.8243C7.92422 13.8712 7.97109 13.9212 8.01484 13.9743C8.06797 14.0368 8.11797 14.1462 7.97109 13.9118C7.99297 13.9462 8.01797 13.9774 8.04297 14.0118C8.12734 14.1368 8.19609 14.2712 8.25547 14.4087L8.16172 14.1837C8.24297 14.3774 8.29922 14.5774 8.33047 14.7868C8.31797 14.7024 8.30859 14.6212 8.29609 14.5368C8.33359 14.8274 8.32109 15.1274 8.32109 15.4212V20.5899C8.32109 20.9337 8.34297 21.2868 8.29609 21.6274C8.30859 21.5431 8.31797 21.4618 8.33047 21.3774C8.29922 21.5868 8.24297 21.7868 8.16172 21.9806L8.25547 21.7556C8.19609 21.8931 8.12422 22.0274 8.04297 22.1524C8.03984 22.1587 7.98047 22.2524 7.97109 22.2524C7.97422 22.2524 8.14297 22.0462 8.03047 22.1743C7.98047 22.2306 7.93359 22.2868 7.88047 22.3399C7.83359 22.3868 7.78359 22.4337 7.73047 22.4774C7.66797 22.5306 7.55859 22.5806 7.79297 22.4337C7.75859 22.4556 7.72734 22.4806 7.69297 22.5056C7.56797 22.5899 7.43359 22.6587 7.29609 22.7181L7.52109 22.6243C7.32734 22.7056 7.12734 22.7618 6.91797 22.7931C7.00234 22.7806 7.08359 22.7712 7.16797 22.7587C6.91797 22.7931 6.66797 22.7837 6.41484 22.7837C5.92422 22.7837 5.45547 23.2149 5.47734 23.7212C5.49922 24.2274 5.88984 24.6587 6.41484 24.6587Z" fill="white"/>
<path d="M4.91484 21.0816V13.8722C4.91484 13.1972 4.93359 12.5253 5.02422 11.8534C5.01172 11.9378 5.00234 12.0191 4.98984 12.1034C5.13359 11.0534 5.41484 10.0284 5.82734 9.05343L5.73359 9.27843C5.97109 8.71906 6.25234 8.17531 6.57109 7.65656C6.72734 7.40343 6.88984 7.15968 7.06484 6.91906C7.10859 6.85656 7.15547 6.79718 7.19922 6.73781C7.21484 6.71593 7.23359 6.69406 7.24922 6.67218C7.34922 6.53781 7.09922 6.86281 7.20234 6.73156C7.29609 6.61281 7.38984 6.49406 7.48984 6.38156C7.87422 5.92531 8.29609 5.49718 8.74297 5.10343C8.85234 5.00968 8.96172 4.91593 9.07422 4.82218C9.12734 4.77843 9.18047 4.73468 9.23359 4.69406C9.28672 4.65031 9.42109 4.55343 9.17422 4.73781C9.20859 4.71281 9.23984 4.68781 9.27422 4.66281C9.51484 4.48156 9.76484 4.30656 10.0211 4.14406C10.593 3.77843 11.193 3.46281 11.818 3.19718L11.593 3.29093C12.568 2.87843 13.593 2.59718 14.643 2.45343C14.5586 2.46593 14.4773 2.47531 14.393 2.48781C15.4586 2.34406 16.543 2.34406 17.6086 2.48781C17.5242 2.47531 17.443 2.46593 17.3586 2.45343C18.4086 2.59718 19.4336 2.87843 20.4086 3.29093L20.1836 3.19718C20.743 3.43468 21.2867 3.71593 21.8055 4.03468C22.0586 4.19093 22.3023 4.35343 22.543 4.52843C22.6055 4.57218 22.6648 4.61906 22.7242 4.66281C22.7461 4.67843 22.768 4.69718 22.7898 4.71281C22.9242 4.81281 22.5992 4.56281 22.7305 4.66593C22.8492 4.75968 22.968 4.85343 23.0805 4.95343C23.5367 5.33781 23.9648 5.75968 24.3586 6.20656C24.4523 6.31593 24.5461 6.42531 24.6398 6.53781C24.6836 6.59093 24.7273 6.64406 24.768 6.69718C24.8117 6.75031 24.9086 6.88468 24.7242 6.63781C24.7492 6.67218 24.7742 6.70343 24.7992 6.73781C24.9805 6.97843 25.1555 7.22843 25.318 7.48468C25.6836 8.05656 25.9992 8.65656 26.2648 9.28156L26.1711 9.05656C26.5836 10.0316 26.8648 11.0566 27.0086 12.1066C26.9961 12.0222 26.9867 11.9409 26.9742 11.8566C27.068 12.5566 27.0836 13.2566 27.0836 13.9597V21.8659C27.0836 22.4659 27.1086 23.0784 27.0305 23.6753C27.043 23.5909 27.0523 23.5097 27.0648 23.4253C26.9961 23.9128 26.8648 24.3909 26.6773 24.8472L26.7711 24.6222C26.6273 24.9659 26.4492 25.2941 26.243 25.6034C26.193 25.6784 26.1398 25.7503 26.0898 25.8222C25.9742 25.9847 26.2273 25.6534 26.1242 25.7784C26.0992 25.8097 26.0742 25.8441 26.0461 25.8753C25.9273 26.0191 25.8055 26.1534 25.6742 26.2847C25.543 26.4159 25.4055 26.5409 25.2648 26.6566C25.2336 26.6816 25.2023 26.7097 25.168 26.7347C25.0398 26.8378 25.3523 26.5972 25.2273 26.6878C25.1492 26.7441 25.0711 26.8003 24.993 26.8534C24.6836 27.0597 24.3555 27.2378 24.0117 27.3816L24.2367 27.2878C23.7805 27.4753 23.3055 27.6066 22.8148 27.6753C22.8992 27.6628 22.9805 27.6534 23.0648 27.6409C22.5586 27.7097 22.0461 27.6941 21.5367 27.6941H19.1523C18.6617 27.6941 18.193 28.1253 18.2148 28.6316C18.2367 29.1409 18.6273 29.5691 19.1523 29.5691H21.5242C21.8211 29.5691 22.1211 29.5753 22.418 29.5691C23.2086 29.5503 24.0055 29.3972 24.7367 29.0972C26.2336 28.4784 27.5148 27.3691 28.2398 25.9066C28.743 24.8972 28.9648 23.8222 28.9648 22.7003V13.4691C28.9617 11.9972 28.7148 10.5066 28.2086 9.12218C27.6742 7.65343 26.8961 6.31593 25.893 5.11593C24.9492 3.98781 23.793 3.01906 22.5273 2.27531C21.2305 1.51593 19.7867 0.972184 18.3055 0.712809C16.7086 0.434684 15.1023 0.444059 13.5117 0.747184C12.0461 1.02531 10.6148 1.58781 9.33672 2.35968C8.07734 3.12218 6.93359 4.10031 6.00859 5.24093C5.01797 6.45968 4.25234 7.81281 3.73672 9.29718C3.27422 10.6347 3.04609 12.0628 3.04297 13.4753V21.0816C3.04297 21.5722 3.47422 22.0409 3.98047 22.0191C4.48359 21.9941 4.91484 21.6066 4.91484 21.0816Z" fill="white"/>
<path d="M18.213 28.6305C18.213 28.718 18.2068 28.8023 18.1943 28.8867C18.2068 28.8023 18.2162 28.7211 18.2287 28.6367C18.2037 28.8023 18.1599 28.9617 18.0974 29.118L18.1912 28.893C18.1443 28.9992 18.0912 29.1023 18.0287 29.1992C18.0255 29.2055 17.9787 29.2867 17.9724 29.2836C17.9693 29.2836 18.1287 29.093 18.0443 29.1898C18.0037 29.2367 17.963 29.2805 17.9224 29.3242C17.8849 29.3617 17.8443 29.3992 17.8037 29.4336C17.7443 29.4867 17.6599 29.5055 17.8818 29.3742C17.8599 29.3867 17.838 29.4055 17.8162 29.4211C17.713 29.4898 17.6037 29.5461 17.4912 29.5961L17.7162 29.5023C17.5599 29.5648 17.4005 29.6086 17.2349 29.6336C17.3193 29.6211 17.4005 29.6117 17.4849 29.5992C17.063 29.6523 16.6193 29.618 16.1943 29.618C15.7599 29.618 15.3099 29.6523 14.8755 29.6023C14.9599 29.6148 15.0412 29.6242 15.1255 29.6367C14.963 29.6117 14.8037 29.5711 14.6505 29.5117L14.8755 29.6055C14.7568 29.5555 14.6412 29.4961 14.5349 29.4242C14.4474 29.3648 14.4318 29.2961 14.5693 29.4555C14.5287 29.4086 14.4724 29.3711 14.4287 29.3273C14.3912 29.2898 14.3224 29.2336 14.3005 29.1867C14.3287 29.2242 14.3599 29.2617 14.388 29.3023C14.3693 29.2773 14.3505 29.2492 14.3318 29.2242C14.2599 29.118 14.2005 29.0023 14.1505 28.8836L14.2443 29.1086C14.1849 28.9555 14.1412 28.7992 14.1193 28.6336C14.1318 28.718 14.1412 28.7992 14.1537 28.8836C14.1349 28.7117 14.1318 28.543 14.1537 28.3742C14.1412 28.4586 14.1318 28.5398 14.1193 28.6242C14.1443 28.4586 14.188 28.2992 14.2505 28.143L14.1568 28.368C14.2037 28.2617 14.2568 28.1586 14.3193 28.0617C14.3224 28.0555 14.3693 27.9742 14.3755 27.9773C14.3787 27.9773 14.2193 28.168 14.3037 28.0711C14.3443 28.0242 14.3849 27.9805 14.4255 27.9367C14.463 27.8992 14.5037 27.8617 14.5443 27.8273C14.6037 27.7742 14.688 27.7555 14.4662 27.8867C14.488 27.8742 14.5099 27.8555 14.5318 27.8398C14.6349 27.7711 14.7443 27.7148 14.8568 27.6648L14.6318 27.7586C14.788 27.6961 14.9474 27.6523 15.113 27.6273C15.0287 27.6398 14.9474 27.6492 14.863 27.6617C15.2849 27.6086 15.7287 27.643 16.1537 27.643C16.588 27.643 17.038 27.6086 17.4724 27.6586C17.388 27.6461 17.3068 27.6367 17.2224 27.6242C17.3849 27.6492 17.5443 27.6898 17.6974 27.7492L17.4724 27.6555C17.5912 27.7055 17.7068 27.7648 17.813 27.8367C17.9005 27.8961 17.9162 27.9648 17.7787 27.8055C17.8193 27.8523 17.8755 27.8898 17.9193 27.9336C17.9568 27.9711 18.0255 28.0273 18.0474 28.0742C18.0193 28.0367 17.988 27.9992 17.9599 27.9586C17.9787 27.9836 17.9974 28.0117 18.0162 28.0367C18.088 28.143 18.1474 28.2586 18.1974 28.3773L18.1037 28.1523C18.163 28.3055 18.2068 28.4617 18.2287 28.6273C18.2162 28.543 18.2068 28.4617 18.1943 28.3773C18.2068 28.4617 18.213 28.5461 18.213 28.6305C18.2193 29.1211 18.6412 29.5898 19.1505 29.568C19.6537 29.5461 20.0943 29.1555 20.088 28.6305C20.0755 27.5805 19.4787 26.5273 18.5099 26.0711C18.0912 25.8742 17.6724 25.7648 17.2068 25.7617H15.4099C14.8162 25.7617 14.2537 25.8336 13.7224 26.1273C12.8849 26.5867 12.3787 27.4398 12.2693 28.3711C12.1443 29.4336 12.7068 30.4617 13.5787 31.043C14.1255 31.4086 14.7568 31.4961 15.3974 31.4961H17.2162C17.6974 31.493 18.1568 31.3711 18.5849 31.1492C19.5099 30.6648 20.0787 29.6586 20.0912 28.6273C20.0974 28.1367 19.6568 27.668 19.1537 27.6898C18.638 27.718 18.2193 28.1055 18.213 28.6305Z" fill="white"/>
</svg>
