<svg viewBox="0 0 32 32" fill="none" xmlns="http://www.w3.org/2000/svg">
<path d="M24.3506 23.7125C24.5489 23.7125 24.7471 23.7212 24.9454 23.7011C25.4051 23.6551 25.8303 23.543 26.2354 23.3189C26.9595 22.9196 27.5168 22.2013 27.7266 21.4025C27.8875 20.7877 27.83 20.1067 27.83 19.4775V14.7741C27.83 14.188 27.6835 13.599 27.3703 13.0991C26.9336 12.4038 26.2182 11.8636 25.4079 11.6941C24.7988 11.5677 24.0461 11.5619 23.4513 11.7516C22.6669 12.0015 21.9573 12.5618 21.5924 13.3117C21.3597 13.7886 21.2505 14.2828 21.2505 14.8144V20.4544C21.2505 20.8537 21.285 21.2589 21.4286 21.6352C21.7245 22.4053 22.2791 23.0805 23.0462 23.4137C23.4628 23.6005 23.888 23.7068 24.3506 23.7125C24.8017 23.7154 25.2327 23.3132 25.2126 22.8506C25.1925 22.3794 24.8333 21.9915 24.3506 21.9886C24.2443 21.9886 24.1409 21.98 24.0346 21.9657C24.1121 21.9772 24.1868 21.9858 24.2644 21.9973C24.0719 21.9685 23.888 21.9168 23.7099 21.8421L23.9168 21.9283C23.7904 21.8737 23.6668 21.8076 23.5519 21.7329C23.5461 21.7301 23.4599 21.6755 23.4599 21.6669C23.4599 21.6697 23.6496 21.8249 23.5318 21.7214C23.4801 21.6755 23.4283 21.6324 23.3795 21.5835C23.3364 21.5404 23.2933 21.4945 23.2531 21.4456C23.2042 21.3882 23.1583 21.2876 23.2933 21.5031C23.2732 21.4715 23.2502 21.4427 23.2272 21.4111C23.1496 21.2962 23.0864 21.1727 23.0318 21.0463L23.118 21.2531C23.0433 21.075 22.9916 20.8911 22.9629 20.6986C22.9744 20.7762 22.983 20.8509 22.9945 20.9285C22.96 20.6612 22.9715 20.3854 22.9715 20.1153V15.3631C22.9715 15.0471 22.9514 14.7224 22.9945 14.4092C22.983 14.4868 22.9744 14.5615 22.9629 14.6391C22.9916 14.4466 23.0433 14.2627 23.118 14.0846L23.0318 14.2914C23.0864 14.165 23.1525 14.0415 23.2272 13.9265C23.2301 13.9208 23.2847 13.8346 23.2933 13.8346C23.2904 13.8346 23.1353 14.0242 23.2387 13.9064C23.2847 13.8547 23.3278 13.803 23.3766 13.7542C23.4197 13.7111 23.4657 13.668 23.5145 13.6277C23.572 13.5789 23.6726 13.5329 23.4571 13.668C23.4887 13.6479 23.5174 13.6249 23.549 13.6019C23.6639 13.5243 23.7875 13.4611 23.9139 13.4065L23.707 13.4927C23.8852 13.418 24.069 13.3663 24.2616 13.3376C24.184 13.349 24.1093 13.3577 24.0317 13.3692C24.3535 13.3261 24.7155 13.3261 25.0402 13.3692C24.9626 13.3577 24.8879 13.349 24.8103 13.3376C25.0028 13.3663 25.1867 13.418 25.3648 13.4927L25.158 13.4065C25.2844 13.4611 25.4079 13.5272 25.5229 13.6019C25.5286 13.6048 25.6148 13.6593 25.6148 13.668C25.6148 13.6651 25.4252 13.5099 25.543 13.6134C25.5947 13.6593 25.6464 13.7024 25.6953 13.7513C25.7384 13.7944 25.7815 13.8404 25.8217 13.8892C25.8705 13.9467 25.9165 14.0472 25.7815 13.8317C25.8016 13.8633 25.8246 13.8921 25.8475 13.9237C25.9251 14.0386 25.9883 14.1621 26.0429 14.2886L25.9567 14.0817C26.0314 14.2598 26.0831 14.4437 26.1119 14.6362C26.1004 14.5586 26.0918 14.4839 26.0803 14.4064C26.1147 14.6736 26.1033 14.9494 26.1033 15.2195V19.9717C26.1033 20.2877 26.1234 20.6124 26.0803 20.9256C26.0918 20.848 26.1004 20.7733 26.1119 20.6957C26.0831 20.8882 26.0314 21.0721 25.9567 21.2502L26.0429 21.0434C25.9883 21.1698 25.9222 21.2933 25.8475 21.4083C25.8447 21.414 25.7901 21.5002 25.7815 21.5002C25.7843 21.5002 25.9395 21.3106 25.836 21.4284C25.7901 21.4801 25.747 21.5318 25.6981 21.5807C25.655 21.6238 25.6091 21.6669 25.5602 21.7071C25.5028 21.7559 25.4022 21.8019 25.6177 21.6669C25.5861 21.687 25.5573 21.71 25.5257 21.7329C25.4108 21.8105 25.2873 21.8737 25.1609 21.9283L25.3677 21.8421C25.1896 21.9168 25.0057 21.9685 24.8132 21.9973C24.8908 21.9858 24.9655 21.9772 25.0431 21.9657C24.8132 21.9973 24.5833 21.9886 24.3506 21.9886C23.8995 21.9886 23.4686 22.3851 23.4887 22.8506C23.5088 23.316 23.8651 23.7125 24.3506 23.7125ZM7.10014 23.7125C7.29839 23.7125 7.49664 23.7212 7.69489 23.7011C8.1546 23.6551 8.57982 23.543 8.98494 23.3189C9.70898 22.9196 10.2664 22.2013 10.4761 21.4025C10.637 20.7877 10.5795 20.1067 10.5795 19.4775V14.7741C10.5795 14.188 10.433 13.599 10.1198 13.0991C9.68312 12.4038 8.9677 11.8636 8.15747 11.6941C7.54836 11.5677 6.79559 11.5619 6.20084 11.7516C5.41647 12.0015 4.7068 12.5618 4.34191 13.3117C4.10918 13.7886 4 14.2828 4 14.8144V20.4544C4 20.8537 4.03448 21.2589 4.17814 21.6352C4.47407 22.4053 5.02859 23.0805 5.79573 23.4137C6.21234 23.6005 6.63756 23.7068 7.10014 23.7125C7.55123 23.7154 7.98221 23.3132 7.96209 22.8506C7.94198 22.3794 7.58284 21.9915 7.10014 21.9886C6.99384 21.9886 6.8904 21.98 6.7841 21.9657C6.86167 21.9772 6.93637 21.9858 7.01395 21.9973C6.82145 21.9685 6.63756 21.9168 6.45943 21.8421L6.6663 21.9283C6.53988 21.8737 6.41633 21.8076 6.3014 21.7329C6.29566 21.7301 6.20946 21.6755 6.20946 21.6669C6.20946 21.6697 6.39909 21.8249 6.28129 21.7214C6.22958 21.6755 6.17786 21.6324 6.12901 21.5835C6.08592 21.5404 6.04282 21.4945 6.0026 21.4456C5.95375 21.3882 5.90778 21.2876 6.04282 21.5031C6.02271 21.4715 5.99972 21.4427 5.97674 21.4111C5.89916 21.2962 5.83595 21.1727 5.78136 21.0463L5.86756 21.2531C5.79285 21.075 5.74114 20.8911 5.71241 20.6986C5.7239 20.7762 5.73252 20.8509 5.74401 20.9285C5.70953 20.6612 5.72103 20.3854 5.72103 20.1153V15.3631C5.72103 15.0471 5.70091 14.7224 5.74401 14.4092C5.73252 14.4868 5.7239 14.5615 5.71241 14.6391C5.74114 14.4466 5.79285 14.2627 5.86756 14.0846L5.78136 14.2914C5.83595 14.165 5.90203 14.0415 5.97674 13.9265C5.97961 13.9208 6.0342 13.8346 6.04282 13.8346C6.03995 13.8346 5.8848 14.0242 5.98823 13.9064C6.0342 13.8547 6.0773 13.803 6.12614 13.7542C6.16924 13.7111 6.21521 13.668 6.26405 13.6277C6.32152 13.5789 6.42208 13.5329 6.20659 13.668C6.23819 13.6479 6.26693 13.6249 6.29853 13.6019C6.41346 13.5243 6.537 13.4611 6.66342 13.4065L6.45656 13.4927C6.63469 13.418 6.81857 13.3663 7.01108 13.3376C6.9335 13.349 6.8588 13.3577 6.78122 13.3692C7.10302 13.3261 7.46504 13.3261 7.7897 13.3692C7.71213 13.3577 7.63743 13.349 7.55985 13.3376C7.75235 13.3663 7.93624 13.418 8.11437 13.4927L7.9075 13.4065C8.03392 13.4611 8.15747 13.5272 8.2724 13.6019C8.27814 13.6048 8.36434 13.6593 8.36434 13.668C8.36434 13.6651 8.17471 13.5099 8.29251 13.6134C8.34422 13.6593 8.39594 13.7024 8.44479 13.7513C8.48788 13.7944 8.53098 13.8404 8.5712 13.8892C8.62005 13.9467 8.66602 14.0472 8.53098 13.8317C8.55109 13.8633 8.57408 13.8921 8.59706 13.9237C8.67464 14.0386 8.73785 14.1621 8.79244 14.2886L8.70624 14.0817C8.78095 14.2598 8.83266 14.4437 8.86139 14.6362C8.8499 14.5586 8.84128 14.4839 8.82979 14.4064C8.86427 14.6736 8.85277 14.9494 8.85277 15.2195V19.9717C8.85277 20.2877 8.87289 20.6124 8.82979 20.9256C8.84128 20.848 8.8499 20.7733 8.86139 20.6957C8.83266 20.8882 8.78095 21.0721 8.70624 21.2502L8.79244 21.0434C8.73785 21.1698 8.67176 21.2933 8.59706 21.4083C8.59419 21.414 8.5396 21.5002 8.53098 21.5002C8.53385 21.5002 8.689 21.3106 8.58557 21.4284C8.5396 21.4801 8.4965 21.5318 8.44766 21.5807C8.40456 21.6238 8.35859 21.6669 8.30975 21.7071C8.25228 21.7559 8.15172 21.8019 8.36721 21.6669C8.3356 21.687 8.30687 21.71 8.27527 21.7329C8.16034 21.8105 8.0368 21.8737 7.91038 21.9283L8.11724 21.8421C7.93911 21.9168 7.75523 21.9685 7.56272 21.9973C7.6403 21.9858 7.715 21.9772 7.79258 21.9657C7.56272 21.9973 7.33287 21.9886 7.10014 21.9886C6.64906 21.9886 6.21808 22.3851 6.23819 22.8506C6.25831 23.316 6.61745 23.7125 7.10014 23.7125Z" fill="currentColor"/>
<path d="M5.72103 20.4239V13.7955C5.72103 13.1749 5.73826 12.5572 5.82159 11.9394C5.81009 12.017 5.80147 12.0917 5.78998 12.1693C5.92215 11.2039 6.18073 10.2615 6.55999 9.36508L6.47379 9.57195C6.69215 9.05765 6.95074 8.55772 7.2438 8.08077C7.38746 7.84805 7.53687 7.62394 7.69776 7.40271C7.73799 7.34524 7.78108 7.29065 7.82131 7.23606C7.83567 7.21595 7.85291 7.19584 7.86728 7.17573C7.95922 7.05218 7.72937 7.35099 7.82418 7.23032C7.91038 7.12114 7.99657 7.01196 8.08851 6.90852C8.44191 6.48904 8.82979 6.09542 9.24065 5.7334C9.34121 5.6472 9.44177 5.56101 9.54521 5.47481C9.59405 5.43459 9.64289 5.39437 9.69174 5.35701C9.74058 5.31679 9.86413 5.22772 9.63715 5.39724C9.66875 5.37425 9.69748 5.35127 9.72909 5.32828C9.95032 5.16164 10.1802 5.00074 10.4158 4.85134C10.9416 4.51518 11.4932 4.22499 12.0678 3.98077L11.861 4.06696C12.7574 3.68771 13.6998 3.42912 14.6652 3.29696C14.5876 3.30845 14.5129 3.31707 14.4353 3.32856C15.4151 3.1964 16.4121 3.1964 17.3918 3.32856C17.3142 3.31707 17.2395 3.30845 17.162 3.29696C18.1273 3.42912 19.0697 3.68771 19.9662 4.06696L19.7593 3.98077C20.2736 4.19913 20.7735 4.45771 21.2505 4.75078C21.4832 4.89444 21.7073 5.04384 21.9285 5.20474C21.986 5.24496 22.0406 5.28806 22.0952 5.32828C22.1153 5.34265 22.1354 5.35989 22.1555 5.37425C22.2791 5.4662 21.9803 5.23634 22.1009 5.33116C22.2101 5.41735 22.3193 5.50355 22.4227 5.59549C22.8422 5.94889 23.2358 6.33676 23.5979 6.74763C23.684 6.84819 23.7702 6.94875 23.8564 7.05218C23.8967 7.10103 23.9369 7.14987 23.9742 7.19871C24.0145 7.24756 24.1035 7.3711 23.934 7.14412C23.957 7.17573 23.98 7.20446 24.003 7.23606C24.1696 7.4573 24.3305 7.68715 24.4799 7.92275C24.8161 8.44854 25.1063 9.00019 25.3505 9.57482L25.2643 9.36795C25.6435 10.2644 25.9021 11.2068 26.0343 12.1722C26.0228 12.0946 26.0142 12.0199 26.0027 11.9423C26.0889 12.5859 26.1033 13.2295 26.1033 13.8759V21.1451C26.1033 21.6967 26.1262 22.2598 26.0544 22.8086C26.0659 22.731 26.0745 22.6563 26.086 22.5788C26.0228 23.027 25.9021 23.4666 25.7297 23.8861L25.8159 23.6792C25.6838 23.9952 25.52 24.2969 25.3304 24.5814C25.2844 24.6503 25.2356 24.7164 25.1896 24.7825C25.0833 24.9319 25.316 24.6273 25.2212 24.7423C25.1982 24.771 25.1752 24.8026 25.1494 24.8313C25.0402 24.9635 24.9281 25.087 24.8075 25.2077C24.6868 25.3284 24.5604 25.4433 24.4311 25.5496C24.4023 25.5726 24.3736 25.5985 24.342 25.6214C24.2242 25.7163 24.5115 25.495 24.3966 25.5783C24.3248 25.6301 24.2529 25.6818 24.1811 25.7306C23.8967 25.9203 23.595 26.084 23.2789 26.2162L23.4858 26.13C23.0663 26.3024 22.6296 26.4231 22.1785 26.4863C22.2561 26.4748 22.3308 26.4662 22.4084 26.4547C21.9429 26.5179 21.4717 26.5035 21.0034 26.5035H18.8112C18.3601 26.5035 17.9291 26.9 17.9492 27.3655C17.9693 27.8338 18.3285 28.2274 18.8112 28.2274H20.9919C21.2648 28.2274 21.5407 28.2331 21.8136 28.2274C22.5405 28.2102 23.2732 28.0694 23.9455 27.7936C25.3218 27.2247 26.4997 26.2047 27.1663 24.8601C27.6289 23.932 27.8329 22.9437 27.8329 21.9122V13.4249C27.83 12.0716 27.603 10.7011 27.1376 9.42829C26.6463 8.0779 25.9309 6.84819 25.0086 5.74489C24.1409 4.70768 23.0778 3.817 21.9142 3.13319C20.7218 2.43501 19.3944 1.93508 18.0325 1.6966C16.5643 1.44089 15.0875 1.44951 13.6251 1.72821C12.2776 1.98392 10.9617 2.50109 9.78655 3.21076C8.62867 3.91181 7.57709 4.81111 6.72663 5.85982C5.81584 6.98035 5.11191 8.22443 4.63784 9.58919C4.21261 10.8189 4.00287 12.1319 4 13.4306V20.4239C4 20.875 4.3965 21.3059 4.86195 21.2858C5.32453 21.2629 5.72103 20.9066 5.72103 20.4239Z" fill="currentColor"/>
<path d="M17.4807 27.3641C17.4807 27.4446 17.475 27.5222 17.4635 27.5997C17.475 27.5222 17.4836 27.4474 17.4951 27.3699C17.4721 27.5222 17.4319 27.6687 17.3744 27.8123L17.4606 27.6055C17.4175 27.7032 17.3686 27.798 17.3112 27.887C17.3083 27.8928 17.2652 27.9675 17.2595 27.9646C17.2566 27.9646 17.4031 27.7894 17.3256 27.8784C17.2882 27.9215 17.2508 27.9617 17.2135 28.002C17.179 28.0364 17.1417 28.0709 17.1043 28.1025C17.0497 28.1514 16.9722 28.1686 17.1761 28.0479C17.156 28.0594 17.1359 28.0767 17.1158 28.091C17.021 28.1542 16.9204 28.206 16.817 28.2519L17.0239 28.1657C16.8802 28.2232 16.7337 28.2634 16.5814 28.2864C16.659 28.2749 16.7337 28.2663 16.8113 28.2548C16.4234 28.3037 16.0154 28.272 15.6246 28.272C15.2253 28.272 14.8115 28.3037 14.4122 28.2577C14.4897 28.2692 14.5644 28.2778 14.642 28.2893C14.4926 28.2663 14.3461 28.2289 14.2053 28.1744L14.4122 28.2606C14.303 28.2146 14.1967 28.16 14.099 28.0939C14.0185 28.0393 14.0042 27.9761 14.1306 28.1226C14.0932 28.0795 14.0415 28.0451 14.0013 28.0048C13.9668 27.9704 13.9036 27.9186 13.8835 27.8755C13.9094 27.91 13.9381 27.9445 13.9639 27.9819C13.9467 27.9589 13.9295 27.933 13.9122 27.91C13.8461 27.8123 13.7916 27.706 13.7456 27.5969L13.8318 27.8037C13.7772 27.6629 13.737 27.5193 13.7169 27.367C13.7283 27.4446 13.737 27.5193 13.7485 27.5969C13.7312 27.4388 13.7283 27.2837 13.7485 27.1285C13.737 27.2061 13.7283 27.2808 13.7169 27.3584C13.7398 27.2061 13.7801 27.0596 13.8375 26.9159L13.7513 27.1228C13.7944 27.0251 13.8433 26.9303 13.9007 26.8412C13.9036 26.8355 13.9467 26.7608 13.9525 26.7636C13.9553 26.7636 13.8088 26.9389 13.8864 26.8498C13.9237 26.8067 13.9611 26.7665 13.9984 26.7263C14.0329 26.6918 14.0703 26.6573 14.1076 26.6257C14.1622 26.5769 14.2398 26.5596 14.0358 26.6803C14.0559 26.6688 14.076 26.6516 14.0961 26.6372C14.1909 26.574 14.2915 26.5223 14.3949 26.4763L14.1881 26.5625C14.3317 26.5051 14.4782 26.4648 14.6305 26.4418C14.5529 26.4533 14.4782 26.462 14.4007 26.4734C14.7885 26.4246 15.1965 26.4562 15.5873 26.4562C15.9867 26.4562 16.4004 26.4246 16.7998 26.4706C16.7222 26.4591 16.6475 26.4505 16.5699 26.439C16.7193 26.462 16.8658 26.4993 17.0066 26.5539L16.7998 26.4677C16.9089 26.5137 17.0152 26.5683 17.1129 26.6343C17.1934 26.6889 17.2078 26.7521 17.0813 26.6056C17.1187 26.6487 17.1704 26.6832 17.2106 26.7234C17.2451 26.7579 17.3083 26.8096 17.3284 26.8527C17.3026 26.8182 17.2738 26.7837 17.248 26.7464C17.2652 26.7694 17.2825 26.7952 17.2997 26.8182C17.3658 26.9159 17.4204 27.0222 17.4663 27.1314L17.3801 26.9245C17.4347 27.0653 17.475 27.209 17.4951 27.3613C17.4836 27.2837 17.475 27.209 17.4635 27.1314C17.475 27.209 17.4807 27.2866 17.4807 27.3641C17.4864 27.8152 17.8743 28.2462 18.3427 28.2261C18.8052 28.206 19.2103 27.8468 19.2046 27.3641C19.1931 26.3987 18.6443 25.4305 17.7537 25.011C17.3686 24.83 16.9836 24.7294 16.5555 24.7266H14.9035C14.3576 24.7266 13.8404 24.7926 13.352 25.0627C12.582 25.4851 12.1165 26.2695 12.0159 27.1257C11.901 28.1025 12.4182 29.0478 13.2198 29.5822C13.7226 29.9184 14.303 29.9988 14.892 29.9988H16.5642C17.0066 29.9959 17.429 29.8839 17.8226 29.6799C18.6731 29.2346 19.196 28.3094 19.2075 27.3613C19.2132 26.9102 18.8081 26.4792 18.3455 26.4993C17.8715 26.5252 17.4864 26.8814 17.4807 27.3641Z" fill="currentColor"/>
</svg>
