<svg viewBox="0 0 32 32" fill="none" xmlns="http://www.w3.org/2000/svg">
<path d="M28.8975 16.7495C29.605 16.0089 29.9999 15.0242 30 14C30 11.7945 28.2055 10 26 10C23.7945 10 22 11.7945 22 14C22 15.0645 22.4205 16.0305 23.101 16.748C22.5597 17.0465 22.0682 17.4274 21.644 17.877C21.0114 17.0108 20.1891 16.3007 19.24 15.801C20.315 14.883 21 13.521 21 12C21 9.243 18.757 7 16 7C13.243 7 11 9.243 11 12C11 13.521 11.685 14.883 12.76 15.801C11.811 16.3009 10.9888 17.011 10.356 17.877C9.9318 17.4274 9.44026 17.0465 8.899 16.748C9.60555 16.0076 9.99983 15.0235 10 14C10 11.7945 8.2055 10 6 10C3.7945 10 2 11.7945 2 14C2 15.065 2.421 16.032 3.1025 16.7495C1.255 17.7735 0 19.742 0 22V24C0 24.2652 0.105357 24.5196 0.292893 24.7071C0.48043 24.8946 0.734784 25 1 25H31C31.2652 25 31.5196 24.8946 31.7071 24.7071C31.8946 24.5196 32 24.2652 32 24V22C32 19.742 30.745 17.7735 28.8975 16.7495ZM24 14C24 12.897 24.897 12 26 12C27.103 12 28 12.897 28 14C28 15.103 27.103 16 26 16C24.897 16 24 15.103 24 14ZM13 12C13 10.3455 14.3455 9 16 9C17.6545 9 19 10.3455 19 12C19 13.6545 17.6545 15 16 15C14.3455 15 13 13.6545 13 12ZM4 14C4 12.897 4.897 12 6 12C7.103 12 8 12.897 8 14C8 15.103 7.103 16 6 16C4.897 16 4 15.103 4 14ZM2 22C2 19.7945 3.7945 18 6 18C7.369 18 8.614 18.6955 9.348 19.8315C9.11798 20.5314 9.00052 21.2633 9 22V23H2V22ZM11 22C11 19.243 13.243 17 16 17C18.757 17 21 19.243 21 22V23H11V22ZM30 23H23V22C23 21.2425 22.8755 20.515 22.652 19.8315C23.386 18.6955 24.631 18 26 18C28.2055 18 30 19.7945 30 22V23Z" fill="currentColor"/>
</svg>
