<svg width="22" height="22" viewBox="0 0 22 22" fill="none" xmlns="http://www.w3.org/2000/svg">
<path fill-rule="evenodd" clip-rule="evenodd" d="M20 4.57192C20 3.1512 18.8493 2.00049 17.4286 2.00049H4.57143C3.15071 2.00049 2 3.1512 2 4.57192V17.4291C2 18.8498 3.15071 20.0005 4.57143 20.0005H17.4286C18.8493 20.0005 20 18.8498 20 17.4291V4.57192Z" fill="white"/>
<path d="M5.55816 16.2328H6.84388L10.2767 12.3307L13.2628 16.2264H16.7535L12.1732 10.1707L16.0496 5.76709H14.7639L11.5785 9.38638L8.84638 5.7703H5.24316L9.67566 11.5528L5.55495 16.236L5.55816 16.2328ZM7.20066 6.73138H8.37066L14.8185 15.2621H13.7417L7.20388 6.73138H7.20066Z" fill="#1E0A52"/>
</svg>
