<svg width="24" height="24" viewBox="0 0 24 24" fill="none" xmlns="http://www.w3.org/2000/svg">
<path d="M10.6666 12C10.6666 12.7363 10.0694 13.3334 9.33312 13.3334C7.12736 13.3334 5.33312 11.5392 5.33312 9.33344C5.33312 8.59712 5.93024 8 6.66656 8C7.40288 8 8 8.59712 8 9.33344C8 10.0685 8.5984 10.6669 9.33344 10.6669C10.0698 10.6666 10.6666 11.2637 10.6666 12ZM23.6093 23.6093C23.3488 23.8698 23.0077 24 22.6666 24C22.3254 24 21.9843 23.8698 21.7238 23.6093L14.9123 16.7978C13.3539 17.9658 11.4262 18.6669 9.33344 18.6669C4.18688 18.6669 0 14.4794 0 9.33344C0 4.18688 4.18688 0 9.33344 0C14.4794 0 18.6669 4.18688 18.6669 9.33344C18.6669 11.4262 17.9658 13.3539 16.7978 14.9123L23.6096 21.7242C24.1302 22.2448 24.1302 23.0886 23.6093 23.6093ZM9.33344 16C13.0093 16 16 13.009 16 9.33344C16 5.65792 13.009 2.66688 9.33344 2.66688C5.65792 2.66688 2.66656 5.6576 2.66656 9.33344C2.66656 13.0093 5.6576 16 9.33344 16Z" fill="white"/>
</svg>
