<svg xmlns="http://www.w3.org/2000/svg" xmlns:xlink="http://www.w3.org/1999/xlink" viewBox="-4 0 52 42" style="display:block; margin:auto; width:100%; max-width:200px; height:auto;">
  <defs>
    <linearGradient id="lg1" x1="15.68" x2="42.5" y1="31.72" y2="14.24" gradientUnits="userSpaceOnUse">
      <stop offset="0" stop-color="#ffc131"/>
      <stop offset="0.78" stop-color="#ffe433"/>
    </linearGradient>
    <linearGradient id="lg2" x1="26.92" x2="50.73" y1="31.45" y2="15.69" gradientUnits="userSpaceOnUse">
      <stop offset="0" stop-color="#5f1db8"/>
      <stop offset="1" stop-color="#aa79fd"/>
    </linearGradient>
    <linearGradient xlink:href="#lg1" id="lg3" x1="20.65" x2="28.36" y1="15.52" y2="10.51"/>
  </defs>
  <path d="m28.88 18.22-6.63 8.47h8.78L15.68 42.03l5.8-11.29h-9.21l8.29-12.52z" style="fill-rule:evenodd;fill:url(#lg1)"/>
  <path d="M50.6 31.57a6.4 6.4 0 0 0 .4-12.78l-1.7-.09-.15-1.7a9.52 9.52 0 0 0-18.69-1.53l-.51 2-1.95-.6a8 8 0 0 0-1-.23 7.51 7.51 0 0 0-8.6 7.43 7.51 7.51 0 0 0 6.6 7.45l-2 3.55a11.24 11.24 0 0 1-5.13-3 11.38 11.38 0 0 1 9.43-19.3 13.4 13.4 0 0 1 25.49 2.37 10.27 10.27 0 0 1-2.19 20.31h-5.48L49 31.57Z" transform="translate(-14.49 -4.48)" style="fill-rule:evenodd;fill:url(#lg2)"/>
  <circle cx="24.74" cy="12.86" r="4.14" style="fill:url(#lg3)"/>
</svg>