<svg width="48" height="48" viewBox="0 0 48 48" fill="none" xmlns="http://www.w3.org/2000/svg">
<path fill-rule="evenodd" clip-rule="evenodd" d="M5.30907 30.9608C5.02286 30.4582 4.78107 29.9535 4.62597 29.4957C3.15229 25.1438 3.52698 20.2013 5.56125 16.3702C6.86907 13.9072 8.95528 11.9854 11.3585 10.6772C15.6864 8.32128 22.8044 8.37608 23.8804 8.37608C24.9561 8.37608 32.0741 8.32128 36.4023 10.6772C38.8052 11.9854 40.8914 13.9072 42.1992 16.3702C44.2338 20.2013 44.6082 25.1438 43.1345 29.4957C42.9794 29.9535 42.738 30.4582 42.4514 30.9608C42.2404 33.0051 41.5433 34.9935 40.3093 36.488C37.0754 40.4043 32.9277 39.5858 29.951 38.4277C28.0009 37.669 26.956 36.8347 26.092 36.1867C25.4028 35.6698 24.8658 35.2797 23.8804 35.2797C22.8946 35.2797 22.3577 35.6698 21.6688 36.1867C20.8045 36.8347 19.7596 37.669 17.8095 38.4277C14.8331 39.5858 10.6851 40.4043 7.45116 36.488C6.21749 34.9935 5.52006 33.0051 5.30907 30.9608ZM42.2537 26.9951C42.9099 23.5821 42.4235 19.9749 40.881 17.0702C39.7115 14.8675 37.8373 13.1578 35.6884 11.9883C31.6102 9.76808 24.8941 9.86838 23.8804 9.86838C22.8663 9.86838 16.1503 9.76808 12.0721 11.9883C9.92316 13.1578 8.04901 14.8675 6.87946 17.0702C5.33701 19.9749 4.85092 23.5821 5.5068 26.9951C5.77653 25.7095 6.24794 24.5259 6.90597 23.5742C7.24626 23.082 7.7148 22.5583 8.29868 22.0357C7.81653 20.5502 7.96519 18.5252 9.02585 17.0254C9.88268 15.8136 11.8496 14.6064 13.8115 13.9169C16.6872 12.906 21.493 12.5184 23.8804 12.5184C26.2675 12.5184 31.0732 12.906 33.9493 13.9169C35.9109 14.6064 37.8778 15.8136 38.7346 17.0254C39.7956 18.5256 39.9439 20.5502 39.4618 22.0357C40.0457 22.5583 40.5142 23.082 40.8549 23.5742C41.5125 24.5259 41.9839 25.7095 42.2537 26.9951ZM9.57964 21.027C10.6012 20.3152 11.8331 19.6471 13.2384 19.1127C13.1481 18.6689 13.0725 18.0477 13.118 17.3048C13.1352 17.0225 13.3104 16.7743 13.5708 16.6636C14.9997 16.0561 16.5282 15.8451 18.009 15.7068C18.2648 15.6832 18.5148 15.7924 18.6706 15.9963C19.0919 16.5468 19.3691 17.2887 19.5285 17.8178C20.9116 17.7049 22.3684 17.6619 23.8804 17.6619C27.5363 17.6619 30.8712 17.9116 33.6212 18.7967C35.4047 19.3709 36.9461 20.1672 38.1808 21.0273C38.3553 20.0211 38.1733 18.8164 37.516 17.8869C36.7949 16.8674 35.1052 15.9053 33.4543 15.325C30.7204 14.3643 26.1497 14.0111 23.8804 14.0111C21.6108 14.0111 17.0404 14.3643 14.3062 15.325C12.6556 15.9053 10.9655 16.8674 10.2445 17.8869C9.58752 18.8164 9.40555 20.0211 9.57964 21.027ZM14.6684 18.6366C15.7129 18.3386 16.8352 18.124 18.0215 17.9732C17.9413 17.7382 17.8356 17.4782 17.7013 17.2367C16.6639 17.3446 15.6079 17.5036 14.5981 17.8643C14.6042 18.1616 14.6329 18.4221 14.6684 18.6366ZM23.8804 33.7871C25.0055 33.7871 25.7324 34.1148 26.4807 34.626C27.3891 35.2468 28.3365 36.1982 30.4922 37.0367C32.9764 38.0032 36.4596 38.8059 39.1584 35.5376C41.6232 32.5523 41.5999 27.2763 39.6273 24.4231C38.6139 22.9573 36.2941 21.225 33.1638 20.2178C30.5435 19.3742 27.3636 19.1546 23.8804 19.1546C20.3915 19.1546 17.2073 19.376 14.5849 20.2213C11.4602 21.2286 9.14549 22.9595 8.13355 24.4231C6.16089 27.2763 6.13725 32.5523 8.60209 35.5376C11.3008 38.8059 14.7844 38.0032 17.2682 37.0367C19.4243 36.1982 20.3714 35.2468 21.2802 34.626C22.0285 34.1148 22.7549 33.7871 23.8804 33.7871ZM23.8804 32.5144C22.4454 32.5144 21.5162 32.9231 20.562 33.575C19.7098 34.1571 18.8293 35.0637 16.8069 35.8507C14.7421 36.6538 11.8267 37.4437 9.58358 34.727C7.45904 32.154 7.48017 27.6062 9.18023 25.1471C10.0851 23.8382 12.182 22.3333 14.9753 21.4328C17.4871 20.6229 20.5387 20.4273 23.8804 20.4273C27.2168 20.4273 30.2641 20.6215 32.774 21.4292C35.5727 22.3301 37.6743 23.8364 38.5802 25.1471C40.2807 27.6062 40.3014 32.154 38.1769 34.727C35.9338 37.4437 33.0183 36.6538 30.954 35.8507C28.9312 35.0637 28.0507 34.1571 27.1985 33.575C26.2442 32.9231 25.315 32.5144 23.8804 32.5144ZM23.8804 31.0217C25.6783 31.0217 26.8449 31.5261 28.0403 32.3424C28.8269 32.8797 29.6286 33.7337 31.4949 34.4598C33.0692 35.072 35.3159 35.8478 37.026 33.777C38.7518 31.6869 38.7335 27.9934 37.3527 25.9957C36.5721 24.8673 34.727 23.6258 32.3166 22.8499C29.9367 22.084 27.0445 21.92 23.8804 21.92C20.7113 21.92 17.8152 22.0855 15.4331 22.8535C13.0281 23.629 11.1873 24.8691 10.4082 25.9957C9.02692 27.9934 9.00901 31.6869 10.7345 33.777C12.4446 35.8478 14.6916 35.072 16.2656 34.4598C18.1319 33.7337 18.9335 32.8797 19.7202 32.3424C20.9155 31.5261 22.0826 31.0217 23.8804 31.0217ZM15.8318 24.0266C16.2241 23.9005 16.645 24.1165 16.771 24.5084C16.8971 24.9006 16.6811 25.3212 16.2892 25.4476C14.587 25.9953 13.2119 26.7515 12.661 27.5485C12.4428 27.8637 12.2898 28.2567 12.1978 28.6815C12.1104 29.0841 11.7128 29.3403 11.3101 29.2529C10.9079 29.1655 10.6518 28.7678 10.7392 28.3652C10.8749 27.7387 11.1117 27.1645 11.4334 26.6995C12.1097 25.7213 13.7424 24.6993 15.8318 24.0266Z" fill="#1E0A52"/>
</svg>
