<svg width="48" height="48" viewBox="0 0 48 48" fill="none" xmlns="http://www.w3.org/2000/svg">
<path fill-rule="evenodd" clip-rule="evenodd" d="M37.5 6C35.7359 6.00162 34.0006 6.44808 32.4548 7.29809C30.9089 8.1481 29.6024 9.3742 28.656 10.863C24.525 11.3025 21.0045 14.055 19.4655 17.979C19.041 17.916 18.6195 17.838 18.1905 17.8365C18.1895 17.8365 18.1885 17.8365 18.1875 17.8365C13.8735 17.8365 10.3305 21.0165 9.5595 25.218C8.955 25.065 8.3535 24.8895 7.7295 24.888C7.728 24.888 7.7265 24.888 7.725 24.888C3.465 24.891 0 28.4025 0 32.6985C0 36.9945 3.4635 40.4985 7.725 40.5C7.899 40.5 8.0295 40.482 8.136 40.476C8.046 40.476 8.0715 40.5 8.3055 40.5H39.6945C40.3665 40.5 40.9845 40.35 41.5485 40.146C45.363 39.0465 47.997 35.526 48 31.524C47.9988 30.1361 47.6763 28.7674 47.0577 27.525C46.4391 26.2827 45.5413 25.2004 44.4345 24.363C45.5537 23.3812 46.4506 22.172 47.0655 20.8161C47.6803 19.4602 47.9989 17.9888 48 16.5C48 10.71 43.29 6 37.5 6ZM37.5 7.5C42.48 7.5 46.5 11.52 46.5 16.5C46.5 21.48 42.48 25.5 37.5 25.5C32.52 25.5 28.5 21.48 28.5 16.5C28.5 11.52 32.52 7.5 37.5 7.5ZM37.0845 9.747V9.75C36.2475 9.75 35.5485 10.4475 35.5485 11.2845V11.778C35.5446 11.7795 35.5404 11.7795 35.5365 11.778L35.1915 11.433C34.9018 11.1487 34.5121 10.9895 34.1062 10.9895C33.7004 10.9895 33.3107 11.1487 33.021 11.433L32.4345 12.021C32.1501 12.31 31.9906 12.6992 31.9906 13.1047C31.9906 13.5102 32.1501 13.8995 32.4345 14.1885L32.7795 14.5335L32.775 14.5485H32.2845C31.449 14.5485 30.75 15.2475 30.75 16.0845V16.9125C30.75 17.7495 31.449 18.4485 32.2845 18.4485H32.775C32.775 18.4485 32.778 18.4635 32.781 18.4635L32.4345 18.8055C32.1502 19.0952 31.991 19.4849 31.991 19.8907C31.991 20.2966 32.1502 20.6863 32.4345 20.976L33.0195 21.5655C33.3093 21.8502 33.6993 22.0098 34.1055 22.0098C34.5117 22.0098 34.9017 21.8502 35.1915 21.5655L35.5365 21.2175H35.5485V21.7095C35.5485 22.5465 36.2475 23.241 37.0845 23.241H37.9155C38.7525 23.241 39.4515 22.5465 39.4515 21.7095V21.2175H39.4635L39.8085 21.5655C40.0982 21.8498 40.4879 22.009 40.8938 22.009C41.2996 22.009 41.6893 21.8498 41.979 21.5655L42.5655 20.976C42.8498 20.6863 43.009 20.2966 43.009 19.8907C43.009 19.4849 42.8498 19.0952 42.5655 18.8055L42.2205 18.4605L42.225 18.4455H42.7155C43.551 18.4455 44.25 17.7465 44.25 16.9095V16.0815C44.25 15.2445 43.551 14.5455 42.7155 14.5455H42.225C42.225 14.5455 42.222 14.5305 42.219 14.5305L42.5655 14.1825C42.8499 13.8935 43.0094 13.5043 43.0094 13.0988C43.0094 12.6933 42.8499 12.304 42.5655 12.015L41.9805 11.4255C41.6907 11.1408 41.3007 10.9812 40.8945 10.9812C40.4883 10.9812 40.0983 11.1408 39.8085 11.4255L39.4635 11.775H39.45V11.28C39.45 10.443 38.751 9.7455 37.914 9.7455H37.083L37.0845 9.747ZM37.0845 11.25H37.9155C37.9485 11.25 37.9515 11.25 37.9515 11.2845V12.273C37.9511 12.4364 38.0041 12.5954 38.1024 12.7259C38.2007 12.8564 38.3389 12.9512 38.496 12.996C38.769 13.0725 39.033 13.1775 39.2805 13.3155C39.4227 13.3948 39.5868 13.4257 39.7481 13.4035C39.9093 13.3813 40.059 13.3073 40.1745 13.1925L40.869 12.495C40.8915 12.4725 40.896 12.4725 40.9185 12.495L41.5035 13.0845C41.5275 13.107 41.5275 13.1085 41.5035 13.1295L40.8075 13.8315C40.6924 13.9471 40.6181 14.097 40.5959 14.2586C40.5737 14.4202 40.6048 14.5847 40.6845 14.727C40.824 14.9745 40.932 15.237 41.01 15.51C41.0552 15.6661 41.1498 15.8032 41.2796 15.9009C41.4095 15.9986 41.5675 16.0514 41.73 16.0515H42.7155C42.747 16.0515 42.75 16.0515 42.75 16.0875V16.9155C42.75 16.9485 42.747 16.9485 42.7155 16.9485H41.727C41.5638 16.949 41.4051 17.0027 41.2752 17.1015C41.1452 17.2003 41.0511 17.3388 41.007 17.496C40.9303 17.7686 40.822 18.0314 40.6845 18.279C40.6059 18.4213 40.5757 18.5853 40.5985 18.7463C40.6212 18.9073 40.6956 19.0565 40.8105 19.1715L41.505 19.869C41.5275 19.8915 41.5275 19.893 41.505 19.9155L40.92 20.505C40.896 20.5275 40.8915 20.5275 40.869 20.505L40.1715 19.8045C40.0556 19.6884 39.9048 19.6135 39.7422 19.5913C39.5797 19.569 39.4143 19.6007 39.2715 19.6815C39.0254 19.8205 38.7642 19.9307 38.493 20.01C38.3369 20.0552 38.1998 20.1498 38.1021 20.2796C38.0044 20.4095 37.9516 20.5675 37.9515 20.73V21.7155C37.9515 21.7485 37.9485 21.747 37.9155 21.747H37.0845C37.0515 21.747 37.0485 21.747 37.0485 21.7155V20.727C37.0489 20.5636 36.9959 20.4046 36.8976 20.2741C36.7993 20.1436 36.6611 20.0488 36.504 20.004C36.2309 19.9271 35.9677 19.8189 35.7195 19.6815C35.577 19.6026 35.4127 19.5722 35.2514 19.5949C35.0901 19.6176 34.9406 19.6923 34.8255 19.8075L34.131 20.505C34.1085 20.5275 34.104 20.5275 34.0815 20.505L33.4965 19.9155C33.4725 19.893 33.4725 19.8915 33.4965 19.8705L34.1925 19.1715C34.3076 19.0559 34.3819 18.906 34.4041 18.7444C34.4263 18.5828 34.3952 18.4183 34.3155 18.276C34.177 18.0285 34.0678 17.7657 33.99 17.493C33.9454 17.3364 33.851 17.1985 33.7211 17.1003C33.5912 17.0021 33.4329 16.9488 33.27 16.9485H32.2845C32.253 16.9485 32.25 16.95 32.25 16.9155V16.0875C32.25 16.0545 32.253 16.0515 32.2845 16.0515H33.273C33.4362 16.051 33.5949 15.9973 33.7248 15.8985C33.8548 15.7997 33.9489 15.6612 33.993 15.504C34.0695 15.231 34.179 14.97 34.3155 14.721C34.3941 14.5787 34.4243 14.4147 34.4015 14.2537C34.3788 14.0927 34.3044 13.9435 34.1895 13.8285L33.495 13.131C33.4725 13.1085 33.4725 13.107 33.495 13.0845L34.08 12.495C34.104 12.4725 34.1085 12.4725 34.131 12.495L34.8285 13.1955C34.9444 13.3116 35.0952 13.3865 35.2578 13.4087C35.4203 13.431 35.5857 13.3993 35.7285 13.3185C35.9745 13.1805 36.2355 13.068 36.507 12.99C36.6631 12.9448 36.8002 12.8502 36.8979 12.7204C36.9956 12.5905 37.0484 12.4325 37.0485 12.27V11.2845C37.0485 11.2515 37.0515 11.25 37.0845 11.25ZM27.7905 12.513C27.2683 13.7774 26.9997 15.132 27 16.5C27 22.29 31.71 27 37.5 27C39.6 27 41.553 26.3745 43.1955 25.3095C44.2136 25.9958 45.0474 26.9217 45.6236 28.0059C46.1998 29.0901 46.5008 30.2992 46.5 31.527C46.4955 34.878 44.298 37.8075 41.118 38.7165C41.1003 38.7214 41.0828 38.7269 41.0655 38.733C40.6065 38.9025 40.1565 39.003 39.6945 39.003H8.3055C8.4345 39.003 8.3745 38.979 8.121 38.979C8.10351 38.9784 8.08599 38.9784 8.0685 38.979C7.95439 38.9913 7.83976 38.9983 7.725 39C4.284 39 1.5 36.1935 1.5 32.6985C1.5 29.2035 4.281 26.3955 7.722 26.394C8.442 26.394 9.1515 26.526 9.8265 26.775C9.93459 26.8151 10.0505 26.8298 10.1652 26.8179C10.2798 26.8059 10.3902 26.7677 10.4877 26.7062C10.5852 26.6447 10.6672 26.5615 10.7274 26.4631C10.7875 26.3647 10.8242 26.2538 10.8345 26.139C11.1825 22.2795 14.3655 19.344 18.1845 19.3425C18.705 19.3425 19.2255 19.401 19.734 19.512C19.9153 19.5518 20.105 19.5229 20.2663 19.4309C20.4275 19.3389 20.5489 19.1903 20.607 19.014C21.1337 17.3979 22.0739 15.9477 23.3343 14.8073C24.5947 13.6669 26.1299 12.8759 27.7905 12.513ZM37.5 13.752C36.7716 13.7544 36.0737 14.0446 35.5584 14.5593C35.0431 15.0741 34.7522 15.7716 34.749 16.5C34.749 18.0105 35.9895 19.251 37.5 19.251C38.2286 19.2478 38.9265 18.957 39.4418 18.4418C39.957 17.9265 40.2478 17.2286 40.251 16.5C40.2478 15.7716 39.9569 15.0741 39.4416 14.5593C38.9263 14.0446 38.2284 13.7544 37.5 13.752ZM37.5 15.252C38.199 15.252 38.751 15.801 38.751 16.5C38.7524 16.6647 38.721 16.828 38.6586 16.9804C38.5963 17.1328 38.5042 17.2713 38.3877 17.3877C38.2713 17.5042 38.1328 17.5963 37.9804 17.6586C37.828 17.721 37.6647 17.7524 37.5 17.751C37.3353 17.7524 37.172 17.721 37.0196 17.6586C36.8672 17.5963 36.7287 17.5042 36.6123 17.3877C36.4958 17.2713 36.4037 17.1328 36.3414 16.9804C36.279 16.828 36.2476 16.6647 36.249 16.5C36.249 15.801 36.801 15.252 37.5 15.252Z" fill="#1E0A52"/>
</svg>
