<svg width="48" height="48" viewBox="0 0 48 48" fill="none" xmlns="http://www.w3.org/2000/svg">
<path fill-rule="evenodd" clip-rule="evenodd" d="M9.47646 15.522C7.62057 15.522 6.10212 14.0316 6.10212 12.1757C6.10212 10.3199 7.62057 8.82952 9.47646 8.82952C11.3042 8.82952 12.8227 10.3199 12.8227 12.1757C12.8227 14.0316 11.3042 15.522 9.47646 15.522ZM9.47646 9.9543C8.2392 9.9543 7.2269 10.9385 7.2269 12.1757C7.2269 13.413 8.2392 14.3972 9.47646 14.3972C10.6856 14.3972 11.6979 13.413 11.6979 12.1757C11.6979 10.9385 10.6856 9.9543 9.47646 9.9543ZM24.5766 30.4534C20.4149 30.4534 17.0125 27.0791 17.0125 22.9174C17.0125 18.7557 20.4149 15.3814 24.5766 15.3814C28.7102 15.3814 32.1127 18.7557 32.1127 22.9174C32.1127 27.0791 28.7383 30.4534 24.5766 30.4534ZM24.5766 16.5061C21.0336 16.5061 18.1373 19.3743 18.1373 22.9174C18.1373 26.4605 21.0336 29.3286 24.5766 29.3286C28.0916 29.3286 30.9879 26.4605 30.9879 22.9174C30.9879 19.3743 28.0916 16.5061 24.5766 16.5061ZM24.5766 9.58875C21.9053 9.58875 19.7682 7.45167 19.7682 4.80844C19.7682 2.1652 21.9334 0 24.5766 0C27.2199 0 29.357 2.1652 29.357 4.80844C29.357 7.45167 27.2199 9.58875 24.5766 9.58875ZM24.5766 1.12478C22.5239 1.12478 20.893 2.78383 20.893 4.80844C20.893 6.83304 22.5239 8.46397 24.5766 8.46397C26.6012 8.46397 28.2322 6.83304 28.2322 4.80844C28.2322 2.78383 26.6012 1.12478 24.5766 1.12478ZM39.7049 18.0246C37.849 18.0246 36.3587 16.5343 36.3587 14.6784C36.3587 12.8506 37.849 11.3322 39.7049 11.3322C41.5608 11.3322 43.0512 12.8506 43.0512 14.6784C43.0512 16.5343 41.5608 18.0246 39.7049 18.0246ZM39.7049 12.4569C38.4677 12.4569 37.4835 13.4692 37.4835 14.6784C37.4835 15.9156 38.4677 16.8998 39.7049 16.8998C40.9422 16.8998 41.9264 15.9156 41.9264 14.6784C41.9264 13.4692 40.9422 12.4569 39.7049 12.4569ZM9.58894 40.3515C7.03006 40.3515 4.94922 38.2706 4.94922 35.7118C4.94922 33.1529 7.03006 31.0721 9.58894 31.0721C12.1478 31.0721 14.2287 33.1529 14.2287 35.7118C14.2287 38.2706 12.1478 40.3515 9.58894 40.3515ZM9.58894 32.1968C7.64869 32.1968 6.074 33.7715 6.074 35.7118C6.074 37.652 7.64869 39.2267 9.58894 39.2267C11.5292 39.2267 13.1039 37.652 13.1039 35.7118C13.1039 33.7715 11.5292 32.1968 9.58894 32.1968ZM38.1302 36.696C36.3025 36.696 34.784 35.2056 34.784 33.3497C34.784 31.522 36.3025 30.0035 38.1302 30.0035C39.9861 30.0035 41.4765 31.522 41.4765 33.3497C41.4765 35.2056 39.9861 36.696 38.1302 36.696ZM38.1302 31.1283C36.9211 31.1283 35.9088 32.1125 35.9088 33.3497C35.9088 34.587 36.893 35.5712 38.1302 35.5712C39.3675 35.5712 40.3517 34.587 40.3517 33.3497C40.3517 32.1125 39.3675 31.1283 38.1302 31.1283Z" fill="#1E0A52"/>
<path fill-rule="evenodd" clip-rule="evenodd" d="M24.5768 16.5066C24.2675 16.5066 24.0144 16.2536 24.0144 15.9442V9.02685C24.0144 8.29574 25.1392 8.29574 25.1392 9.02685V15.9442C25.1392 16.2536 24.8861 16.5066 24.5768 16.5066ZM18.7279 19.6279C18.6436 19.6279 18.5311 19.5998 18.4186 19.5435L11.0513 14.6789C10.4327 14.2571 11.0794 13.3291 11.6981 13.7228L19.0373 18.6156C19.5153 18.9249 19.2903 19.6279 18.7279 19.6279ZM31.1286 21.062C30.5663 21.062 30.3413 20.3309 30.8193 20.0497L37.1743 15.9161C37.8211 15.4943 38.4116 16.4504 37.793 16.8441L31.438 20.9776C31.3255 21.0339 31.213 21.062 31.1286 21.062ZM35.7965 32.4223C35.6559 32.4223 35.5434 32.366 35.4309 32.2817L29.6664 27.6982C29.104 27.2483 29.807 26.3766 30.3694 26.8265L36.1339 31.41C36.5557 31.7474 36.3026 32.4223 35.7965 32.4223ZM12.626 33.5752C12.1199 33.5752 11.8668 32.9003 12.2886 32.591L18.8685 26.9952C19.4309 26.5172 20.162 27.3889 19.5996 27.8669L12.9916 33.4346C12.9072 33.5189 12.7666 33.5752 12.626 33.5752Z" fill="#1E0A52"/>
<path fill-rule="evenodd" clip-rule="evenodd" d="M30.3979 37.9328C30.1167 37.9328 29.8636 37.7359 29.8355 37.4547C29.5824 35.0646 31.4945 32.3089 33.3785 29.975C39.143 22.7201 33.9971 11.866 24.6615 11.866C15.3258 11.866 10.1518 22.7201 15.9444 29.975C17.8284 32.3089 19.7406 35.0646 19.4875 37.4547C19.4031 38.1858 18.2783 38.0734 18.3627 37.3141C18.5595 35.3458 16.8161 32.8431 15.0727 30.6779C13.3293 28.5127 12.4014 25.7851 12.4014 23.0013C12.4014 16.2526 17.8847 10.7412 24.6615 10.7412C34.9813 10.7412 40.6052 22.7201 34.2502 30.6779C32.5068 32.8431 30.7634 35.3458 30.9602 37.3141C30.9884 37.6516 30.7353 37.9328 30.3979 37.9328Z" fill="#1E0A52"/>
<path fill-rule="evenodd" clip-rule="evenodd" d="M31.382 37.9336H17.8003C17.0692 37.9336 17.0692 36.8369 17.8003 36.8369H31.382C32.1131 36.8369 32.1131 37.9336 31.382 37.9336Z" fill="#1E0A52"/>
<path fill-rule="evenodd" clip-rule="evenodd" d="M28.0919 44.6542H21.2308C20.3028 44.6542 19.5436 43.9512 19.3468 42.8827L18.3626 37.4837C18.2501 36.7526 19.3468 36.5558 19.4874 37.2869L20.4434 42.6858C20.4715 42.8264 20.6403 43.5294 21.2308 43.5294H28.0919C28.6543 43.5294 28.823 42.8264 28.8511 42.6858L29.8635 37.2869C29.9759 36.5558 31.1007 36.7526 30.9601 37.4837L29.9478 42.8827C29.751 43.9512 28.9917 44.6542 28.0919 44.6542Z" fill="#1E0A52"/>
<path fill-rule="evenodd" clip-rule="evenodd" d="M24.6608 47.9998C22.4956 47.9998 20.696 46.2846 20.5835 44.1475C20.5554 43.3882 21.652 43.332 21.7083 44.0631C21.7926 45.6378 23.0861 46.8751 24.6608 46.8751C26.2355 46.8751 27.529 45.6378 27.6134 44.0631C27.6415 43.332 28.7663 43.3882 28.7381 44.1193C28.6257 46.2846 26.826 47.9998 24.6608 47.9998ZM29.7786 41.3074H19.5431C18.7838 41.3074 18.7838 40.1826 19.5431 40.1826H29.7786C30.5097 40.1826 30.5097 41.3074 29.7786 41.3074Z" fill="#1E0A52"/>
</svg>
