<svg width="48" height="48" viewBox="0 0 48 48" fill="none" xmlns="http://www.w3.org/2000/svg">
<path d="M24 46.5007C27.4109 46.4967 30.6809 45.1399 33.0926 42.728C35.5044 40.3161 36.861 37.046 36.8648 33.6352V27.3172C36.8648 27.1183 36.7857 26.9275 36.6451 26.7868C36.5044 26.6462 36.3137 26.5672 36.1148 26.5672H29.7338C29.5348 26.5672 29.3441 26.6462 29.2034 26.7868C29.0628 26.9275 28.9838 27.1183 28.9838 27.3172V33.0224V33.0329V33.0442V33.6352C28.9838 34.9569 28.4587 36.2246 27.524 37.1592C26.5894 38.0938 25.3218 38.6189 24 38.6189C22.6782 38.6189 21.4106 38.0938 20.476 37.1592C19.5413 36.2246 19.0163 34.9569 19.0163 33.6352V33.0442V33.0329V33.0224V27.3172C19.0163 27.1183 18.9372 26.9275 18.7966 26.7868C18.6559 26.6462 18.4652 26.5672 18.2663 26.5672H11.8853C11.6863 26.5672 11.4956 26.6462 11.3549 26.7868C11.2143 26.9275 11.1353 27.1183 11.1353 27.3172V33.6352C11.139 37.046 12.4956 40.3161 14.9074 42.728C17.3191 45.1399 20.5891 46.4967 24 46.5007ZM35.3648 28.0672V32.2829H30.4838V28.0672H35.3648ZM24 40.1189C25.6927 40.1163 27.3173 39.4522 28.5272 38.2685C29.7371 37.0848 30.4365 35.4751 30.4763 33.7829H35.3573C35.3229 36.7724 34.1112 39.6279 31.985 41.7297C29.8589 43.8316 26.9897 45.0104 24 45.0104C21.0103 45.0104 18.1411 43.8316 16.015 41.7297C13.8888 39.6279 12.6771 36.7724 12.6428 33.7829H17.5238C17.5635 35.4751 18.2629 37.0848 19.4728 38.2685C20.6827 39.4522 22.3073 40.1163 24 40.1189ZM17.5163 28.0672V32.2829H12.6353V28.0672H17.5163ZM16.5113 21.1282C16.5569 21.1849 16.6111 21.2342 16.6718 21.2744C18.6806 22.9551 21.217 23.8751 23.8362 23.8732C26.4554 23.8712 28.9903 22.9475 30.9968 21.2639C31.0491 21.2274 31.0965 21.1843 31.1378 21.1357C32.8654 19.6448 34.0958 17.6613 34.6638 15.4511C35.2318 13.241 35.1103 10.91 34.3155 8.77092C33.5208 6.63182 32.0909 4.78694 30.2176 3.48381C28.3443 2.18069 26.1173 1.48164 23.8353 1.48047C21.5534 1.4793 19.3256 2.17606 17.451 3.47727C15.5764 4.77848 14.1446 6.62188 13.3477 8.76016C12.5507 10.8984 12.4268 13.2293 12.9926 15.44C13.5583 17.6507 14.7866 19.6356 16.5128 21.1282H16.5113ZM18.0945 20.4757C18.7229 19.5323 19.574 18.7582 20.5726 18.2219C21.5712 17.6855 22.6865 17.4035 23.82 17.4007H23.8335C24.7409 17.3988 25.6396 17.5768 26.4778 17.9244C27.316 18.272 28.077 18.7822 28.7168 19.4257C29.03 19.7477 29.3113 20.0994 29.5568 20.4757C27.8995 21.7066 25.89 22.3713 23.8256 22.3713C21.7612 22.3713 19.7517 21.7066 18.0945 20.4757ZM23.8268 15.9007H23.82C22.6442 15.8989 21.5173 15.4303 20.6868 14.598C19.8563 13.7656 19.3904 12.6376 19.3913 11.4618C19.3921 10.286 19.8599 9.15869 20.6916 8.3276C21.5233 7.49651 22.651 7.02967 23.8268 7.02967C25.0025 7.02967 26.1302 7.49651 26.9619 8.3276C27.7937 9.15869 28.2614 10.286 28.2623 11.4618C28.2631 12.6376 27.7972 13.7656 26.9667 14.598C26.1362 15.4303 25.0093 15.8989 23.8335 15.9007H23.8268ZM23.8268 3.00066C25.739 2.99759 27.6093 3.56126 29.2014 4.6205C30.7935 5.67973 32.0361 7.18702 32.772 8.95199C33.508 10.717 33.7045 12.6604 33.3366 14.537C32.9687 16.4136 32.0529 18.139 30.705 19.4954C29.7852 18.1431 28.478 17.1005 26.955 16.5044C28.0526 15.8241 28.8984 14.8043 29.3641 13.5998C29.8298 12.3953 29.8899 11.0718 29.5354 9.82998C29.1809 8.5882 28.431 7.49593 27.3996 6.71884C26.3682 5.94175 25.1115 5.52224 23.8201 5.52395C22.5287 5.52565 21.2731 5.94848 20.2438 6.7283C19.2144 7.50812 18.4675 8.60237 18.1162 9.84507C17.765 11.0878 17.8286 12.4111 18.2975 13.6144C18.7663 14.8177 19.6148 15.8352 20.7143 16.5127C19.1951 17.1183 17.8858 18.1541 16.947 19.4932C15.5998 18.1365 14.6847 16.4112 14.3172 14.5348C13.9498 12.6585 14.1466 10.7154 14.8827 8.95086C15.6188 7.18629 16.8612 5.67938 18.453 4.62036C20.0449 3.56135 21.9148 2.99773 23.8268 3.00066Z" fill="#1E0A52"/>
</svg>
