<svg width="48" height="48" viewBox="0 0 48 48" fill="none" xmlns="http://www.w3.org/2000/svg">
<path d="M9.41152 45.6662C9.94945 46.1524 10.635 46.4439 11.3583 46.494C12.0816 46.5442 12.8009 46.3502 13.4008 45.943L15.4048 44.5877C15.6923 44.3921 16.032 44.2875 16.3798 44.2877L26.8048 44.293C27.231 44.2943 27.6533 44.2112 28.0473 44.0483C28.4412 43.8855 28.7989 43.6462 29.0998 43.3442L33.1498 39.3002C33.7638 38.6979 34.1134 37.8763 34.1217 37.0163C34.13 36.1562 33.7963 35.328 33.194 34.714C32.5917 34.0999 31.7701 33.7503 30.9101 33.742C30.05 33.7337 29.2218 34.0674 28.6078 34.6697L25.5448 37.6187L23.0158 37.579C23.3358 37.0886 23.5177 36.521 23.5425 35.9359C23.5672 35.3508 23.4337 34.7699 23.1562 34.2543C22.8786 33.7386 22.4672 33.3073 21.9653 33.0057C21.4633 32.7041 20.8894 32.5434 20.3038 32.5405H14.396H14.3923C13.5272 32.5431 12.6986 32.8889 12.0883 33.502L6.85327 38.7887C6.54497 39.1005 6.30309 39.4716 6.14222 39.8796C5.98136 40.2875 5.90485 40.7238 5.91733 41.1621C5.92981 41.6005 6.03101 42.0317 6.21482 42.4298C6.39863 42.8279 6.66123 43.1847 6.98677 43.4785L9.41152 45.6662ZM7.91977 39.8432L13.1533 34.555C13.4812 34.2254 13.9266 34.0395 14.3915 34.0382H20.3C20.7624 34.039 21.2055 34.2232 21.5322 34.5504C21.8588 34.8777 22.0423 35.3211 22.0423 35.7835C22.0424 36.1945 21.9019 36.5932 21.644 36.9133C21.3861 37.2334 21.0264 37.4556 20.6248 37.543L20.2198 37.5362C20.1318 37.5356 20.0443 37.5498 19.961 37.5782L17.825 37.5452H17.8123C17.6134 37.5438 17.422 37.6215 17.2804 37.7612C17.1388 37.9008 17.0584 38.0911 17.057 38.29C17.0556 38.4889 17.1333 38.6802 17.273 38.8218C17.4126 38.9635 17.6029 39.0438 17.8018 39.0452L20.195 39.0812C20.3794 39.0843 20.5638 39.0723 20.7463 39.0452L25.829 39.1202C26.0261 39.1187 26.2155 39.0441 26.3608 38.911L29.6465 35.7475C29.9766 35.4237 30.4218 35.2444 30.8841 35.2489C31.3464 35.2534 31.788 35.4414 32.1118 35.7715C32.4355 36.1016 32.6148 36.5467 32.6103 37.0091C32.6058 37.4714 32.4179 37.913 32.0878 38.2367L28.0378 42.2807C27.8761 42.4429 27.6839 42.5715 27.4723 42.659C27.2606 42.7465 27.0338 42.7913 26.8048 42.7907L16.3798 42.7855C15.7327 42.7853 15.1005 42.9792 14.5648 43.342L12.5608 44.7002C12.2382 44.919 11.8515 45.0231 11.4627 44.9959C11.0739 44.9687 10.7055 44.8118 10.4165 44.5502L7.99177 42.3632C7.81653 42.2055 7.67509 42.0138 7.57598 41.7999C7.47688 41.586 7.42217 41.3542 7.41516 41.1185C7.40815 40.8828 7.44898 40.6482 7.5352 40.4287C7.62141 40.2093 7.75122 40.0096 7.91677 39.8417L7.91977 39.8432ZM34.5988 2.05746L32.594 3.41271C32.3064 3.60817 31.9667 3.71269 31.619 3.71271L21.194 3.70746C20.7678 3.70586 20.3456 3.78889 19.9517 3.95176C19.5579 4.11462 19.2003 4.35407 18.8998 4.65621L14.8498 8.70021C14.5351 9.01441 14.2885 9.38995 14.1252 9.8035C13.9618 10.2171 13.8852 10.6598 13.9002 11.1042C13.9152 11.5486 14.0214 11.9851 14.2122 12.3867C14.4031 12.7883 14.6745 13.1464 15.0095 13.4387C15.6191 13.9763 16.4091 14.264 17.2217 14.2441C18.0342 14.2242 18.8092 13.8983 19.3918 13.3315L22.4548 10.3825L24.9838 10.4222C24.6637 10.9126 24.4818 11.4802 24.4571 12.0653C24.4324 12.6504 24.5658 13.2313 24.8434 13.7469C25.1209 14.2626 25.5323 14.6939 26.0343 14.9954C26.5362 15.297 27.1102 15.4578 27.6958 15.4607H33.6043C34.4699 15.4581 35.2991 15.112 35.9098 14.4985L41.1433 9.20946C41.4516 8.89763 41.6935 8.52654 41.8543 8.11861C42.0152 7.71068 42.0917 7.27437 42.0792 6.83605C42.0667 6.39772 41.9655 5.96647 41.7817 5.56835C41.5979 5.17023 41.3353 4.8135 41.0098 4.51971L38.588 2.33571C38.0506 1.84862 37.3651 1.55635 36.6416 1.50589C35.918 1.45542 35.1986 1.64969 34.5988 2.05746ZM40.583 6.88146C40.5907 7.11709 40.55 7.3518 40.4635 7.5711C40.3769 7.79039 40.2463 7.98961 40.0798 8.15646L34.8463 13.4455C34.5181 13.7753 34.0725 13.9614 33.6073 13.963H27.6988C27.2364 13.9626 26.7932 13.7786 26.4665 13.4514C26.1397 13.1243 25.9563 12.6808 25.9565 12.2185C25.9562 11.8072 26.0968 11.4082 26.3549 11.0879C26.6129 10.7677 26.9728 10.5454 27.3748 10.4582L27.7798 10.4642C27.8679 10.4676 27.9558 10.4536 28.0385 10.423L30.1738 10.456C30.2728 10.4596 30.3715 10.4432 30.464 10.4077C30.5566 10.3722 30.6409 10.3184 30.7121 10.2494C30.7833 10.1805 30.8398 10.0979 30.8782 10.0065C30.9167 9.91521 30.9362 9.81705 30.9358 9.71796C30.9374 9.61947 30.9195 9.52163 30.8833 9.43002C30.8471 9.33842 30.7931 9.25485 30.7246 9.18409C30.6561 9.11333 30.5743 9.05676 30.4839 9.01762C30.3935 8.97848 30.2963 8.95753 30.1978 8.95596L27.8038 8.91921C27.6194 8.91793 27.4351 8.93021 27.2525 8.95596L22.1698 8.87721C21.9723 8.87739 21.7823 8.95244 21.638 9.08721L18.3523 12.25C18.0205 12.5654 17.5781 12.7378 17.1203 12.7299C16.6626 12.7219 16.2264 12.5343 15.9058 12.2075C15.5852 11.8808 15.406 11.441 15.4068 10.9832C15.4077 10.5254 15.5885 10.0863 15.9103 9.76071L19.9603 5.71746C20.1205 5.55332 20.3124 5.42346 20.5244 5.33579C20.7363 5.24812 20.9639 5.20446 21.1933 5.20746L31.6183 5.21271C32.2666 5.2133 32.9003 5.01917 33.437 4.65546L35.4388 3.30021C35.7612 3.08094 36.1479 2.9765 36.5369 3.00371C36.9258 3.03091 37.2943 3.18819 37.583 3.45021L40.0078 5.63646C40.1837 5.79362 40.3255 5.9852 40.4244 6.19934C40.5234 6.41348 40.5774 6.64564 40.583 6.88146Z" fill="#1E0A52"/>
<path d="M15.1147 23.9259C15.114 25.632 15.6192 27.2999 16.5665 28.7188C17.5138 30.1376 18.8606 31.2437 20.4365 31.8971C22.0124 32.5505 23.7468 32.7218 25.4201 32.3894C27.0934 32.057 28.6306 31.2359 29.8372 30.0298C31.0438 28.8237 31.8656 27.2869 32.1987 25.6137C32.5318 23.9405 32.3613 22.2061 31.7086 20.6299C31.0559 19.0537 29.9504 17.7064 28.5319 16.7585C27.1135 15.8106 25.4458 15.3047 23.7397 15.3047C21.4535 15.3067 19.2614 16.2155 17.6445 17.8318C16.0275 19.448 15.1177 21.6397 15.1147 23.9259ZM30.8587 23.9259C30.8587 25.3351 30.4409 26.7127 29.658 27.8844C28.8751 29.0561 27.7623 29.9693 26.4604 30.5086C25.1584 31.0479 23.7258 31.189 22.3437 30.914C20.9616 30.6391 19.6921 29.9605 18.6956 28.9641C17.6992 27.9676 17.0206 26.6981 16.7457 25.316C16.4707 23.9338 16.6118 22.5012 17.1511 21.1993C17.6904 19.8974 18.6036 18.7846 19.7753 18.0017C20.947 17.2188 22.3246 16.8009 23.7337 16.8009C25.623 16.8021 27.4346 17.5532 28.7706 18.8891C30.1065 20.2251 30.8576 22.0366 30.8587 23.9259Z" fill="#1E0A52"/>
<path d="M22.987 18.8555V19.211C22.3372 19.3905 21.7746 19.7997 21.4037 20.3627C21.0329 20.9257 20.879 21.6042 20.9707 22.2721C21.0623 22.94 21.3933 23.5519 21.902 23.9942C22.4108 24.4365 23.0628 24.6791 23.737 24.677C23.9925 24.6768 24.2423 24.7525 24.4548 24.8943C24.6673 25.0362 24.8329 25.2379 24.9308 25.4739C25.0286 25.7099 25.0542 25.9696 25.0044 26.2202C24.9546 26.4708 24.8316 26.701 24.6509 26.8817C24.4703 27.0624 24.2401 27.1854 23.9895 27.2352C23.7389 27.285 23.4792 27.2594 23.2431 27.1615C23.0071 27.0637 22.8054 26.898 22.6636 26.6855C22.5217 26.473 22.4461 26.2232 22.4462 25.9677C22.4462 25.7688 22.3672 25.578 22.2265 25.4374C22.0859 25.2967 21.8951 25.2177 21.6962 25.2177C21.4973 25.2177 21.3065 25.2967 21.1659 25.4374C21.0252 25.578 20.9462 25.7688 20.9462 25.9677C20.9482 26.5752 21.1487 27.1654 21.5171 27.6485C21.8855 28.1316 22.4016 28.4811 22.987 28.6437V28.9992C22.987 29.1981 23.066 29.3889 23.2066 29.5296C23.3473 29.6702 23.5381 29.7492 23.737 29.7492C23.9359 29.7492 24.1266 29.6702 24.2673 29.5296C24.4079 29.3889 24.487 29.1981 24.487 28.9992V28.6437C25.1363 28.4636 25.6983 28.0542 26.0687 27.4912C26.4391 26.9283 26.5928 26.2502 26.5012 25.5826C26.4096 24.915 26.079 24.3032 25.5706 23.8609C25.0623 23.4185 24.4108 23.1755 23.737 23.177C23.4816 23.177 23.2321 23.1012 23.0198 22.9594C22.8075 22.8175 22.6421 22.6159 22.5444 22.38C22.4467 22.1441 22.4212 21.8845 22.4711 21.6341C22.5209 21.3837 22.6439 21.1537 22.8245 20.9733C23.0051 20.7928 23.2352 20.6699 23.4856 20.6202C23.736 20.5705 23.9956 20.5961 24.2314 20.6939C24.4673 20.7917 24.6688 20.9573 24.8105 21.1697C24.9523 21.382 25.0279 21.6317 25.0277 21.887C25.0277 22.0859 25.1067 22.2766 25.2474 22.4173C25.388 22.558 25.5788 22.637 25.7777 22.637C25.9766 22.637 26.1674 22.558 26.308 22.4173C26.4487 22.2766 26.5277 22.0859 26.5277 21.887C26.5258 21.2794 26.3254 20.6892 25.957 20.2061C25.5886 19.723 25.0724 19.3735 24.487 19.211V18.8555C24.487 18.6566 24.4079 18.4658 24.2673 18.3251C24.1266 18.1845 23.9359 18.1055 23.737 18.1055C23.5381 18.1055 23.3473 18.1845 23.2066 18.3251C23.066 18.4658 22.987 18.6566 22.987 18.8555Z" fill="#1E0A52"/>
</svg>
